<?xml version="1.0" encoding="UTF-8"?>
<svg width="22px" height="22px" viewBox="0 0 22 22" version="1.1" xmlns="http://www.w3.org/2000/svg" xmlns:xlink="http://www.w3.org/1999/xlink">
    <!-- Generator: Sketch 53 (72520) - https://sketchapp.com -->
    <title>messenger</title>
    <desc>Created with Sketch.</desc>
    <g id="Julia-Allert-Site" stroke="none" stroke-width="1" fill="none" fill-rule="evenodd">
        <g id="Contact_1440" transform="translate(-277.000000, -470.000000)" fill="#000000" fill-rule="nonzero">
            <g id="Contact" transform="translate(276.000000, 323.000000)">
                <g id="Group-6" transform="translate(1.000000, 142.000000)">
                    <g id="messenger" transform="translate(0.000000, 5.000000)">
                        <path d="M3.13866667,21.3120625 C3.13866667,21.8382183 3.70516667,22.1672949 4.1635,21.9115502 L7.91358333,19.8005102 C11.38225,20.7391576 15.1103333,20.0489217 17.9446667,17.9342152 C20.5214167,16.0120046 22,13.1575632 22,10.1032926 C22,4.53190696 17.0655833,0 11,0 C4.93441667,0 0,4.53190696 0,10.1032926 C0,12.7762377 1.11191667,15.2704365 3.13866667,17.1605644 L3.13866667,21.3120625 Z M1.375,10.1032926 C1.375,5.28997473 5.6925,1.37497177 11,1.37497177 C16.3075,1.37497177 20.625,5.28997473 20.625,10.1032926 C20.625,12.7194055 19.3480833,15.1723552 17.1224167,16.8324044 C14.5566667,18.7454485 11.1530833,19.3330198 8.02175,18.4017056 C7.843,18.34854 7.6505,18.3705395 7.48825,18.4612877 L4.51275,20.1360033 L4.51275,16.8553206 C4.51275,16.6582414 4.4275,16.4694119 4.27991667,16.3392479 C2.40625,14.6911151 1.375,12.4764939 1.375,10.1032926 Z" id="Shape"></path>
                        <path d="M4.98996717,13.8470522 L9.99531763,11.306975 L12.3739721,13.7871229 C12.685614,14.1125847 13.1190052,14.0249959 13.3479666,13.7908109 L18.7994284,8.1823573 C19.3400316,7.62547649 18.6903991,6.72561611 18.0044235,7.08058153 L12.9990731,9.67321205 L10.6240529,7.21242583 C10.3705599,6.95058121 9.93716871,6.92199957 9.65550985,7.20781588 L4.2040481,12.7397445 C3.65890193,13.2929373 4.30399157,14.1964857 4.98996717,13.8470522 Z M10.1325128,8.67930889 L12.3766978,11.0036409 C12.5856705,11.2203081 12.9091239,11.2728614 13.1726113,11.1354852 L14.8680159,10.2577525 L12.8664208,12.3165519 L10.62587,9.9793121 C10.4187145,9.7626449 10.0970783,9.70916959 9.83268236,9.84285786 L8.13727775,10.7030728 L10.1325128,8.67930889 Z" id="Shape"></path>
                    </g>
                </g>
            </g>
        </g>
    </g>
</svg>