<?xml version="1.0" encoding="UTF-8"?>
<svg width="20px" height="20px" viewBox="0 0 20 20" version="1.1" xmlns="http://www.w3.org/2000/svg" xmlns:xlink="http://www.w3.org/1999/xlink">
    <!-- Generator: Sketch 53 (72520) - https://sketchapp.com -->
    <title>Shape</title>
    <desc>Created with Sketch.</desc>
    <g id="Julia-Allert-Site" stroke="none" stroke-width="1" fill="none" fill-rule="evenodd">
        <g id="Contact_1440" transform="translate(-277.000000, -426.000000)" fill="#000000" fill-rule="nonzero">
            <g id="Contact" transform="translate(276.000000, 323.000000)">
                <g id="Group-5" transform="translate(1.000000, 99.000000)">
                    <g id="at-(1)" transform="translate(0.000000, 4.000000)">
                        <path d="M10,1.18656653e-15 C4.48609563,1.18656653e-15 0,4.48609563 0,10 C0,15.5139044 4.48609563,20 10,20 C11.8945096,20 13.7390045,19.4671626 15.3338427,18.460103 L14.6661156,17.4029867 C13.2714619,18.2843414 11.6577116,18.750047 10,18.750047 C5.17519799,18.750047 1.24999478,14.8248855 1.24999478,10.0000417 C1.24999478,5.17519799 5.17515624,1.24999478 10,1.24999478 C14.8248438,1.24999478 18.7500052,5.17515624 18.7500052,10 L18.7500052,10.6250183 C18.7500052,11.6589641 17.908938,12.5000313 16.8749922,12.5000313 C15.8410464,12.5000313 14.9999791,11.6589641 14.9999791,10.6250183 L14.9999791,6.25001566 L13.7499843,6.25001566 L13.7499843,6.72799536 C12.8327676,5.67801811 11.5004029,5.00002087 10,5.00002087 C7.24304781,5.00002087 5.00002087,7.24304781 5.00002087,10 C5.00002087,12.7569522 7.24304781,14.9999791 10,14.9999791 C11.8679158,14.9999791 13.4804554,13.9583516 14.3387648,12.4368239 C14.9062535,13.2285861 15.8287723,13.7499843 16.8749922,13.7499843 C18.5979986,13.7499843 20,12.3480247 20,10.6249765 L20,9.99995825 C20,4.48609563 15.5139044,0 10,1.18656653e-15 Z M10,13.7499843 C7.93210843,13.7499843 6.25001566,12.0678498 6.25001566,10 C6.25001566,7.93215018 7.93215018,6.25001566 10,6.25001566 C12.0678498,6.25001566 13.7499843,7.93215018 13.7499843,10 C13.7499843,12.0678498 12.0678498,13.7499843 10,13.7499843 Z" id="Shape"></path>
                    </g>
                </g>
            </g>
        </g>
    </g>
</svg>