<?xml version="1.0" encoding="UTF-8"?>
<svg width="14px" height="8px" viewBox="0 0 14 8" version="1.1" xmlns="http://www.w3.org/2000/svg" xmlns:xlink="http://www.w3.org/1999/xlink">
    <!-- Generator: Sketch 52.2 (67145) - http://www.bohemiancoding.com/sketch -->
    <title>Path</title>
    <desc>Created with Sketch.</desc>
    <g id="Symbols" stroke="none" stroke-width="1" fill="none" fill-rule="evenodd">
        <g id="SLIDE" transform="translate(-180.000000, -177.000000)" fill="#818282">
            <g id="Shop_Now-Copy" transform="translate(65.000000, 167.000000)">
                <path d="M118.295651,21 C118.220002,21 118.144353,20.9736865 118.086435,20.9215965 C117.971188,20.8168794 117.971188,20.646647 118.086435,20.54193 L125.287247,13.9989931 L118.086435,7.45820427 C117.971188,7.35348721 117.971188,7.18325486 118.086435,7.0785378 C118.201681,6.97382073 118.389029,6.97382073 118.504276,7.0785378 L125.913713,13.8088914 C125.969268,13.8593704 126,13.9275707 126,13.9989931 C126,14.0704155 125.968677,14.1386159 125.913713,14.1890948 L118.504276,20.9210594 C118.446948,20.9736865 118.371299,21 118.295651,21 Z" id="Path" transform="translate(122.000000, 14.000000) rotate(90.000000) translate(-122.000000, -14.000000) "></path>
            </g>
        </g>
    </g>
</svg>