<?xml version="1.0" encoding="UTF-8"?>
<svg width="21px" height="18px" viewBox="0 0 21 18" version="1.1" xmlns="http://www.w3.org/2000/svg" xmlns:xlink="http://www.w3.org/1999/xlink">
    <!-- Generator: Sketch 52.2 (67145) - http://www.bohemiancoding.com/sketch -->
    <title>Arrow</title>
    <desc>Created with Sketch.</desc>
    <defs>
        <polygon id="path-1" points="0.26538269 0.0478645132 19.2065592 0.0478645132 19.2065592 1.38119785 0.26538269 1.38119785"></polygon>
        <polygon id="path-3" points="0.346434244 0.869231718 19.2876107 0.869231718 19.2876107 2.20256505 0.346434244 2.20256505"></polygon>
    </defs>
    <g id="Work-Home-page" stroke="none" stroke-width="1" fill="none" fill-rule="evenodd">
        <g id="Coleccion_one-Copy" transform="translate(-776.000000, -105.000000)">
            <g id="Header">
                <g id="Navigation" transform="translate(428.000000, 104.000000)">
                    <g id="Arrow" transform="translate(347.000000, 0.000000)">
                        <g id="Group-3" transform="translate(6.641616, 10.366231) rotate(60.000000) translate(-6.641616, -10.366231) translate(-3.358384, 9.366231)">
                            <mask id="mask-2" fill="white">
                                <use xlink:href="#path-1"></use>
                            </mask>
                            <g id="Clip-2"></g>
                            <path d="M10.2537632,0.61111597 C6.50622246,0.516994852 3.46779901,0.407826157 3.46779901,0.369469588 C3.46779901,0.331113019 6.50622246,0.378321104 10.2537632,0.472442222 C13.9997855,0.567153441 17.0397274,0.676322137 17.0397274,0.714678705 C17.0366905,0.752740223 13.9997855,0.705532139 10.2537632,0.61111597 M0.634366647,0.918263569 C0.616145217,0.918263569 0.558444022,0.876661445 0.558444022,0.714678705 C0.558444022,0.558006875 0.616145217,0.510798791 0.634366647,0.510798791 C0.972981554,0.510798791 3.24458649,0.673371631 3.24458649,0.714678705 C3.24458649,0.755690728 0.968426197,0.918263569 0.634366647,0.918263569 M0.608552954,0.0478645132 C0.471892229,0.0478645132 0.350416029,0.210142303 0.29575174,0.440281715 C0.279048762,0.525846368 0.26538269,0.617312031 0.26538269,0.714678705 C0.26538269,0.812045379 0.279048762,0.903215992 0.29575174,0.988780645 C0.350416029,1.21921511 0.471892229,1.38119785 0.608552954,1.38119785 C2.98796802,1.38119785 19.2065592,0.853057402 19.2065592,0.714678705 C19.2065592,0.578955462 3.01530016,0.0478645132 0.608552954,0.0478645132" id="Fill-1" fill="#51381F" mask="url(#mask-2)"></path>
                        </g>
                        <g id="Group-3-Copy" transform="translate(16.110137, 10.148923) scale(-1, 1) rotate(60.000000) translate(-16.110137, -10.148923) translate(6.110137, 8.648923)">
                            <mask id="mask-4" fill="white">
                                <use xlink:href="#path-3"></use>
                            </mask>
                            <g id="Clip-2"></g>
                            <path d="M10.3348148,1.43248318 C6.58727401,1.33836206 3.54885056,1.22919336 3.54885056,1.19083679 C3.54885056,1.15248022 6.58727401,1.19968831 10.3348148,1.29380943 C14.0808371,1.38852065 17.120779,1.49768934 17.120779,1.53604591 C17.1177421,1.57410743 14.0808371,1.52689934 10.3348148,1.43248318 M0.715418202,1.73963077 C0.697196772,1.73963077 0.639495577,1.69802865 0.639495577,1.53604591 C0.639495577,1.37937408 0.697196772,1.332166 0.715418202,1.332166 C1.05403311,1.332166 3.32563805,1.49473884 3.32563805,1.53604591 C3.32563805,1.57705793 1.04947775,1.73963077 0.715418202,1.73963077 M0.689604509,0.869231718 C0.552943784,0.869231718 0.431467584,1.03150951 0.376803294,1.26164892 C0.360100317,1.34721357 0.346434244,1.43867924 0.346434244,1.53604591 C0.346434244,1.63341258 0.360100317,1.7245832 0.376803294,1.81014785 C0.431467584,2.04058231 0.552943784,2.20256505 0.689604509,2.20256505 C3.06901957,2.20256505 19.2876107,1.67442461 19.2876107,1.53604591 C19.2876107,1.40032267 3.09635172,0.869231718 0.689604509,0.869231718" id="Fill-1" fill="#51381F" mask="url(#mask-4)"></path>
                        </g>
                    </g>
                </g>
            </g>
        </g>
    </g>
</svg>