<?xml version="1.0" encoding="UTF-8"?>
<svg width="52px" height="17px" viewBox="0 0 52 17" version="1.1" xmlns="http://www.w3.org/2000/svg" xmlns:xlink="http://www.w3.org/1999/xlink">
    <!-- Generator: Sketch 52.2 (67145) - http://www.bohemiancoding.com/sketch -->
    <title>next (2)</title>
    <desc>Created with Sketch.</desc>
    <g id="Work-Home-page" stroke="none" stroke-width="1" fill="none" fill-rule="evenodd">
        <g id="Coleccion_one-Copy" transform="translate(-233.000000, -2495.000000)" fill="#FFFFFF">
            <g id="CASUAL" transform="translate(1.000000, 1715.000000)">
                <g id="Casual">
                    <g id="Banner_Prinical">
                        <g id="Text" transform="translate(0.000000, 464.000000)">
                            <g id="next-(2)" transform="translate(232.000000, 316.000000)">
                                <path d="M51.2033093,9 L0.79669067,9 C0.35691742,9 0,8.776 0,8.5 C0,8.224 0.35691742,8 0.79669067,8 L51.2033093,8 C51.6430826,8 52,8.224 52,8.5 C52,8.776 51.6430826,9 51.2033093,9 Z" id="Path"></path>
                                <path d="M42.3695632,17 C42.2750023,17 42.1804414,16.9680479 42.1080432,16.9047957 C41.9639856,16.7776393 41.9639856,16.5709285 42.1080432,16.4437721 L51.109059,8.49877734 L42.1080432,0.556390905 C41.9639856,0.429234472 41.9639856,0.222523758 42.1080432,0.0953673248 C42.2521008,-0.0317891083 42.4862868,-0.0317891083 42.6303444,0.0953673248 L51.8921415,8.26793951 C51.9615846,8.32923543 52,8.41205013 52,8.49877734 C52,8.58550455 51.9608459,8.66831925 51.8921415,8.72961517 L42.6303444,16.9041436 C42.558685,16.9680479 42.4641241,17 42.3695632,17 Z" id="Path"></path>
                            </g>
                        </g>
                    </g>
                </g>
            </g>
        </g>
    </g>
</svg>