<?xml version="1.0" encoding="UTF-8"?>
<svg width="9px" height="8px" viewBox="0 0 9 8" version="1.1" xmlns="http://www.w3.org/2000/svg" xmlns:xlink="http://www.w3.org/1999/xlink">
    <!-- Generator: Sketch 52.2 (67145) - http://www.bohemiancoding.com/sketch -->
    <title>Path</title>
    <desc>Created with Sketch.</desc>
    <g id="Work-Home-page" stroke="none" stroke-width="1" fill="none" fill-rule="evenodd">
        <g id="COLLECTION_ONE_Bussines-VAR-2-Copy" transform="translate(-628.000000, -2404.000000)" fill="#272A2A">
            <g id="Group-6" transform="translate(56.000000, 2266.000000)">
                <g id="PRoduct" transform="translate(451.000000, 136.000000)">
                    <g id="Group-10" transform="translate(98.689055, 0.000000)">
                        <g id="Wish-List" transform="translate(21.383085, 0.000000)">
                            <g id="noun_Heart_1556514" transform="translate(4.639303, 6.030380) scale(-1, 1) translate(-4.639303, -6.030380) translate(0.139303, 2.030380)">
                                <g id="Group">
                                    <path d="M2.18371617,0.0395986524 C0.830441855,0.0395986524 3.4863711e-07,1.15234156 3.4863711e-07,2.06504676 C3.4863711e-07,4.03855963 2.38565927,5.87042915 4.06965209,7.03659963 C5.75364654,5.87042915 8.13930313,4.03855963 8.13930313,2.06504676 C8.13930313,1.15234156 7.30886395,0.0395986524 5.9555908,0.0395986524 C5.19979717,0.0395986524 4.55413483,0.606158941 4.06965209,1.14438903 C3.58517051,0.606158941 2.93949934,0.0395986524 2.18371617,0.0395986524 Z" id="Path"></path>
                                </g>
                            </g>
                        </g>
                    </g>
                </g>
            </g>
        </g>
    </g>
</svg>