<?xml version="1.0" encoding="UTF-8"?>
<svg width="26px" height="17px" viewBox="0 0 26 17" version="1.1" xmlns="http://www.w3.org/2000/svg" xmlns:xlink="http://www.w3.org/1999/xlink">
    <!-- Generator: Sketch 52.2 (67145) - http://www.bohemiancoding.com/sketch -->
    <title>Group 2</title>
    <desc>Created with Sketch.</desc>
    <g id="MOBILE" stroke="none" stroke-width="1" fill="none" fill-rule="evenodd">
        <g id="Artboard" transform="translate(-207.000000, -183.000000)" fill="#51381F">
            <g id="header" transform="translate(190.000000, 165.000000)">
                <g id="Group">
                    <g id="Group-2" transform="translate(17.000000, 18.000000)">
                        <g id="Fill-2">
                            <path d="M13.7107584,0.422438593 C8.56661857,0.351847754 4.3958634,0.269971233 4.3958634,0.241203806 C4.3958634,0.21243638 8.56661857,0.247842443 13.7107584,0.318433282 C18.8528139,0.389466696 23.0256534,0.471343218 23.0256534,0.500110644 C23.0214847,0.528656782 18.8528139,0.493250719 13.7107584,0.422438593 M0.506493506,0.652799292 C0.481481481,0.652799292 0.402276736,0.621597699 0.402276736,0.500110644 C0.402276736,0.382606771 0.481481481,0.347200708 0.506493506,0.347200708 C0.971300305,0.347200708 4.08946609,0.469130339 4.08946609,0.500110644 C4.08946609,0.530869661 0.965047298,0.652799292 0.506493506,0.652799292 M0.471059804,0 C0.283469617,0 0.116722783,0.121708343 0.0416867084,0.294312901 C0.0187590188,0.358486391 0,0.427085638 0,0.500110644 C0,0.573135649 0.0187590188,0.641513609 0.0416867084,0.705687099 C0.116722783,0.878512945 0.283469617,1 0.471059804,1 C3.7372134,1 26,0.603894667 26,0.500110644 C26,0.398318212 3.77473144,0 0.471059804,0" id="Fill-1"></path>
                        </g>
                        <g id="Fill-2-Copy" transform="translate(13.000000, 7.500000) scale(-1, 1) translate(-13.000000, -7.500000) translate(0.000000, 7.000000)">
                            <path d="M13.7107584,0.422438593 C8.56661857,0.351847754 4.3958634,0.269971233 4.3958634,0.241203806 C4.3958634,0.21243638 8.56661857,0.247842443 13.7107584,0.318433282 C18.8528139,0.389466696 23.0256534,0.471343218 23.0256534,0.500110644 C23.0214847,0.528656782 18.8528139,0.493250719 13.7107584,0.422438593 M0.506493506,0.652799292 C0.481481481,0.652799292 0.402276736,0.621597699 0.402276736,0.500110644 C0.402276736,0.382606771 0.481481481,0.347200708 0.506493506,0.347200708 C0.971300305,0.347200708 4.08946609,0.469130339 4.08946609,0.500110644 C4.08946609,0.530869661 0.965047298,0.652799292 0.506493506,0.652799292 M0.471059804,0 C0.283469617,0 0.116722783,0.121708343 0.0416867084,0.294312901 C0.0187590188,0.358486391 0,0.427085638 0,0.500110644 C0,0.573135649 0.0187590188,0.641513609 0.0416867084,0.705687099 C0.116722783,0.878512945 0.283469617,1 0.471059804,1 C3.7372134,1 26,0.603894667 26,0.500110644 C26,0.398318212 3.77473144,0 0.471059804,0" id="Fill-1"></path>
                        </g>
                        <g id="Fill-2-Copy-2" transform="translate(0.000000, 16.000000)">
                            <path d="M13.7107584,0.422438593 C8.56661857,0.351847754 4.3958634,0.269971233 4.3958634,0.241203806 C4.3958634,0.21243638 8.56661857,0.247842443 13.7107584,0.318433282 C18.8528139,0.389466696 23.0256534,0.471343218 23.0256534,0.500110644 C23.0214847,0.528656782 18.8528139,0.493250719 13.7107584,0.422438593 M0.506493506,0.652799292 C0.481481481,0.652799292 0.402276736,0.621597699 0.402276736,0.500110644 C0.402276736,0.382606771 0.481481481,0.347200708 0.506493506,0.347200708 C0.971300305,0.347200708 4.08946609,0.469130339 4.08946609,0.500110644 C4.08946609,0.530869661 0.965047298,0.652799292 0.506493506,0.652799292 M0.471059804,0 C0.283469617,0 0.116722783,0.121708343 0.0416867084,0.294312901 C0.0187590188,0.358486391 0,0.427085638 0,0.500110644 C0,0.573135649 0.0187590188,0.641513609 0.0416867084,0.705687099 C0.116722783,0.878512945 0.283469617,1 0.471059804,1 C3.7372134,1 26,0.603894667 26,0.500110644 C26,0.398318212 3.77473144,0 0.471059804,0" id="Fill-1"></path>
                        </g>
                    </g>
                </g>
            </g>
        </g>
    </g>
</svg>