<?xml version="1.0" encoding="UTF-8"?>
<svg width="55px" height="18px" viewBox="0 0 55 18" version="1.1" xmlns="http://www.w3.org/2000/svg" xmlns:xlink="http://www.w3.org/1999/xlink">
    <!-- Generator: Sketch 52.2 (67145) - http://www.bohemiancoding.com/sketch -->
    <title>next (2)</title>
    <desc>Created with Sketch.</desc>
    <g id="Work-Home-page" stroke="none" stroke-width="1" fill="none" fill-rule="evenodd">
        <g id="Home-page-Copy" transform="translate(-1251.000000, -2432.000000)" fill="#D6BB78">
            <g id="CASUAL" transform="translate(0.000000, 1643.000000)">
                <g id="Casual">
                    <g id="Gentelmencool" transform="translate(800.000000, 405.000000)">
                        <g id="next-(2)" transform="translate(451.000000, 384.000000)">
                            <path d="M54.1573464,9.52941176 L0.842653593,9.52941176 C0.37750881,9.52941176 0,9.29223529 0,9 C0,8.70776471 0.37750881,8.47058824 0.842653593,8.47058824 L54.1573464,8.47058824 C54.6224912,8.47058824 55,8.70776471 55,9 C55,9.29223529 54.6224912,9.52941176 54.1573464,9.52941176 Z" id="Path"></path>
                            <path d="M44.8139611,18 C44.7139447,18 44.6139284,17.9661683 44.5373534,17.8991954 C44.3849848,17.7645592 44.3849848,17.5456891 44.5373534,17.4110528 L54.0576586,8.99870542 L44.5373534,0.589119782 C44.3849848,0.454483559 44.3849848,0.235613391 44.5373534,0.100977167 C44.689722,-0.0336590558 44.9374188,-0.0336590558 45.0897874,0.100977167 L54.8859189,8.75428889 C54.9593684,8.81919046 55,8.90687661 55,8.99870542 C55,9.09053423 54.958587,9.17822039 54.8859189,9.24312195 L45.0897874,17.898505 C45.0139938,17.9661683 44.9139774,18 44.8139611,18 Z" id="Path"></path>
                        </g>
                    </g>
                </g>
            </g>
        </g>
    </g>
</svg>