<?xml version="1.0" encoding="UTF-8"?>
<svg width="20px" height="20px" viewBox="0 0 20 20" version="1.1" xmlns="http://www.w3.org/2000/svg" xmlns:xlink="http://www.w3.org/1999/xlink">
    <!-- Generator: Sketch 53 (72520) - https://sketchapp.com -->
    <title>calendar (1)</title>
    <desc>Created with Sketch.</desc>
    <g id="Julia-Allert-Site" stroke="none" stroke-width="1" fill="none" fill-rule="evenodd">
        <g id="Contact_1440" transform="translate(-282.000000, -738.000000)" fill="#000000" fill-rule="nonzero">
            <g id="Schedule" transform="translate(282.000000, 683.000000)">
                <g id="Group-8" transform="translate(0.000000, 53.000000)">
                    <g id="calendar-(1)" transform="translate(10.000000, 12.000000) scale(-1, 1) translate(-10.000000, -12.000000) translate(0.000000, 2.000000)">
                        <path d="M16.6598802,2.26660158 C16.657276,2.25504558 16.6502772,2.245931 16.6468592,2.23502604 C16.6411625,2.21630858 16.6336754,2.19824217 16.6245607,2.18098958 C16.6141439,2.16113283 16.6016112,2.14257812 16.5872881,2.1253255 C16.575732,2.11100258 16.5630365,2.09765625 16.5492017,2.08528646 C16.5324372,2.07112629 16.514045,2.05891925 16.4945135,2.04866538 C16.4780745,2.038737 16.4606589,2.03027342 16.4425923,2.02327475 C16.4209449,2.01643879 16.3984836,2.0118815 16.3758597,2.00960288 C16.3620248,2.00553383 16.3478645,2.00227867 16.3335414,2 L14.6528559,2 C14.5669173,0.839681 14.028499,0 13.3335032,0 C12.6385073,0 12.1000891,0.839681 12.0141505,2 L11.3194801,2 C11.2335415,0.839681 10.6951232,0 10.0001274,0 C9.30513154,0 8.76671326,0.839681 8.68077467,2 L7.98610432,2 C7.90016572,0.839681 7.36174745,0 6.66675159,0 C5.97175574,0 5.43333746,0.839681 5.34739887,2 L4.65272852,2 C4.56678993,0.839681 4.02837165,0 3.3333758,0 C2.63837994,0 2.09996167,0.839681 2.01402307,2 L0.33333758,2 C0.149253193,2 0,2.14925129 0,2.33333333 L0,19.6666667 C0,19.8507487 0.149253193,20 0.33333758,20 L16.3335414,20 C16.5176258,20 16.666879,19.8507487 16.666879,19.6666667 L16.666879,18.6666667 L19.6669172,18.6666667 C19.7670161,18.6666667 19.8617439,18.621582 19.9248957,18.5441081 C19.9882104,18.4664713 20.0132758,18.3647461 19.993256,18.2666016 L16.6598802,2.26660158 Z M13.3335032,0.666666667 C13.5742289,0.666666667 13.9101707,1.17740883 13.9842276,2 L12.6840808,2 C12.7568357,1.17740883 13.0927775,0.666666667 13.3335032,0.666666667 Z M10.0001274,0.666666667 C10.2408531,0.666666667 10.5767949,1.17740883 10.6508518,2 L9.35070503,2 C9.42345988,1.17740883 9.75940166,0.666666667 10.0001274,0.666666667 Z M6.66675159,0.666666667 C6.90747733,0.666666667 7.24341911,1.17740883 7.31747605,2 L6.01732924,2 C6.09008408,1.17740883 6.42602586,0.666666667 6.66675159,0.666666667 Z M3.3333758,0.666666667 C3.57410153,0.666666667 3.91004331,1.17740883 3.98410025,2 L2.68395344,2 C2.75670828,1.17740883 3.09265006,0.666666667 3.3333758,0.666666667 Z M0.666675159,2.66666667 L2.01402307,2.66666667 C2.09996167,3.82698567 2.63837994,4.66666667 3.3333758,4.66666667 C3.51746018,4.66666667 3.66671338,4.51741538 3.66671338,4.33333333 C3.66671338,4.14925129 3.51746018,4 3.3333758,4 C3.09265006,4 2.75670828,3.48925783 2.68265134,2.66666667 L5.34739887,2.66666667 C5.43447677,3.82698567 5.97175574,4.66666667 6.66675159,4.66666667 C6.85083598,4.66666667 7.00008917,4.51741538 7.00008917,4.33333333 C7.00008917,4.14925129 6.85083598,4 6.66675159,4 C6.42602586,4 6.09008408,3.48925783 6.01602714,2.66666667 L8.68077467,2.66666667 C8.76785257,3.82698567 9.30513154,4.66666667 10.0001274,4.66666667 C10.1842118,4.66666667 10.333465,4.51741538 10.333465,4.33333333 C10.333465,4.14925129 10.1842118,4 10.0001274,4 C9.75940166,4 9.42345988,3.48925783 9.34940293,2.66666667 L12.0141505,2.66666667 C12.1012284,3.82698567 12.6385073,4.66666667 13.3335032,4.66666667 C13.5175876,4.66666667 13.6668408,4.51741538 13.6668408,4.33333333 C13.6668408,4.14925129 13.5175876,4 13.3335032,4 C13.0927775,4 12.7568357,3.48925783 12.6827787,2.66666667 L16.0002038,2.66666667 L16.0002038,6 L0.666675159,6 L0.666675159,2.66666667 Z M16.0002038,19.3333333 L0.666675159,19.3333333 L0.666675159,6.66666667 L16.0002038,6.66666667 L16.0002038,19.3333333 Z M16.666879,18 L16.666879,5.56673175 L19.257244,18 L16.666879,18 Z" id="Shape"></path>
                        <path d="M7.66666667,12 L6.33333333,12 C6.14925129,12 6,12.1492513 6,12.3333333 L6,13.6666667 C6,13.8507487 6.14925129,14 6.33333333,14 L7.66666667,14 C7.85074871,14 8,13.8507487 8,13.6666667 L8,12.3333333 C8,12.1492513 7.85074871,12 7.66666667,12 Z M7.33333333,13.3333333 L6.66666667,13.3333333 L6.66666667,12.6666667 L7.33333333,12.6666667 L7.33333333,13.3333333 Z" id="Shape"></path>
                        <path d="M10.6666667,12 L9.33333333,12 C9.14925129,12 9,12.1492513 9,12.3333333 L9,13.6666667 C9,13.8507487 9.14925129,14 9.33333333,14 L10.6666667,14 C10.8507487,14 11,13.8507487 11,13.6666667 L11,12.3333333 C11,12.1492513 10.8507487,12 10.6666667,12 Z M10.3333333,13.3333333 L9.66666667,13.3333333 L9.66666667,12.6666667 L10.3333333,12.6666667 L10.3333333,13.3333333 Z" id="Shape"></path>
                        <path d="M3.66666667,12 L2.33333333,12 C2.14925129,12 2,12.1492513 2,12.3333333 L2,13.6666667 C2,13.8507487 2.14925129,14 2.33333333,14 L3.66666667,14 C3.85074871,14 4,13.8507487 4,13.6666667 L4,12.3333333 C4,12.1492513 3.85074871,12 3.66666667,12 Z M3.33333333,13.3333333 L2.66666667,13.3333333 L2.66666667,12.6666667 L3.33333333,12.6666667 L3.33333333,13.3333333 Z" id="Shape"></path>
                        <path d="M7.66666667,15 L6.33333333,15 C6.14925129,15 6,15.1492513 6,15.3333333 L6,16.6666667 C6,16.8507487 6.14925129,17 6.33333333,17 L7.66666667,17 C7.85074871,17 8,16.8507487 8,16.6666667 L8,15.3333333 C8,15.1492513 7.85074871,15 7.66666667,15 Z M7.33333333,16.3333333 L6.66666667,16.3333333 L6.66666667,15.6666667 L7.33333333,15.6666667 L7.33333333,16.3333333 Z" id="Shape"></path>
                        <path d="M10.6666667,15 L9.33333333,15 C9.14925129,15 9,15.1492513 9,15.3333333 L9,16.6666667 C9,16.8507487 9.14925129,17 9.33333333,17 L10.6666667,17 C10.8507487,17 11,16.8507487 11,16.6666667 L11,15.3333333 C11,15.1492513 10.8507487,15 10.6666667,15 Z M10.3333333,16.3333333 L9.66666667,16.3333333 L9.66666667,15.6666667 L10.3333333,15.6666667 L10.3333333,16.3333333 Z" id="Shape"></path>
                        <path d="M3.66666667,15 L2.33333333,15 C2.14925129,15 2,15.1492513 2,15.3333333 L2,16.6666667 C2,16.8507487 2.14925129,17 2.33333333,17 L3.66666667,17 C3.85074871,17 4,16.8507487 4,16.6666667 L4,15.3333333 C4,15.1492513 3.85074871,15 3.66666667,15 Z M3.33333333,16.3333333 L2.66666667,16.3333333 L2.66666667,15.6666667 L3.33333333,15.6666667 L3.33333333,16.3333333 Z" id="Shape"></path>
                        <path d="M7.66666667,9 L6.33333333,9 C6.14925129,9 6,9.14925129 6,9.33333333 L6,10.6666667 C6,10.8507487 6.14925129,11 6.33333333,11 L7.66666667,11 C7.85074871,11 8,10.8507487 8,10.6666667 L8,9.33333333 C8,9.14925129 7.85074871,9 7.66666667,9 Z M7.33333333,10.3333333 L6.66666667,10.3333333 L6.66666667,9.66666667 L7.33333333,9.66666667 L7.33333333,10.3333333 Z" id="Shape"></path>
                        <path d="M10.6666667,9 L9.33333333,9 C9.14925129,9 9,9.14925129 9,9.33333333 L9,10.6666667 C9,10.8507487 9.14925129,11 9.33333333,11 L10.6666667,11 C10.8507487,11 11,10.8507487 11,10.6666667 L11,9.33333333 C11,9.14925129 10.8507487,9 10.6666667,9 Z M10.3333333,10.3333333 L9.66666667,10.3333333 L9.66666667,9.66666667 L10.3333333,9.66666667 L10.3333333,10.3333333 Z" id="Shape"></path>
                        <path d="M13.6666667,12 L12.3333333,12 C12.1492513,12 12,12.1492513 12,12.3333333 L12,13.6666667 C12,13.8507487 12.1492513,14 12.3333333,14 L13.6666667,14 C13.8507487,14 14,13.8507487 14,13.6666667 L14,12.3333333 C14,12.1492513 13.8507487,12 13.6666667,12 Z M13.3333333,13.3333333 L12.6666667,13.3333333 L12.6666667,12.6666667 L13.3333333,12.6666667 L13.3333333,13.3333333 Z" id="Shape"></path>
                        <path d="M13.6666667,15 L12.3333333,15 C12.1492513,15 12,15.1492513 12,15.3333333 L12,16.6666667 C12,16.8507487 12.1492513,17 12.3333333,17 L13.6666667,17 C13.8507487,17 14,16.8507487 14,16.6666667 L14,15.3333333 C14,15.1492513 13.8507487,15 13.6666667,15 Z M13.3333333,16.3333333 L12.6666667,16.3333333 L12.6666667,15.6666667 L13.3333333,15.6666667 L13.3333333,16.3333333 Z" id="Shape"></path>
                        <path d="M13.6666667,9 L12.3333333,9 C12.1492513,9 12,9.14925129 12,9.33333333 L12,10.6666667 C12,10.8507487 12.1492513,11 12.3333333,11 L13.6666667,11 C13.8507487,11 14,10.8507487 14,10.6666667 L14,9.33333333 C14,9.14925129 13.8507487,9 13.6666667,9 Z M13.3333333,10.3333333 L12.6666667,10.3333333 L12.6666667,9.66666667 L13.3333333,9.66666667 L13.3333333,10.3333333 Z" id="Shape"></path>
                        <path d="M3.66666667,9 L2.33333333,9 C2.14925129,9 2,9.14925129 2,9.33333333 L2,10.6666667 C2,10.8507487 2.14925129,11 2.33333333,11 L3.66666667,11 C3.85074871,11 4,10.8507487 4,10.6666667 L4,9.33333333 C4,9.14925129 3.85074871,9 3.66666667,9 Z M3.33333333,10.3333333 L2.66666667,10.3333333 L2.66666667,9.66666667 L3.33333333,9.66666667 L3.33333333,10.3333333 Z" id="Shape"></path>
                    </g>
                </g>
            </g>
        </g>
    </g>
</svg>