<?xml version="1.0" encoding="UTF-8"?>
<svg width="44px" height="36px" viewBox="0 0 44 36" version="1.1" xmlns="http://www.w3.org/2000/svg" xmlns:xlink="http://www.w3.org/1999/xlink">
    <!-- Generator: Sketch 52.2 (67145) - http://www.bohemiancoding.com/sketch -->
    <title>hand-bag-outline</title>
    <desc>Created with Sketch.</desc>
    <g id="Work-Home-page" stroke="none" stroke-width="1" fill="none" fill-rule="evenodd">
        <g id="Coleccion_one-Copy" transform="translate(-1379.000000, -58.000000)" fill="#51381F">
            <g id="Header">
                <g id="Bag" transform="translate(1311.000000, 55.000000)">
                    <g id="hand-bag-outline" transform="translate(68.000000, 3.000000)">
                        <path d="M43.5199223,7.32181113 L29.821238,7.32181113 L29.8227959,5.99653745 C29.8258006,2.69442989 27.0080984,0.00551181566 23.5413899,0.00243791847 L20.4611696,0 C16.997577,0 14.177204,2.68393624 14.1740881,5.98286391 L14.172864,7.32181113 L0.480188979,7.32181113 C0.215333876,7.32181113 0,7.52702026 0,7.77918583 L0,35.5425193 C0,35.7948969 0.21544516,36 0.480188979,36 L43.5199223,36 C43.7846661,36 44,35.7947909 44,35.5425193 L44,7.77929183 C44.0001112,7.52702026 43.7846661,7.32181113 43.5199223,7.32181113 Z M33.6708735,13.4493602 C32.4015721,13.4493602 31.3686372,14.4329013 31.3686372,15.6420029 L31.3686372,18.0043459 L12.6312515,18.0043459 L12.6312515,15.6420029 C12.6312515,14.4330073 11.5985391,13.4493602 10.3291265,13.4493602 C9.05971379,13.4493602 8.02711274,14.4329013 8.02711274,15.6420029 L8.02711274,18.0043459 L0.960266675,18.0043459 L0.960266675,8.23687852 L27.0104353,8.23709052 C27.0277956,8.23931644 27.0450446,8.24122438 27.0626274,8.24122438 L29.3404926,8.24334431 C29.3663104,8.24334431 29.3915718,8.24080039 29.4166106,8.23687852 L43.0395107,8.23687852 L43.0395107,18.0043459 L35.9727759,18.0043459 L35.9727759,15.6420029 C35.9728872,14.4329013 34.9402862,13.4493602 33.6708735,13.4493602 Z M31.6082309,24.9453117 L31.6082309,22.6790015 L35.7335161,22.6790015 L35.7335161,24.9453117 L31.6082309,24.9453117 Z M8.19069971,24.9453117 L8.19069971,22.6790015 L12.3159849,22.6790015 L12.3159849,24.9453117 L8.19069971,24.9453117 Z M8.98771326,15.6418969 C8.98771326,14.9373384 9.589424,14.3641096 10.3292377,14.3641096 C11.0690515,14.3641096 11.6708735,14.9372324 11.6708735,15.6418969 L11.6708735,21.7641461 L8.98782455,21.7641461 L8.98771326,15.6418969 Z M33.6708735,26.7889081 C33.0656017,26.7889081 32.5430136,26.4053069 32.381541,25.8600611 L34.9602059,25.8600611 C34.7985108,26.4053069 34.276034,26.7889081 33.6708735,26.7889081 Z M10.3292377,26.7889081 C9.72407722,26.7889081 9.20148917,26.4053069 9.0399053,25.8600611 L11.6186815,25.8600611 C11.4569863,26.4053069 10.9343983,26.7889081 10.3292377,26.7889081 Z M38.2574294,31.0186966 L5.74257055,31.0186966 L5.74257055,18.9192013 L8.02722402,18.9192013 L8.02722402,21.7643581 L7.71039945,21.7643581 C7.44554435,21.7643581 7.23021047,21.9695672 7.23021047,22.2216268 L7.23021047,25.4027924 C7.23021047,25.65517 7.44565563,25.8601671 7.71039945,25.8601671 L8.05760446,25.8601671 C8.23554703,26.9177997 9.195146,27.7038695 10.3291265,27.7038695 C11.4632182,27.7038695 12.4227059,26.9177997 12.6006485,25.8601671 L12.7961739,25.8601671 C13.061029,25.8601671 13.2763628,25.654852 13.2763628,25.4027924 L13.2763628,22.2216268 C13.2763628,21.9694612 13.0609177,21.7643581 12.7961739,21.7643581 L12.6312515,21.7643581 L12.6312515,18.9192013 L31.3687485,18.9192013 L31.3687485,21.7643581 L31.1279306,21.7643581 C30.8629643,21.7643581 30.647853,21.9695672 30.647853,22.2216268 L30.647853,25.4027924 C30.647853,25.65517 30.8632981,25.8601671 31.1279306,25.8601671 L31.3992402,25.8601671 C31.5770715,26.9177997 32.5366705,27.7038695 33.6707622,27.7038695 C34.8046314,27.7038695 35.7642304,26.9177997 35.9422842,25.8601671 L36.2137051,25.8601671 C36.4784489,25.8601671 36.6937827,25.654852 36.6937827,25.4027924 L36.6937827,22.2216268 C36.6937827,21.9694612 36.478115,21.7643581 36.2137051,21.7643581 L35.9726647,21.7643581 L35.9726647,18.9192013 L38.2574294,18.9192013 L38.2574294,31.0186966 Z M35.012398,21.7642521 L32.3292377,21.7642521 L32.3292377,15.6420029 C32.3292377,14.9374444 32.9310597,14.3642156 33.6709848,14.3642156 C34.410576,14.3642156 35.0125093,14.9373384 35.0125093,15.6420029 L35.0125093,21.7642521 L35.012398,21.7642521 Z M5.26227028,31.933552 L38.7376184,31.933552 C39.0025848,31.933552 39.2176961,31.7281309 39.2176961,31.4760713 L39.2176961,18.9190953 L43.039622,18.9190953 L43.039622,35.0854626 L0.960377959,35.0854626 L0.960377959,18.9190953 L4.7820813,18.9190953 L4.7820813,31.4759653 C4.7820813,31.7283429 4.99752646,31.933552 5.26227028,31.933552 Z M28.8607487,7.32181113 L27.5440405,7.32181113 L27.5453759,5.99452352 C27.5464887,4.97579159 27.1298427,4.01673566 26.3723349,3.29394584 C25.6150496,2.57126201 24.608934,2.17260934 23.5391642,2.17165537 L20.4610583,2.16900546 C18.2519664,2.16900546 16.4532887,3.88084821 16.4512856,5.98498384 L16.4499502,7.31693529 L15.1332419,7.31566333 L15.1344661,5.98371188 C15.1371369,3.18869136 17.5290678,0.914855403 20.4660661,0.914855403 L23.5402771,0.917293322 C26.4776092,0.919943233 28.8649775,3.19823104 28.8623067,5.99568948 L28.8607487,7.32181113 Z M17.4116635,5.98583181 C17.4131102,4.38560333 18.7823443,3.08386086 20.4638404,3.08386086 L23.538274,3.08651077 C24.3514236,3.08725275 25.1164988,3.39029661 25.6923917,3.94010023 C26.2686185,4.48990384 26.5854431,5.21915945 26.5848866,5.99367554 L26.5835512,7.32181113 L17.4103281,7.32181113 L17.4116635,5.98583181 Z" id="Shape" fill-rule="nonzero"></path>
                        <path d="M10.5,16 C10.2242401,16 10,16.224269 10,16.4999356 C10,16.775731 10.2242401,17 10.5,17 C10.7757599,17 11,16.775731 11,16.4999356 C11,16.224269 10.7756311,16 10.5,16 Z" id="Path"></path>
                        <path d="M10.5,17 C10.2242401,17 10,17.2243111 10,17.5 C10,17.7756889 10.2242401,18 10.5,18 C10.7757599,18 11,17.7756889 11,17.5 C11,17.2243111 10.7756311,17 10.5,17 Z" id="Path"></path>
                        <path d="M10.5,18 C10.2242401,18 10,18.2242401 10,18.5001288 C10,18.7758887 10.2242401,19 10.5,19 C10.7757599,19 11,18.7758887 11,18.5001288 C11,18.2243689 10.7756311,18 10.5,18 Z" id="Path"></path>
                        <path d="M10.5,20 C10.2242401,20 10,20.2239825 10,20.4998712 C10,20.7756311 10.2242401,21 10.5,21 C10.7757599,21 11,20.7756311 11,20.4998712 C11,20.2241113 10.7756311,20 10.5,20 Z" id="Path"></path>
                        <path d="M33.5,16 C33.224169,16 33,16.224269 33,16.4999356 C33,16.775731 33.224169,17 33.5,17 C33.775831,17 34,16.775731 34,16.4999356 C34,16.224269 33.775831,16 33.5,16 Z" id="Path"></path>
                        <path d="M33.5,17 C33.224169,17 33,17.2243111 33,17.5 C33,17.7756889 33.224169,18 33.5,18 C33.775831,18 34,17.7756889 34,17.5 C34,17.2243111 33.775831,17 33.5,17 Z" id="Path"></path>
                        <path d="M33.5,18 C33.224169,18 33,18.2242401 33,18.5001288 C33,18.7758887 33.224169,19 33.5,19 C33.775831,19 34,18.7758887 34,18.5001288 C34,18.2243689 33.775831,18 33.5,18 Z" id="Path"></path>
                        <path d="M33.5,20 C33.224169,20 33,20.2239825 33,20.4998712 C33,20.7756311 33.224169,21 33.5,21 C33.775831,21 34,20.7756311 34,20.4998712 C34,20.2241113 33.775831,20 33.5,20 Z" id="Path"></path>
                    </g>
                </g>
            </g>
        </g>
    </g>
</svg>