<?xml version="1.0" encoding="UTF-8"?>
<svg width="49px" height="34px" viewBox="0 0 49 34" version="1.1" xmlns="http://www.w3.org/2000/svg" xmlns:xlink="http://www.w3.org/1999/xlink">
    <!-- Generator: Sketch 52.2 (67145) - http://www.bohemiancoding.com/sketch -->
    <title>Group</title>
    <desc>Created with Sketch.</desc>
    <g id="Desktop" stroke="none" stroke-width="1" fill="none" fill-rule="evenodd">
        <g id="Orders-history-one" transform="translate(-634.000000, -478.000000)" fill="#000000" fill-rule="nonzero">
            <g id="noun_Box_249035" transform="translate(634.000000, 478.000000)">
                <g id="Group">
                    <path d="M36.6297791,18.4502759 C36.9169419,18.4373793 37.1898605,18.3084138 37.323186,18.1290345 C37.4582209,17.9484828 37.426314,17.7421379 37.2445581,17.5697931 C36.1910581,16.5656207 35.7563256,15.8815172 34.8760349,14.3069655 C34.7523953,14.0847931 34.5552558,13.9335517 34.341593,13.906 C34.1279302,13.8790345 33.9222442,13.9786897 33.7872093,14.1662759 C32.83,15.4975517 32.3559535,16.0356897 31.2950465,17.4490345 C31.1121512,17.6923103 31.0813837,18.0305517 31.2147093,18.3054828 C31.3474651,18.5804138 31.6158256,18.7381034 31.9001395,18.7222759 C32.2277558,18.7035172 32.3867209,18.6941379 32.697814,18.6753793 C32.6835698,20.3132414 32.6790116,21.1151724 32.6721744,22.9353448 C32.6704651,23.1663103 32.8294302,23.3281034 33.0220116,23.2941034 C34.0077093,23.1211724 34.4737791,23.0496552 35.4902442,22.8503448 C35.6896628,22.811069 35.853186,22.5707241 35.8497674,22.3297931 C35.8292558,20.4287241 35.819,19.8167241 35.8224186,18.4895517 C36.1386395,18.4731379 36.2987442,18.4655172 36.6297791,18.4502759 Z" id="Shape"></path>
                    <polygon id="Shape" points="24.4259302 0.585034483 24.6105349 0.650689655 25.1455465 1.65368966 25.0105116 1.972 25.323314 1.98782759 29.8307442 10.4344828 48.6296512 12.3021379 42.9416628 4.67968966 33.3365233 2.39055172 33.3439302 2.39055172 24.598 0.261448276 24.598 0.165310345 24.402 0.21337931 24.206 0.165310345 24.206 0.261448276 23.7997558 0.359344828 23.9541628 0.415034483 6.06004651 4.67968966 0.370348837 12.3021379 19.1703953 10.4344828"></polygon>
                    <polygon id="Shape" points="40.9879302 27.8911379 25.962593 31.5496552 25.962593 6.58544828 24.4179535 3.36541379 20.6267209 12.3021379 6.06004651 13.6638966 6.06004651 29.3208966 24.206 33.7391379 24.206 33.8346897 24.402 33.7866207 24.598 33.8346897 24.598 33.7391379 42.7445233 29.3208966 42.7445233 13.8655517 40.9879302 13.6697586"></polygon>
                </g>
            </g>
        </g>
    </g>
</svg>