<?xml version="1.0" encoding="UTF-8"?>
<svg width="40px" height="34px" viewBox="0 0 40 34" version="1.1" xmlns="http://www.w3.org/2000/svg" xmlns:xlink="http://www.w3.org/1999/xlink">
    <!-- Generator: Sketch 52.2 (67145) - http://www.bohemiancoding.com/sketch -->
    <title>Shape</title>
    <desc>Created with Sketch.</desc>
    <g id="Desktop" stroke="none" stroke-width="1" fill="none" fill-rule="evenodd">
        <g id="Orders-history-one" transform="translate(-901.000000, -478.000000)" fill="#000000" fill-rule="nonzero">
            <g id="noun_delivery_1534204" transform="translate(901.000000, 478.000000)">
                <g id="Group">
                    <path d="M22.4175824,7.47105263 L18.0659341,7.47105263 C17.059655,2.919385 12.8283979,-0.115790403 8.27820407,0.450094793 C3.72801022,1.01597999 0.339347459,4.99880728 0.43956044,9.66315789 C0.442724903,11.5848489 1.05983802,13.453372 2.1978022,14.9868421 L2.1978022,27.0210526 C2.1978022,28.2564264 3.18179176,29.2578947 4.3956044,29.2578947 L5.36263736,29.2578947 C5.59764482,31.7349072 7.64281137,33.6250932 10.0879121,33.6250932 C12.5330128,33.6250932 14.5781794,31.7349072 14.8131868,29.2578947 L27.3406593,29.2578947 C27.5756668,31.7349072 29.6208333,33.6250932 32.0659341,33.6250932 C34.5110348,33.6250932 36.5562013,31.7349072 36.7912088,29.2578947 L37.8021978,29.2578947 C39.0160104,29.2578947 40,28.2564264 40,27.0210526 L40,21.7421053 C40,19.7655072 38.4256167,18.1631579 36.4835165,18.1631579 L34.8571429,18.1631579 L32.8791209,13.4210526 C32.765698,13.0742045 32.4470852,12.8400078 32.0879121,12.8394737 L25.9340659,12.8394737 L25.9340659,11.05 C25.9340659,9.07340195 24.3596826,7.47105263 22.4175824,7.47105263 Z M9.40659341,2.32631579 C13.3878989,2.32631579 16.6153846,5.61113189 16.6153846,9.66315789 C16.6153846,13.7151839 13.3878989,17 9.40659341,17 C5.42528796,17 2.1978022,13.7151839 2.1978022,9.66315789 C2.1978022,5.61113189 5.42528796,2.32631579 9.40659341,2.32631579 Z M10.1098901,31.6736842 C8.8793264,31.6918372 7.75997757,30.9513709 7.27665086,29.7994534 C6.79332415,28.647536 7.04184956,27.3125599 7.90570583,26.4204294 C8.7695621,25.5282988 10.077471,25.2558981 11.2162188,25.7309424 C12.3549666,26.2059867 13.0987718,27.3342882 13.0989011,28.5868421 C13.0990752,30.2743388 11.7677606,31.6492277 10.1098901,31.6736842 Z M22.4175824,27.4684211 L14.7252747,27.4684211 C14.2481289,25.2508304 12.3184312,23.6703987 10.0879121,23.6703987 C7.85739293,23.6703987 5.92769529,25.2508304 5.45054945,27.4684211 L4.3956044,27.4684211 C4.27520222,27.4829965 4.15488206,27.4405715 4.06914474,27.3533112 C3.98340743,27.266051 3.94172293,27.1435935 3.95604396,27.0210526 L3.95604396,16.8210526 C5.50517628,18.0742996 7.42769737,18.7528227 9.40659341,18.7447368 C11.7731405,18.7447368 14.0427601,17.7879304 15.7161616,16.084804 C17.3895631,14.3816775 18.3296703,12.0717424 18.3296703,9.66315789 L18.3296703,9.26052632 L22.4175824,9.26052632 C23.3886325,9.26052632 24.1758242,10.061701 24.1758242,11.05 L24.1758242,27.4684211 L22.4175824,27.4684211 Z M32.0879121,31.6736842 C30.8573484,31.6918372 29.7379995,30.9513709 29.2546728,29.7994534 C28.7713461,28.647536 29.0198715,27.3125599 29.8837278,26.4204294 C30.7475841,25.5282988 32.055493,25.2558981 33.1942408,25.7309424 C34.3329886,26.2059867 35.0767938,27.3342882 35.0769231,28.5868421 C35.0770972,30.2743388 33.7457826,31.6492277 32.0879121,31.6736842 Z M31.4725275,14.6289474 L33.4505495,19.3710526 C33.5804125,19.7248963 33.9146167,19.9576242 34.2857143,19.9526316 L36.4835165,19.9526316 C37.4545666,19.9526316 38.2417582,20.7538062 38.2417582,21.7421053 L38.2417582,27.0210526 C38.2417582,27.2681274 38.0449603,27.4684211 37.8021978,27.4684211 L36.7032967,27.4684211 C36.2261509,25.2508304 34.2964532,23.6703987 32.0659341,23.6703987 C29.8354149,23.6703987 27.9057173,25.2508304 27.4285714,27.4684211 L25.9340659,27.4684211 L25.9340659,14.6289474 L31.4725275,14.6289474 Z" id="Shape"></path>
                </g>
            </g>
        </g>
    </g>
</svg>