<?xml version="1.0" encoding="UTF-8"?>
<svg width="25px" height="40px" viewBox="0 0 25 40" version="1.1" xmlns="http://www.w3.org/2000/svg" xmlns:xlink="http://www.w3.org/1999/xlink">
    <!-- Generator: Sketch 52.2 (67145) - http://www.bohemiancoding.com/sketch -->
    <title>Shape</title>
    <desc>Created with Sketch.</desc>
    <g id="Desktop" stroke="none" stroke-width="1" fill="none" fill-rule="evenodd">
        <g id="Retur-one" transform="translate(-389.000000, -448.000000)" fill="#A5CBA6" fill-rule="nonzero">
            <g id="noun_Flag_1084379" transform="translate(389.000000, 448.000000)">
                <g id="Group">
                    <path d="M11.4819911,0.162764045 C9.92377232,0.162764045 8.51338839,1.13530337 7.14681696,2.03737079 C5.95106696,2.82667416 4.78473214,3.5572809 3.72576786,3.72878652 L3.72576786,1.51588764 C3.73576786,1.25507865 3.48159375,1.018 3.22715179,1.05076404 C3.00944196,1.07862921 2.8308125,1.29274157 2.83933929,1.51588764 C2.92840625,13.1345843 2.83933929,30.6925393 2.85317857,36.3869213 C1.24680804,36.4953258 -4.46428572e-06,37.2046742 -4.46428572e-06,38.0501573 C-4.46428572e-06,38.9697978 1.47511607,39.7133483 3.28254018,39.7133483 C5.08996429,39.7133483 6.5789375,38.9697978 6.5789375,38.0501573 C6.5789375,37.2046742 5.31827232,36.4953258 3.71190179,36.3869213 C3.72578571,30.6925393 3.72578571,24.8440449 3.72578571,19.0782921 C5.09025,18.9138427 6.34983036,18.0318427 7.56234821,17.2177303 C8.90583036,16.315618 10.1949955,15.4981348 11.3435089,15.4981348 C12.9908527,15.4981348 15.4070134,16.1557528 17.8531964,16.6116629 C20.567875,17.1613258 22.9072589,17.2294607 25.0000045,16.2169663 C25.0000045,10.4798876 25.0000045,5.20869663 25.0000045,0.162764045 C22.9780848,1.83530337 20.0937723,1.77166292 18.0748036,1.4031236 C15.7225357,0.959483146 13.3499643,0.162764045 11.4820089,0.162764045 L11.4819911,0.162764045 Z M9.93075,1.44541573 L9.93075,4.10937079 C9.03931696,4.44051685 8.1446875,4.9725618 7.27146875,5.50478652 L7.27146875,3.00995506 C8.14330804,2.46375281 9.07543304,1.8234382 9.93075,1.44541573 Z M14.362875,1.50182022 C15.2017813,1.69107865 16.1037411,1.91035955 17.0221563,2.10788764 L17.0221563,4.68721348 C16.1524866,4.4678427 15.2792366,4.23251685 14.362875,4.05296629 L14.362875,1.50182022 Z M24.1135625,1.79777528 L24.1135625,4.7718427 C23.1555446,5.07 22.2816741,5.2234382 21.4542813,5.26514607 L21.4542813,2.54478652 C22.391433,2.4671236 23.2924866,2.24478652 24.1135625,1.79777528 Z M13.4764286,4.81413483 L13.4764286,7.50622472 C12.5149821,7.37332584 11.7203795,7.33292135 10.8171741,7.46397753 L10.8171741,4.78591011 C11.6789241,4.582 12.6721607,4.6932809 13.4764286,4.81377528 L13.4764286,4.81413483 Z M17.9085804,5.82896629 C18.7521652,6.01179775 19.6315,6.13835955 20.5678571,6.16721348 L20.5678571,8.88757303 C19.6441563,8.85521348 18.7727679,8.702 17.9085804,8.50698876 L17.9085804,5.82896629 Z M6.38504464,7.09750562 L6.38504464,9.63458427 C5.38120536,10.2328764 4.43059375,10.7469888 3.72576786,10.9172809 L3.72576786,8.23916854 C4.58082143,8.11166292 5.47112054,7.64788764 6.38504464,7.09750562 Z M14.362875,8.57746067 C15.2490893,8.76177528 16.1250804,9.0041573 17.0221563,9.22586517 L17.0221563,11.9038876 C16.1524866,11.6844719 15.2792366,11.4491461 14.362875,11.2696404 L14.362875,8.57746067 Z M9.93075,8.70433708 L9.93075,11.326 C9.03931696,11.6571461 8.1446875,12.189191 7.27146875,12.7214157 L7.27146875,10.1561124 C8.14372768,9.64644944 9.085875,9.06865169 9.93075,8.70433708 Z M24.1135625,9.32451685 L24.1135625,11.9884719 C23.1555446,12.2866292 22.2816741,12.4400674 21.4542813,12.4817753 L21.4542813,9.77557303 C22.2890134,9.73692135 23.1676384,9.59669663 24.1135625,9.32451685 Z M13.4764286,12.030764 L13.4764286,14.8074831 C12.5363482,14.6659551 11.6779732,14.5522472 10.8171518,14.6384494 L10.8171518,12.0026742 C11.6757054,11.8002022 12.6688348,11.9094157 13.4764286,12.0305393 L13.4764286,12.030764 Z M17.9085804,13.0455955 C18.7521652,13.228427 19.6315,13.3549888 20.5678571,13.3838876 L20.5678571,16.0619101 C19.6167366,15.9856404 18.7118259,15.851618 17.9085804,15.6956629 L17.9085804,13.0458202 L17.9085804,13.0455955 Z M6.38504464,14.3141348 L6.38504464,16.907618 C5.4521875,17.511573 4.55972321,18.0237978 3.72576786,18.1620449 L3.72576786,15.4557978 C4.58082143,15.3282921 5.47112054,14.8645618 6.38504464,14.3141348 Z" id="Shape"></path>
                </g>
            </g>
        </g>
    </g>
</svg>