<?xml version="1.0" encoding="UTF-8"?>
<svg width="11px" height="22px" viewBox="0 0 11 22" version="1.1" xmlns="http://www.w3.org/2000/svg" xmlns:xlink="http://www.w3.org/1999/xlink">
    <!-- Generator: Sketch 53 (72520) - https://sketchapp.com -->
    <title>Shape</title>
    <desc>Created with Sketch.</desc>
    <g id="Julia-Allert-Site" stroke="none" stroke-width="1" fill="none" fill-rule="evenodd">
        <g id="Contact_1440" transform="translate(-286.000000, -901.000000)" fill="#000000" fill-rule="nonzero">
            <g id="Social-" transform="translate(282.000000, 841.000000)">
                <g id="Group-9" transform="translate(4.000000, 57.000000)">
                    <g id="facebook-2" transform="translate(0.000000, 3.000000)">
                        <g id="facebook">
                            <path d="M7.19806275,22 L2.55680075,22 L2.55680075,12.1360585 L0,12.1360585 L0,7.60599042 L2.55672608,7.60599042 L2.55672608,5.06220639 C2.55672608,2.72687556 3.98912586,0 8.02775553,0 C9.45149401,0 10.496674,0.136100062 10.5403538,0.141964474 L10.9688641,0.198780728 L10.8656752,4.43814153 L10.393485,4.43372418 C10.3925144,4.43372418 9.33150514,4.42344242 8.17410163,4.42344242 C7.3127503,4.42344242 7.19851075,4.64027335 7.19851075,5.50272276 L7.19851075,7.60698052 L11,7.60698052 L10.7893662,12.1370486 L7.19895874,12.1370486 L7.19895874,22 L7.19806275,22 Z M3.51596503,21.021024 L6.23777847,21.021024 L6.23777847,11.1576156 L9.87231371,11.1576156 L9.99230258,8.58496647 L6.23777847,8.58496647 L6.23777847,5.50173267 C6.23777847,4.48360976 6.46760158,3.44347627 8.1730563,3.44347627 C8.85834431,3.44347627 9.50950978,3.44690353 9.92838816,3.45033078 L9.9864786,1.06709455 C9.56274691,1.02840467 8.85782164,0.978976047 8.0267102,0.978976047 C4.7007711,0.978976047 3.51544236,3.08810812 3.51544236,5.06220639 L3.51544236,8.58496647 L0.958790948,8.58496647 L0.958790948,11.1576156 L3.51551703,11.1576156 L3.51551703,21.021024 L3.51596503,21.021024 Z" id="Shape"></path>
                        </g>
                    </g>
                </g>
            </g>
        </g>
    </g>
</svg>