<?xml version="1.0" encoding="UTF-8"?>
<svg width="61px" height="44px" viewBox="0 0 61 44" version="1.1" xmlns="http://www.w3.org/2000/svg" xmlns:xlink="http://www.w3.org/1999/xlink">
    <!-- Generator: Sketch 52.2 (67145) - http://www.bohemiancoding.com/sketch -->
    <title>Group 5</title>
    <desc>Created with Sketch.</desc>
    <defs>
        <path d="M7.79964558,7.90357242 C26.5975932,26.6956805 41.8625839,41.6933985 42.0274395,41.5285428 C42.191846,41.3641364 27.1941299,26.0986985 8.40246911,7.30074889 C8.31700365,7.41293049 8.22618318,7.52245227 8.1237641,7.62531661 C8.02134699,7.72773372 7.91182522,7.8185542 7.79964558,7.90357242" id="path-1"></path>
        <filter x="-10.2%" y="-5.5%" width="119.7%" height="117.7%" filterUnits="objectBoundingBox" id="filter-2">
            <feOffset dx="0" dy="1" in="SourceAlpha" result="shadowOffsetOuter1"></feOffset>
            <feGaussianBlur stdDeviation="1" in="shadowOffsetOuter1" result="shadowBlurOuter1"></feGaussianBlur>
            <feColorMatrix values="0 0 0 0 0   0 0 0 0 0   0 0 0 0 0  0 0 0 0.5 0" type="matrix" in="shadowBlurOuter1"></feColorMatrix>
        </filter>
        <path d="M1.39653061,0.757492647 C1.2694898,0.854257353 1.14602041,0.957713235 1.03020408,1.07455147 C0.914387755,1.19138971 0.811836735,1.31646324 0.715408163,1.44411029 C-0.33255102,2.83741912 -0.23,4.83036029 1.03020408,6.10219853 C2.28938776,7.37300735 4.26387755,7.47697794 5.645,6.42080147 C5.77255102,6.32300735 5.89704082,6.21955147 6.01336735,6.10219853 C6.12969388,5.98433088 6.2327551,5.85874265 6.32969388,5.73006618 C7.37612245,4.33727206 7.27357143,2.34536029 6.01336735,1.07455147 C4.75316327,-0.196772059 2.77765306,-0.300227941 1.39653061,0.757492647" id="path-3"></path>
        <filter x="-46.1%" y="-38.0%" width="192.3%" height="190.8%" filterUnits="objectBoundingBox" id="filter-4">
            <feOffset dx="0" dy="0.5" in="SourceAlpha" result="shadowOffsetOuter1"></feOffset>
            <feGaussianBlur stdDeviation="1" in="shadowOffsetOuter1" result="shadowBlurOuter1"></feGaussianBlur>
            <feColorMatrix values="0 0 0 0 0   0 0 0 0 0   0 0 0 0 0  0 0 0 0.5 0" type="matrix" in="shadowBlurOuter1"></feColorMatrix>
        </filter>
        <path d="M7.79964558,7.90357242 C26.5975932,26.6956805 41.8625839,41.6933985 42.0274395,41.5285428 C42.191846,41.3641364 27.1941299,26.0986985 8.40246911,7.30074889 C8.31700365,7.41293049 8.22618318,7.52245227 8.1237641,7.62531661 C8.02134699,7.72773372 7.91182522,7.8185542 7.79964558,7.90357242" id="path-5"></path>
        <filter x="-10.2%" y="-5.5%" width="119.7%" height="117.7%" filterUnits="objectBoundingBox" id="filter-6">
            <feOffset dx="0" dy="1" in="SourceAlpha" result="shadowOffsetOuter1"></feOffset>
            <feGaussianBlur stdDeviation="1" in="shadowOffsetOuter1" result="shadowBlurOuter1"></feGaussianBlur>
            <feColorMatrix values="0 0 0 0 0   0 0 0 0 0   0 0 0 0 0  0 0 0 0.5 0" type="matrix" in="shadowBlurOuter1"></feColorMatrix>
        </filter>
        <path d="M1.39653061,0.757492647 C1.2694898,0.854257353 1.14602041,0.957713235 1.03020408,1.07455147 C0.914387755,1.19138971 0.811836735,1.31646324 0.715408163,1.44411029 C-0.33255102,2.83741912 -0.23,4.83036029 1.03020408,6.10219853 C2.28938776,7.37300735 4.26387755,7.47697794 5.645,6.42080147 C5.77255102,6.32300735 5.89704082,6.21955147 6.01336735,6.10219853 C6.12969388,5.98433088 6.2327551,5.85874265 6.32969388,5.73006618 C7.37612245,4.33727206 7.27357143,2.34536029 6.01336735,1.07455147 C4.75316327,-0.196772059 2.77765306,-0.300227941 1.39653061,0.757492647" id="path-7"></path>
        <filter x="-46.1%" y="-38.0%" width="192.3%" height="190.8%" filterUnits="objectBoundingBox" id="filter-8">
            <feOffset dx="0" dy="0.5" in="SourceAlpha" result="shadowOffsetOuter1"></feOffset>
            <feGaussianBlur stdDeviation="1" in="shadowOffsetOuter1" result="shadowBlurOuter1"></feGaussianBlur>
            <feColorMatrix values="0 0 0 0 0   0 0 0 0 0   0 0 0 0 0  0 0 0 0.5 0" type="matrix" in="shadowBlurOuter1"></feColorMatrix>
        </filter>
        <path d="M7.79964558,7.90357242 C26.5975932,26.6956805 41.8625839,41.6933985 42.0274395,41.5285428 C42.191846,41.3641364 27.1941299,26.0986985 8.40246911,7.30074889 C8.31700365,7.41293049 8.22618318,7.52245227 8.1237641,7.62531661 C8.02134699,7.72773372 7.91182522,7.8185542 7.79964558,7.90357242" id="path-9"></path>
        <filter x="-10.2%" y="-5.5%" width="119.7%" height="117.7%" filterUnits="objectBoundingBox" id="filter-10">
            <feOffset dx="0" dy="1" in="SourceAlpha" result="shadowOffsetOuter1"></feOffset>
            <feGaussianBlur stdDeviation="1" in="shadowOffsetOuter1" result="shadowBlurOuter1"></feGaussianBlur>
            <feColorMatrix values="0 0 0 0 0   0 0 0 0 0   0 0 0 0 0  0 0 0 0.5 0" type="matrix" in="shadowBlurOuter1"></feColorMatrix>
        </filter>
        <path d="M1.39653061,0.757492647 C1.2694898,0.854257353 1.14602041,0.957713235 1.03020408,1.07455147 C0.914387755,1.19138971 0.811836735,1.31646324 0.715408163,1.44411029 C-0.33255102,2.83741912 -0.23,4.83036029 1.03020408,6.10219853 C2.28938776,7.37300735 4.26387755,7.47697794 5.645,6.42080147 C5.77255102,6.32300735 5.89704082,6.21955147 6.01336735,6.10219853 C6.12969388,5.98433088 6.2327551,5.85874265 6.32969388,5.73006618 C7.37612245,4.33727206 7.27357143,2.34536029 6.01336735,1.07455147 C4.75316327,-0.196772059 2.77765306,-0.300227941 1.39653061,0.757492647" id="path-11"></path>
        <filter x="-46.1%" y="-38.0%" width="192.3%" height="190.8%" filterUnits="objectBoundingBox" id="filter-12">
            <feOffset dx="0" dy="0.5" in="SourceAlpha" result="shadowOffsetOuter1"></feOffset>
            <feGaussianBlur stdDeviation="1" in="shadowOffsetOuter1" result="shadowBlurOuter1"></feGaussianBlur>
            <feColorMatrix values="0 0 0 0 0   0 0 0 0 0   0 0 0 0 0  0 0 0 0.5 0" type="matrix" in="shadowBlurOuter1"></feColorMatrix>
        </filter>
    </defs>
    <g id="Work-Home-page" stroke="none" stroke-width="1" fill="none" fill-rule="evenodd">
        <g id="Products" transform="translate(-1360.000000, -199.000000)">
            <g id="Group-5" transform="translate(1362.000000, 180.000000)">
                <g id="Group-18">
                    <g id="Group-17">
                        <g id="Group-11" transform="translate(5.000000, 0.000000)">
                            <g id="Fill-9" transform="translate(24.914212, 24.415319) rotate(-45.000000) translate(-24.914212, -24.415319) ">
                                <use fill="black" fill-opacity="1" filter="url(#filter-2)" xlink:href="#path-1"></use>
                                <use fill="#51381F" fill-rule="evenodd" xlink:href="#path-1"></use>
                            </g>
                        </g>
                        <g id="Group-14" transform="translate(0.000000, 20.176471)">
                            <g id="Fill-12">
                                <use fill="black" fill-opacity="1" filter="url(#filter-4)" xlink:href="#path-3"></use>
                                <use fill="#51381F" fill-rule="evenodd" xlink:href="#path-3"></use>
                            </g>
                        </g>
                        <path d="M2.85709699,25.8401999 C2.85886964,25.8664755 2.80923544,25.9018117 2.71351236,25.9303524 C2.61829575,25.9489266 2.47496436,25.9525508 2.30453675,25.8664755 C2.13486885,25.7817593 1.9413968,25.5964709 1.77628715,25.290677 C1.6091516,24.9903195 1.48177406,24.5526946 1.44125636,24.0647835 C1.40124512,23.5750603 1.45923609,23.0948507 1.56812743,22.7192906 C1.67879141,22.3414653 1.83706371,22.0723668 1.9839404,21.9011222 C2.13132356,21.7239883 2.27262906,21.6646416 2.36556655,21.6288524 C2.46204934,21.6093722 2.51472236,21.6161677 2.51750795,21.6424433 C2.52611796,21.7085853 2.31846472,21.7778986 2.07738436,22.1308074 C1.96013624,22.3088473 1.83782341,22.5580127 1.75425564,22.8823807 C1.67271376,23.2062956 1.63092987,23.6031481 1.66385051,24.007702 C1.69803732,24.4108968 1.79578629,24.7742252 1.92898826,25.0396996 C2.06016433,25.3092512 2.21514456,25.4913684 2.35720977,25.5978299 C2.64488549,25.809394 2.85481786,25.7736048 2.85709699,25.8401999" id="Fill-15" fill="#FFFFFF"></path>
                    </g>
                </g>
                <g id="Group-18-Copy" transform="translate(0.000000, 33.000000)">
                    <g id="Group-17">
                        <g id="Group-11" transform="translate(5.000000, 0.000000)">
                            <g id="Fill-9" transform="translate(24.914212, 24.415319) rotate(-45.000000) translate(-24.914212, -24.415319) ">
                                <use fill="black" fill-opacity="1" filter="url(#filter-6)" xlink:href="#path-5"></use>
                                <use fill="#51381F" fill-rule="evenodd" xlink:href="#path-5"></use>
                            </g>
                        </g>
                        <g id="Group-14" transform="translate(0.000000, 20.176471)">
                            <g id="Fill-12">
                                <use fill="black" fill-opacity="1" filter="url(#filter-8)" xlink:href="#path-7"></use>
                                <use fill="#51381F" fill-rule="evenodd" xlink:href="#path-7"></use>
                            </g>
                        </g>
                        <path d="M2.85709699,25.8401999 C2.85886964,25.8664755 2.80923544,25.9018117 2.71351236,25.9303524 C2.61829575,25.9489266 2.47496436,25.9525508 2.30453675,25.8664755 C2.13486885,25.7817593 1.9413968,25.5964709 1.77628715,25.290677 C1.6091516,24.9903195 1.48177406,24.5526946 1.44125636,24.0647835 C1.40124512,23.5750603 1.45923609,23.0948507 1.56812743,22.7192906 C1.67879141,22.3414653 1.83706371,22.0723668 1.9839404,21.9011222 C2.13132356,21.7239883 2.27262906,21.6646416 2.36556655,21.6288524 C2.46204934,21.6093722 2.51472236,21.6161677 2.51750795,21.6424433 C2.52611796,21.7085853 2.31846472,21.7778986 2.07738436,22.1308074 C1.96013624,22.3088473 1.83782341,22.5580127 1.75425564,22.8823807 C1.67271376,23.2062956 1.63092987,23.6031481 1.66385051,24.007702 C1.69803732,24.4108968 1.79578629,24.7742252 1.92898826,25.0396996 C2.06016433,25.3092512 2.21514456,25.4913684 2.35720977,25.5978299 C2.64488549,25.809394 2.85481786,25.7736048 2.85709699,25.8401999" id="Fill-15" fill="#FFFFFF"></path>
                    </g>
                </g>
                <g id="Group-18-Copy-2" transform="translate(29.500000, 40.500000) scale(-1, 1) translate(-29.500000, -40.500000) translate(2.000000, 16.000000)">
                    <g id="Group-17">
                        <g id="Group-11" transform="translate(5.000000, 0.000000)">
                            <g id="Fill-9" transform="translate(24.914212, 24.415319) rotate(-45.000000) translate(-24.914212, -24.415319) ">
                                <use fill="black" fill-opacity="1" filter="url(#filter-10)" xlink:href="#path-9"></use>
                                <use fill="#51381F" fill-rule="evenodd" xlink:href="#path-9"></use>
                            </g>
                        </g>
                        <g id="Group-14" transform="translate(0.000000, 20.176471)">
                            <g id="Fill-12">
                                <use fill="black" fill-opacity="1" filter="url(#filter-12)" xlink:href="#path-11"></use>
                                <use fill="#51381F" fill-rule="evenodd" xlink:href="#path-11"></use>
                            </g>
                        </g>
                        <path d="M2.85709699,25.8401999 C2.85886964,25.8664755 2.80923544,25.9018117 2.71351236,25.9303524 C2.61829575,25.9489266 2.47496436,25.9525508 2.30453675,25.8664755 C2.13486885,25.7817593 1.9413968,25.5964709 1.77628715,25.290677 C1.6091516,24.9903195 1.48177406,24.5526946 1.44125636,24.0647835 C1.40124512,23.5750603 1.45923609,23.0948507 1.56812743,22.7192906 C1.67879141,22.3414653 1.83706371,22.0723668 1.9839404,21.9011222 C2.13132356,21.7239883 2.27262906,21.6646416 2.36556655,21.6288524 C2.46204934,21.6093722 2.51472236,21.6161677 2.51750795,21.6424433 C2.52611796,21.7085853 2.31846472,21.7778986 2.07738436,22.1308074 C1.96013624,22.3088473 1.83782341,22.5580127 1.75425564,22.8823807 C1.67271376,23.2062956 1.63092987,23.6031481 1.66385051,24.007702 C1.69803732,24.4108968 1.79578629,24.7742252 1.92898826,25.0396996 C2.06016433,25.3092512 2.21514456,25.4913684 2.35720977,25.5978299 C2.64488549,25.809394 2.85481786,25.7736048 2.85709699,25.8401999" id="Fill-15" fill="#FFFFFF"></path>
                    </g>
                </g>
            </g>
        </g>
    </g>
</svg>