<?xml version="1.0" encoding="UTF-8"?>
<svg width="57px" height="23px" viewBox="0 0 57 23" version="1.1" xmlns="http://www.w3.org/2000/svg" xmlns:xlink="http://www.w3.org/1999/xlink">
    <!-- Generator: Sketch 52.2 (67145) - http://www.bohemiancoding.com/sketch -->
    <title>ICON_HOVER</title>
    <desc>Created with Sketch.</desc>
    <g id="Work-Home-page" stroke="none" stroke-width="1" fill="none" fill-rule="evenodd">
        <g id="Coleccion_one-Copy" transform="translate(-647.000000, -177.000000)">
            <g id="HOVER" transform="translate(610.000000, 142.000000)">
                <g id="ICON_HOVER" transform="translate(37.000000, 35.000000)">
                    <path d="M18.9767,16.979 C18.9767,20.26 15.6127,21.166 12.3137,21.166 C9.0137,21.166 5.6507,20.26 5.6507,16.979 L18.9767,16.979 Z" id="Fill-1" fill="#ECECEA" transform="translate(12.313700, 19.072500) scale(-1, 1) translate(-12.313700, -19.072500) "></path>
                    <path d="M12.3148,21.2349 C11.4278,21.2349 10.6058,21.1699 9.8698,21.0409 C9.0378,20.8949 8.3118,20.6679 7.7138,20.3639 C6.2998,19.6449 5.5838,18.5059 5.5838,16.9789 L5.7188,16.9789 C5.7188,18.4519 6.4118,19.5489 7.7768,20.2429 C8.8778,20.8019 10.4478,21.0989 12.3148,21.0989 C14.1808,21.0989 15.7508,20.8019 16.8528,20.2429 C18.2168,19.5489 18.9098,18.4519 18.9098,16.9789 L19.0448,16.9789 C19.0448,18.5059 18.3288,19.6449 16.9148,20.3639 C16.3168,20.6679 15.5908,20.8949 14.7588,21.0409 C14.0228,21.1699 13.2008,21.2349 12.3148,21.2349" id="Fill-3" fill="#51381F" transform="translate(12.314300, 19.106900) scale(-1, 1) translate(-12.314300, -19.106900) "></path>
                    <path d="M18.9767,17.106 C18.9767,18.777 15.9937,20.131 12.3137,20.131 C8.6327,20.131 5.6507,18.777 5.6507,17.106 C5.6507,15.436 8.6327,14.082 12.3137,14.082 C15.9937,14.082 18.9767,15.436 18.9767,17.106" id="Fill-5" fill="#ECECEA" transform="translate(12.313700, 17.106500) scale(-1, 1) translate(-12.313700, -17.106500) "></path>
                    <path d="M18.4029,18.2369 C18.0739,18.5909 17.5999,18.9109 16.9959,19.1829 C15.7479,19.7509 14.0839,20.0629 12.3119,20.0629 C10.5429,20.0629 8.8799,19.7509 7.6289,19.1829 C7.0239,18.9109 6.5519,18.5909 6.2229,18.2369 C5.9359,17.9319 5.7709,17.6079 5.7269,17.2759 C5.7319,17.3569 5.7389,17.4359 5.7489,17.5119 C5.7589,17.5759 5.7689,17.6369 5.7809,17.7019 C5.8179,17.7849 5.8619,17.8659 5.9139,17.9469 C5.9309,17.9759 5.9509,18.0039 5.9699,18.0329 C5.9949,18.0679 6.0189,18.1039 6.0489,18.1359 C6.1249,18.2319 6.2109,18.3259 6.3089,18.4189 C6.4029,18.5079 6.5059,18.5929 6.6169,18.6769 C6.7099,18.7459 6.8079,18.8119 6.9139,18.8789 C6.9579,18.9059 7.0029,18.9319 7.0469,18.9599 C7.0559,18.9649 7.0659,18.9709 7.0789,18.9769 C7.1499,19.0179 7.2209,19.0579 7.2979,19.0969 C7.3459,19.1249 7.3979,19.1489 7.4499,19.1739 C7.5209,19.2109 7.5939,19.2449 7.6709,19.2759 C7.7289,19.3029 7.7889,19.3279 7.8499,19.3519 C7.9899,19.4089 8.1319,19.4639 8.2829,19.5149 C8.3589,19.5419 8.4349,19.5659 8.5109,19.5909 C8.7609,19.6699 9.0269,19.7439 9.3019,19.8039 C9.3639,19.8199 9.4249,19.8349 9.4889,19.8459 C9.5649,19.8639 9.6409,19.8789 9.7199,19.8929 C9.8159,19.9129 9.9139,19.9299 10.0139,19.9469 C10.1419,19.9669 10.2699,19.9869 10.4029,20.0069 L10.6459,20.0359 C10.7549,20.0489 10.8599,20.0599 10.9699,20.0699 C10.9779,20.0699 10.9879,20.0729 10.9949,20.0729 C11.0739,20.0799 11.1519,20.0879 11.2329,20.0919 C11.2989,20.0969 11.3689,20.1019 11.4369,20.1039 C11.5229,20.1119 11.6089,20.1169 11.6979,20.1189 L11.7079,20.1189 C11.7939,20.1219 11.8819,20.1269 11.9679,20.1269 C12.0839,20.1299 12.1969,20.1319 12.3119,20.1319 C12.4269,20.1319 12.5409,20.1299 12.6559,20.1269 C12.7399,20.1269 12.8259,20.1219 12.9089,20.1189 C13.0069,20.1139 13.1059,20.1089 13.2019,20.1039 C13.2599,20.1019 13.3199,20.0969 13.3789,20.0919 C13.4369,20.0879 13.4969,20.0829 13.5549,20.0779 C13.6149,20.0729 13.6709,20.0679 13.7299,20.0629 C13.7989,20.0549 13.8679,20.0489 13.9359,20.0409 C13.9749,20.0359 14.0169,20.0309 14.0559,20.0259 C14.1059,20.0179 14.1529,20.0129 14.2019,20.0079 C14.2459,20.0019 14.2899,19.9969 14.3349,19.9889 C14.4249,19.9769 14.5159,19.9619 14.6049,19.9469 C14.7819,19.9179 14.9589,19.8849 15.1279,19.8489 C15.1889,19.8369 15.2509,19.8219 15.3099,19.8089 C15.3719,19.7949 15.4299,19.7799 15.4889,19.7649 C15.5579,19.7509 15.6269,19.7309 15.6929,19.7139 C15.7589,19.6969 15.8239,19.6769 15.8839,19.6599 C15.9609,19.6369 16.0369,19.6159 16.1129,19.5909 C16.1869,19.5689 16.2599,19.5449 16.3319,19.5199 C16.4059,19.4949 16.4789,19.4679 16.5499,19.4409 C16.6959,19.3869 16.8339,19.3309 16.9679,19.2709 C17.0349,19.2419 17.0979,19.2109 17.1629,19.1799 C17.2099,19.1589 17.2559,19.1359 17.2999,19.1139 C17.3819,19.0729 17.4579,19.0279 17.5339,18.9869 C17.5389,18.9839 17.5409,18.9819 17.5459,18.9789 C17.6049,18.9449 17.6639,18.9109 17.7169,18.8759 C17.7669,18.8459 17.8139,18.8139 17.8599,18.7829 C17.9639,18.7119 18.0619,18.6399 18.1529,18.5639 C18.1999,18.5269 18.2409,18.4899 18.2829,18.4509 C18.3149,18.4219 18.3469,18.3919 18.3769,18.3599 C18.4329,18.3079 18.4849,18.2519 18.5309,18.1929 C18.5549,18.1659 18.5779,18.1379 18.5999,18.1119 C18.6269,18.0749 18.6539,18.0409 18.6779,18.0039 C18.7009,17.9709 18.7199,17.9399 18.7379,17.9079 C18.7569,17.8759 18.7769,17.8439 18.7919,17.8119 C18.8109,17.7799 18.8259,17.7479 18.8399,17.7159 C18.8399,17.7159 18.8429,17.7139 18.8429,17.7119 L18.8429,17.7089 C18.8709,17.5689 18.8869,17.4259 18.8969,17.2759 C18.8529,17.6079 18.6879,17.9319 18.4029,18.2369 M18.4029,18.2369 C18.0739,18.5909 17.5999,18.9109 16.9959,19.1829 C15.7479,19.7509 14.0839,20.0629 12.3119,20.0629 C10.5429,20.0629 8.8799,19.7509 7.6289,19.1829 C7.0239,18.9109 6.5519,18.5909 6.2229,18.2369 C5.9359,17.9319 5.7709,17.6079 5.7269,17.2759 C5.7319,17.3569 5.7389,17.4359 5.7489,17.5119 C5.7589,17.5759 5.7689,17.6369 5.7809,17.7019 C5.8179,17.7849 5.8619,17.8659 5.9139,17.9469 C5.9309,17.9759 5.9509,18.0039 5.9699,18.0329 C5.9949,18.0679 6.0189,18.1039 6.0489,18.1359 C6.1249,18.2319 6.2109,18.3259 6.3089,18.4189 C6.4029,18.5079 6.5059,18.5929 6.6169,18.6769 C6.7099,18.7459 6.8079,18.8119 6.9139,18.8789 C6.9579,18.9059 7.0029,18.9319 7.0469,18.9599 C7.0559,18.9649 7.0659,18.9709 7.0789,18.9769 C7.1499,19.0179 7.2209,19.0579 7.2979,19.0969 C7.3459,19.1249 7.3979,19.1489 7.4499,19.1739 C7.5209,19.2109 7.5939,19.2449 7.6709,19.2759 C7.7289,19.3029 7.7889,19.3279 7.8499,19.3519 C7.9899,19.4089 8.1319,19.4639 8.2829,19.5149 C8.3589,19.5419 8.4349,19.5659 8.5109,19.5909 C8.7609,19.6699 9.0269,19.7439 9.3019,19.8039 C9.3639,19.8199 9.4249,19.8349 9.4889,19.8459 C9.5649,19.8639 9.6409,19.8789 9.7199,19.8929 C9.8159,19.9129 9.9139,19.9299 10.0139,19.9469 C10.1419,19.9669 10.2699,19.9869 10.4029,20.0069 L10.6459,20.0359 C10.7549,20.0489 10.8599,20.0599 10.9699,20.0699 C10.9779,20.0699 10.9879,20.0729 10.9949,20.0729 C11.0739,20.0799 11.1519,20.0879 11.2329,20.0919 C11.2989,20.0969 11.3689,20.1019 11.4369,20.1039 C11.5229,20.1119 11.6089,20.1169 11.6979,20.1189 L11.7079,20.1189 C11.7939,20.1219 11.8819,20.1269 11.9679,20.1269 C12.0839,20.1299 12.1969,20.1319 12.3119,20.1319 C12.4269,20.1319 12.5409,20.1299 12.6559,20.1269 C12.7399,20.1269 12.8259,20.1219 12.9089,20.1189 C13.0069,20.1139 13.1059,20.1089 13.2019,20.1039 C13.2599,20.1019 13.3199,20.0969 13.3789,20.0919 C13.4369,20.0879 13.4969,20.0829 13.5549,20.0779 C13.6149,20.0729 13.6709,20.0679 13.7299,20.0629 C13.7989,20.0549 13.8679,20.0489 13.9359,20.0409 C13.9749,20.0359 14.0169,20.0309 14.0559,20.0259 C14.1059,20.0179 14.1529,20.0129 14.2019,20.0079 C14.2459,20.0019 14.2899,19.9969 14.3349,19.9889 C14.4249,19.9769 14.5159,19.9619 14.6049,19.9469 C14.7819,19.9179 14.9589,19.8849 15.1279,19.8489 C15.1889,19.8369 15.2509,19.8219 15.3099,19.8089 C15.3719,19.7949 15.4299,19.7799 15.4889,19.7649 C15.5579,19.7509 15.6269,19.7309 15.6929,19.7139 C15.7589,19.6969 15.8239,19.6769 15.8839,19.6599 C15.9609,19.6369 16.0369,19.6159 16.1129,19.5909 C16.1869,19.5689 16.2599,19.5449 16.3319,19.5199 C16.4059,19.4949 16.4789,19.4679 16.5499,19.4409 C16.6959,19.3869 16.8339,19.3309 16.9679,19.2709 C17.0349,19.2419 17.0979,19.2109 17.1629,19.1799 C17.2099,19.1589 17.2559,19.1359 17.2999,19.1139 C17.3819,19.0729 17.4579,19.0279 17.5339,18.9869 C17.5389,18.9839 17.5409,18.9819 17.5459,18.9789 C17.6049,18.9449 17.6639,18.9109 17.7169,18.8759 C17.7669,18.8459 17.8139,18.8139 17.8599,18.7829 C17.9639,18.7119 18.0619,18.6399 18.1529,18.5639 C18.1999,18.5269 18.2409,18.4899 18.2829,18.4509 C18.3149,18.4219 18.3469,18.3919 18.3769,18.3599 C18.4329,18.3079 18.4849,18.2519 18.5309,18.1929 C18.5549,18.1659 18.5779,18.1379 18.5999,18.1119 C18.6269,18.0749 18.6539,18.0409 18.6779,18.0039 C18.7009,17.9709 18.7199,17.9399 18.7379,17.9079 C18.7569,17.8759 18.7769,17.8439 18.7919,17.8119 C18.8109,17.7799 18.8259,17.7479 18.8399,17.7159 C18.8399,17.7159 18.8429,17.7139 18.8429,17.7119 L18.8429,17.7089 C18.8709,17.5689 18.8869,17.4259 18.8969,17.2759 C18.8529,17.6079 18.6879,17.9319 18.4029,18.2369 M5.7269,17.2759 C5.7269,17.2709 5.7239,17.2659 5.7239,17.2609 L5.7239,17.2549 L5.7239,17.2499 C5.7189,17.2029 5.7169,17.1559 5.7169,17.1069 C5.7169,17.0919 5.7169,17.0829 5.7189,17.0669 L5.7189,17.0619 C5.7189,17.0329 5.7189,17.0069 5.7239,16.9789 C5.7569,16.6329 5.9239,16.2959 6.2229,15.9759 C6.2259,15.9739 6.2279,15.9709 6.2309,15.9689 C6.2649,15.9319 6.3019,15.8949 6.3409,15.8589 C6.3559,15.8429 6.3709,15.8289 6.3849,15.8169 C6.4739,15.7329 6.5719,15.6549 6.6779,15.5759 C6.7029,15.5559 6.7269,15.5389 6.7549,15.5219 C6.8909,15.4239 7.0439,15.3309 7.2089,15.2419 C7.2479,15.2169 7.2899,15.1949 7.3319,15.1749 C7.4269,15.1239 7.5259,15.0769 7.6289,15.0309 C7.7499,14.9759 7.8749,14.9229 8.0029,14.8759 L8.0049,14.8759 C8.0739,14.8459 8.1399,14.8189 8.2119,14.7949 C8.5669,14.6669 8.9529,14.5559 9.3559,14.4659 L9.3589,14.4659 C9.4859,14.4359 9.6119,14.4089 9.7449,14.3839 C9.7469,14.3859 9.7499,14.3839 9.7499,14.3839 C10.5499,14.2319 11.4159,14.1509 12.3119,14.1509 C14.0839,14.1509 15.7479,14.4629 16.9959,15.0309 C17.5949,15.2999 18.0669,15.6179 18.3959,15.9689 L18.4029,15.9759 C18.7009,16.2959 18.8679,16.6329 18.8999,16.9789 C18.9049,17.0069 18.9049,17.0329 18.9049,17.0619 L18.9049,17.0669 C18.9069,17.0829 18.9069,17.0919 18.9069,17.1069 C18.9069,17.1559 18.9049,17.2029 18.8999,17.2499 L18.8999,17.2549 L18.8999,17.2609 C18.8999,17.2659 18.8999,17.2709 18.8969,17.2759 C18.8529,17.6079 18.6879,17.9319 18.4029,18.2369 C18.0739,18.5909 17.5999,18.9109 16.9959,19.1829 C15.7479,19.7509 14.0839,20.0629 12.3119,20.0629 C10.5429,20.0629 8.8799,19.7509 7.6289,19.1829 C7.0239,18.9109 6.5519,18.5909 6.2229,18.2369 C5.9359,17.9319 5.7709,17.6079 5.7269,17.2759 M19.0429,17.0619 C19.0429,17.0329 19.0429,17.0069 19.0399,16.9789 C19.0029,16.5539 18.7819,16.1459 18.3959,15.7749 C18.0669,15.4559 17.6149,15.1609 17.0519,14.9049 C15.7839,14.3299 14.1009,14.0129 12.3119,14.0129 C11.2729,14.0129 10.2699,14.1189 9.3639,14.3229 C9.2479,14.3469 9.1349,14.3749 9.0239,14.4039 C8.6689,14.4949 8.3269,14.6029 8.0089,14.7229 C7.9429,14.7479 7.8799,14.7749 7.8159,14.7989 C7.7319,14.8339 7.6509,14.8689 7.5719,14.9049 C7.4399,14.9659 7.3139,15.0279 7.1939,15.0939 C7.1549,15.1139 7.1179,15.1329 7.0809,15.1559 C6.9259,15.2419 6.7839,15.3329 6.6529,15.4279 C6.6319,15.4409 6.6089,15.4559 6.5869,15.4749 C6.4939,15.5419 6.4079,15.6129 6.3269,15.6859 C6.3119,15.6959 6.2979,15.7089 6.2849,15.7229 C6.2649,15.7379 6.2479,15.7559 6.2309,15.7719 C5.8449,16.1429 5.6239,16.5539 5.5869,16.9789 C5.5849,17.0069 5.5849,17.0329 5.5849,17.0619 L5.5849,17.0699 C5.5819,17.0849 5.5819,17.0919 5.5819,17.1069 C5.5819,17.1589 5.5849,17.2099 5.5899,17.2609 C5.6059,17.4189 5.6479,17.5709 5.7129,17.7209 C5.7469,17.7999 5.7859,17.8739 5.8329,17.9469 C6.1399,18.4589 6.7319,18.9249 7.5719,19.3059 C8.8399,19.8829 10.5229,20.2009 12.3119,20.2009 C14.1009,20.2009 15.7839,19.8829 17.0519,19.3059 C17.8899,18.9269 18.4819,18.4639 18.7899,17.9549 C18.8389,17.8759 18.8809,17.8019 18.9119,17.7229 C18.9779,17.5709 19.0199,17.4189 19.0379,17.2609 C19.0429,17.2099 19.0449,17.1589 19.0449,17.1069 C19.0449,17.0919 19.0449,17.0849 19.0429,17.0699 L19.0429,17.0619 Z M18.4029,18.2369 C18.0739,18.5909 17.5999,18.9109 16.9959,19.1829 C15.7479,19.7509 14.0839,20.0629 12.3119,20.0629 C10.5429,20.0629 8.8799,19.7509 7.6289,19.1829 C7.0239,18.9109 6.5519,18.5909 6.2229,18.2369 C5.9359,17.9319 5.7709,17.6079 5.7269,17.2759 C5.7319,17.3569 5.7389,17.4359 5.7489,17.5119 C5.7589,17.5759 5.7689,17.6369 5.7809,17.7019 C5.8179,17.7849 5.8619,17.8659 5.9139,17.9469 C5.9309,17.9759 5.9509,18.0039 5.9699,18.0329 C5.9949,18.0679 6.0189,18.1039 6.0489,18.1359 C6.1249,18.2319 6.2109,18.3259 6.3089,18.4189 C6.4029,18.5079 6.5059,18.5929 6.6169,18.6769 C6.7099,18.7459 6.8079,18.8119 6.9139,18.8789 C6.9579,18.9059 7.0029,18.9319 7.0469,18.9599 C7.0559,18.9649 7.0659,18.9709 7.0789,18.9769 C7.1499,19.0179 7.2209,19.0579 7.2979,19.0969 C7.3459,19.1249 7.3979,19.1489 7.4499,19.1739 C7.5209,19.2109 7.5939,19.2449 7.6709,19.2759 C7.7289,19.3029 7.7889,19.3279 7.8499,19.3519 C7.9899,19.4089 8.1319,19.4639 8.2829,19.5149 C8.3589,19.5419 8.4349,19.5659 8.5109,19.5909 C8.7609,19.6699 9.0269,19.7439 9.3019,19.8039 C9.3639,19.8199 9.4249,19.8349 9.4889,19.8459 C9.5649,19.8639 9.6409,19.8789 9.7199,19.8929 C9.8159,19.9129 9.9139,19.9299 10.0139,19.9469 C10.1419,19.9669 10.2699,19.9869 10.4029,20.0069 L10.6459,20.0359 C10.7549,20.0489 10.8599,20.0599 10.9699,20.0699 C10.9779,20.0699 10.9879,20.0729 10.9949,20.0729 C11.0739,20.0799 11.1519,20.0879 11.2329,20.0919 C11.2989,20.0969 11.3689,20.1019 11.4369,20.1039 C11.5229,20.1119 11.6089,20.1169 11.6979,20.1189 L11.7079,20.1189 C11.7939,20.1219 11.8819,20.1269 11.9679,20.1269 C12.0839,20.1299 12.1969,20.1319 12.3119,20.1319 C12.4269,20.1319 12.5409,20.1299 12.6559,20.1269 C12.7399,20.1269 12.8259,20.1219 12.9089,20.1189 C13.0069,20.1139 13.1059,20.1089 13.2019,20.1039 C13.2599,20.1019 13.3199,20.0969 13.3789,20.0919 C13.4369,20.0879 13.4969,20.0829 13.5549,20.0779 C13.6149,20.0729 13.6709,20.0679 13.7299,20.0629 C13.7989,20.0549 13.8679,20.0489 13.9359,20.0409 C13.9749,20.0359 14.0169,20.0309 14.0559,20.0259 C14.1059,20.0179 14.1529,20.0129 14.2019,20.0079 C14.2459,20.0019 14.2899,19.9969 14.3349,19.9889 C14.4249,19.9769 14.5159,19.9619 14.6049,19.9469 C14.7819,19.9179 14.9589,19.8849 15.1279,19.8489 C15.1889,19.8369 15.2509,19.8219 15.3099,19.8089 C15.3719,19.7949 15.4299,19.7799 15.4889,19.7649 C15.5579,19.7509 15.6269,19.7309 15.6929,19.7139 C15.7589,19.6969 15.8239,19.6769 15.8839,19.6599 C15.9609,19.6369 16.0369,19.6159 16.1129,19.5909 C16.1869,19.5689 16.2599,19.5449 16.3319,19.5199 C16.4059,19.4949 16.4789,19.4679 16.5499,19.4409 C16.6959,19.3869 16.8339,19.3309 16.9679,19.2709 C17.0349,19.2419 17.0979,19.2109 17.1629,19.1799 C17.2099,19.1589 17.2559,19.1359 17.2999,19.1139 C17.3819,19.0729 17.4579,19.0279 17.5339,18.9869 C17.5389,18.9839 17.5409,18.9819 17.5459,18.9789 C17.6049,18.9449 17.6639,18.9109 17.7169,18.8759 C17.7669,18.8459 17.8139,18.8139 17.8599,18.7829 C17.9639,18.7119 18.0619,18.6399 18.1529,18.5639 C18.1999,18.5269 18.2409,18.4899 18.2829,18.4509 C18.3149,18.4219 18.3469,18.3919 18.3769,18.3599 C18.4329,18.3079 18.4849,18.2519 18.5309,18.1929 C18.5549,18.1659 18.5779,18.1379 18.5999,18.1119 C18.6269,18.0749 18.6539,18.0409 18.6779,18.0039 C18.7009,17.9709 18.7199,17.9399 18.7379,17.9079 C18.7569,17.8759 18.7769,17.8439 18.7919,17.8119 C18.8109,17.7799 18.8259,17.7479 18.8399,17.7159 C18.8399,17.7159 18.8429,17.7139 18.8429,17.7119 L18.8429,17.7089 C18.8709,17.5689 18.8869,17.4259 18.8969,17.2759 C18.8529,17.6079 18.6879,17.9319 18.4029,18.2369 M18.4029,18.2369 C18.0739,18.5909 17.5999,18.9109 16.9959,19.1829 C15.7479,19.7509 14.0839,20.0629 12.3119,20.0629 C10.5429,20.0629 8.8799,19.7509 7.6289,19.1829 C7.0239,18.9109 6.5519,18.5909 6.2229,18.2369 C5.9359,17.9319 5.7709,17.6079 5.7269,17.2759 C5.7319,17.3569 5.7389,17.4359 5.7489,17.5119 C5.7589,17.5759 5.7689,17.6369 5.7809,17.7019 C5.8179,17.7849 5.8619,17.8659 5.9139,17.9469 C5.9309,17.9759 5.9509,18.0039 5.9699,18.0329 C5.9949,18.0679 6.0189,18.1039 6.0489,18.1359 C6.1249,18.2319 6.2109,18.3259 6.3089,18.4189 C6.4029,18.5079 6.5059,18.5929 6.6169,18.6769 C6.7099,18.7459 6.8079,18.8119 6.9139,18.8789 C6.9579,18.9059 7.0029,18.9319 7.0469,18.9599 C7.0559,18.9649 7.0659,18.9709 7.0789,18.9769 C7.1499,19.0179 7.2209,19.0579 7.2979,19.0969 C7.3459,19.1249 7.3979,19.1489 7.4499,19.1739 C7.5209,19.2109 7.5939,19.2449 7.6709,19.2759 C7.7289,19.3029 7.7889,19.3279 7.8499,19.3519 C7.9899,19.4089 8.1319,19.4639 8.2829,19.5149 C8.3589,19.5419 8.4349,19.5659 8.5109,19.5909 C8.7609,19.6699 9.0269,19.7439 9.3019,19.8039 C9.3639,19.8199 9.4249,19.8349 9.4889,19.8459 C9.5649,19.8639 9.6409,19.8789 9.7199,19.8929 C9.8159,19.9129 9.9139,19.9299 10.0139,19.9469 C10.1419,19.9669 10.2699,19.9869 10.4029,20.0069 L10.6459,20.0359 C10.7549,20.0489 10.8599,20.0599 10.9699,20.0699 C10.9779,20.0699 10.9879,20.0729 10.9949,20.0729 C11.0739,20.0799 11.1519,20.0879 11.2329,20.0919 C11.2989,20.0969 11.3689,20.1019 11.4369,20.1039 C11.5229,20.1119 11.6089,20.1169 11.6979,20.1189 L11.7079,20.1189 C11.7939,20.1219 11.8819,20.1269 11.9679,20.1269 C12.0839,20.1299 12.1969,20.1319 12.3119,20.1319 C12.4269,20.1319 12.5409,20.1299 12.6559,20.1269 C12.7399,20.1269 12.8259,20.1219 12.9089,20.1189 C13.0069,20.1139 13.1059,20.1089 13.2019,20.1039 C13.2599,20.1019 13.3199,20.0969 13.3789,20.0919 C13.4369,20.0879 13.4969,20.0829 13.5549,20.0779 C13.6149,20.0729 13.6709,20.0679 13.7299,20.0629 C13.7989,20.0549 13.8679,20.0489 13.9359,20.0409 C13.9749,20.0359 14.0169,20.0309 14.0559,20.0259 C14.1059,20.0179 14.1529,20.0129 14.2019,20.0079 C14.2459,20.0019 14.2899,19.9969 14.3349,19.9889 C14.4249,19.9769 14.5159,19.9619 14.6049,19.9469 C14.7819,19.9179 14.9589,19.8849 15.1279,19.8489 C15.1889,19.8369 15.2509,19.8219 15.3099,19.8089 C15.3719,19.7949 15.4299,19.7799 15.4889,19.7649 C15.5579,19.7509 15.6269,19.7309 15.6929,19.7139 C15.7589,19.6969 15.8239,19.6769 15.8839,19.6599 C15.9609,19.6369 16.0369,19.6159 16.1129,19.5909 C16.1869,19.5689 16.2599,19.5449 16.3319,19.5199 C16.4059,19.4949 16.4789,19.4679 16.5499,19.4409 C16.6959,19.3869 16.8339,19.3309 16.9679,19.2709 C17.0349,19.2419 17.0979,19.2109 17.1629,19.1799 C17.2099,19.1589 17.2559,19.1359 17.2999,19.1139 C17.3819,19.0729 17.4579,19.0279 17.5339,18.9869 C17.5389,18.9839 17.5409,18.9819 17.5459,18.9789 C17.6049,18.9449 17.6639,18.9109 17.7169,18.8759 C17.7669,18.8459 17.8139,18.8139 17.8599,18.7829 C17.9639,18.7119 18.0619,18.6399 18.1529,18.5639 C18.1999,18.5269 18.2409,18.4899 18.2829,18.4509 C18.3149,18.4219 18.3469,18.3919 18.3769,18.3599 C18.4329,18.3079 18.4849,18.2519 18.5309,18.1929 C18.5549,18.1659 18.5779,18.1379 18.5999,18.1119 C18.6269,18.0749 18.6539,18.0409 18.6779,18.0039 C18.7009,17.9709 18.7199,17.9399 18.7379,17.9079 C18.7569,17.8759 18.7769,17.8439 18.7919,17.8119 C18.8109,17.7799 18.8259,17.7479 18.8399,17.7159 C18.8399,17.7159 18.8429,17.7139 18.8429,17.7119 L18.8429,17.7089 C18.8709,17.5689 18.8869,17.4259 18.8969,17.2759 C18.8529,17.6079 18.6879,17.9319 18.4029,18.2369" id="Fill-7" fill="#51381F" transform="translate(12.313400, 17.106900) scale(-1, 1) translate(-12.313400, -17.106900) "></path>
                    <path d="M6.2318,4.7534 L6.2318,17.0314 C6.2318,18.4574 8.9548,19.6134 12.3148,19.6134 C15.6738,19.6134 18.3968,18.4574 18.3968,17.0314 L18.3968,4.7534 L6.2318,4.7534 Z" id="Fill-9" fill="#51381F" transform="translate(12.314300, 12.183400) scale(-1, 1) translate(-12.314300, -12.183400) "></path>
                    <path d="M12.3127,3.2212 C11.5847,3.2212 10.9937,2.9392 10.9937,2.5902 L10.9937,2.5852 C10.9987,2.2432 11.5807,1.9662 12.2947,1.9612 L12.3127,1.9612 C13.0417,1.9612 13.6347,2.2432 13.6347,2.5902 C13.6347,2.9392 13.0417,3.2212 12.3127,3.2212 M12.3127,1.9432 C11.5757,1.9432 10.9757,2.2332 10.9757,2.5902 C10.9757,2.9492 11.5757,3.2382 12.3127,3.2382 C13.0497,3.2382 13.6517,2.9492 13.6517,2.5902 C13.6517,2.2332 13.0497,1.9432 12.3127,1.9432" id="Fill-11" fill="#231F20" transform="translate(12.313700, 2.590700) scale(-1, 1) translate(-12.313700, -2.590700) "></path>
                    <path d="M5.6825987,2.5909 C4.6855987,5.5459 8.5205987,6.5079 12.3145987,6.5079 C16.1075987,6.5079 19.9425987,5.5459 18.9455987,2.5909 L5.6825987,2.5909 Z" id="Fill-13" fill="#ECECEA" transform="translate(12.314099, 4.549400) scale(-1, 1) translate(-12.314099, -4.549400) "></path>
                    <path d="M12.3148,6.5757 C10.8458,6.5757 9.5058,6.4317 8.4378,6.1587 C7.1798,5.8367 6.3068,5.3457 5.8418,4.6987 C5.4178,4.1057 5.3418,3.3897 5.6188,2.5687 L5.7478,2.6127 C5.4858,3.3887 5.5538,4.0647 5.9528,4.6187 C6.7838,5.7757 9.1018,6.4397 12.3148,6.4397 C15.5268,6.4397 17.8448,5.7757 18.6758,4.6187 C19.0748,4.0647 19.1428,3.3887 18.8808,2.6127 L19.0098,2.5687 C19.2868,3.3897 19.2108,4.1057 18.7868,4.6987 C18.3218,5.3457 17.4488,5.8367 16.1908,6.1587 C15.1228,6.4317 13.7828,6.5757 12.3148,6.5757" id="Fill-15" fill="#51381F" transform="translate(12.314300, 4.572200) scale(-1, 1) translate(-12.314300, -4.572200) "></path>
                    <path d="M18.9459,2.7012 C18.9459,4.1562 15.9769,5.3342 12.3149,5.3342 C8.6519,5.3342 5.6829,4.1562 5.6829,2.7012 C5.6829,1.2472 8.6519,0.0682 12.3149,0.0682 C15.9769,0.0682 18.9459,1.2472 18.9459,2.7012" id="Fill-17" fill="#ECECEA" transform="translate(12.314400, 2.701200) scale(-1, 1) translate(-12.314400, -2.701200) "></path>
                    <path d="M16.9767,4.4991 C16.7457,4.5921 16.4987,4.6761 16.2447,4.7521 C15.1137,5.0861 13.7497,5.2661 12.3127,5.2661 C10.8777,5.2661 9.5137,5.0861 8.3837,4.7521 C8.1257,4.6761 7.8797,4.5921 7.6487,4.4991 C7.0487,4.2611 6.5777,3.9851 6.2507,3.6761 C5.9187,3.3661 5.7487,3.0371 5.7487,2.7001 C5.7487,2.6641 5.7517,2.6261 5.7567,2.5901 C5.7887,2.2951 5.9557,2.0021 6.2507,1.7251 C6.5777,1.4181 7.0487,1.1401 7.6487,0.9021 C8.8947,0.4081 10.5507,0.1351 12.3127,0.1351 C14.0777,0.1351 15.7327,0.4081 16.9767,0.9021 C17.5787,1.1401 18.0497,1.4181 18.3767,1.7251 C18.6717,2.0021 18.8357,2.2951 18.8687,2.5901 C18.8727,2.6261 18.8757,2.6641 18.8757,2.7001 C18.8757,3.0371 18.7077,3.3661 18.3767,3.6761 C18.0497,3.9851 17.5787,4.2611 16.9767,4.4991 M19.0057,2.5701 C18.9267,1.8871 18.2317,1.2551 17.0277,0.7761 C15.7677,0.2751 14.0917,9.99999985e-05 12.3127,9.99999985e-05 C10.5337,9.99999985e-05 8.8607,0.2751 7.5997,0.7761 C6.3937,1.2551 5.6987,1.8901 5.6227,2.5731 C5.6177,2.6141 5.6147,2.6591 5.6147,2.7001 C5.6147,2.7321 5.6177,2.7621 5.6197,2.7941 C5.6237,2.8551 5.6337,2.9141 5.6467,2.9731 C5.7987,3.6021 6.4797,4.1821 7.5997,4.6271 C7.7097,4.6711 7.8237,4.7131 7.9417,4.7521 C9.1557,5.1751 10.6887,5.4031 12.3127,5.4031 C13.9347,5.4031 15.4727,5.1751 16.6867,4.7521 C16.8037,4.7131 16.9167,4.6711 17.0277,4.6271 C18.1437,4.1851 18.8217,3.6071 18.9787,2.9801 C18.9937,2.9211 19.0027,2.8651 19.0077,2.8041 L19.0077,2.8011 C19.0107,2.7671 19.0127,2.7351 19.0127,2.7001 C19.0127,2.6561 19.0107,2.6141 19.0057,2.5701" id="Fill-19" fill="#51381F" transform="translate(12.313700, 2.701600) scale(-1, 1) translate(-12.313700, -2.701600) "></path>
                    <path d="M12.3139,2.5909 C12.3139,2.2379 12.9089,1.9519 13.6429,1.9519 L12.3139,2.5909 Z" id="Fill-21" fill="#231F20" transform="translate(12.978400, 2.271400) scale(-1, 1) translate(-12.978400, -2.271400) "></path>
                    <path d="M16.4182,4.1328 C15.4842,4.4818 14.2852,4.6978 12.9872,4.7518 C12.7672,4.7618 12.5402,4.7668 12.3142,4.7668 C12.0892,4.7668 11.8622,4.7618 11.6422,4.7518 C10.3442,4.6978 9.1452,4.4818 8.2112,4.1328 C7.1742,3.7448 6.5792,3.2258 6.5792,2.7078 C6.5792,2.6688 6.5822,2.6288 6.5922,2.5898 C6.6732,2.1108 7.2532,1.6418 8.2112,1.2828 C9.3052,0.8748 10.7622,0.6488 12.3142,0.6488 C13.8672,0.6488 15.3242,0.8748 16.4182,1.2828 C17.3762,1.6418 17.9562,2.1108 18.0372,2.5898 C18.0472,2.6288 18.0502,2.6688 18.0502,2.7078 C18.0502,3.2258 17.4552,3.7448 16.4182,4.1328 M18.3142,2.5898 C18.2412,1.9878 17.6092,1.4378 16.5142,1.0268 C15.3912,0.6068 13.8992,0.3758 12.3142,0.3758 C10.7322,0.3758 9.2402,0.6068 8.1152,1.0268 C7.0222,1.4378 6.3882,1.9878 6.3142,2.5898 C6.3102,2.6288 6.3072,2.6688 6.3072,2.7078 C6.3072,3.3538 6.9502,3.9508 8.1152,4.3858 C8.5032,4.5308 8.9362,4.6538 9.4002,4.7518 C10.2802,4.9388 11.2772,5.0368 12.3142,5.0368 C13.3522,5.0368 14.3522,4.9388 15.2312,4.7518 C15.6952,4.6538 16.1282,4.5308 16.5142,4.3858 C17.6812,3.9508 18.3222,3.3538 18.3222,2.7078 C18.3222,2.6688 18.3192,2.6288 18.3142,2.5898" id="Fill-23" fill="#51381F" transform="translate(12.314700, 2.706300) scale(-1, 1) translate(-12.314700, -2.706300) "></path>
                    <path d="M13.51786,1.9278 C13.51786,1.9278 13.52386,1.9318 13.53786,1.9398 C13.54986,1.9468 13.56986,1.9588 13.59386,1.9748 C13.64186,2.0068 13.71386,2.0538 13.79586,2.1278 C13.87686,2.2008 13.97286,2.3008 14.03986,2.4448 C14.07386,2.5158 14.09886,2.5988 14.10386,2.6898 C14.10986,2.7818 14.08986,2.8808 14.04486,2.9708 C14.00186,3.0618 13.93686,3.1438 13.86186,3.2178 C13.78686,3.2908 13.69986,3.3548 13.60686,3.4138 C13.42086,3.5318 13.21186,3.6288 12.99086,3.7098 C12.76886,3.7918 12.53586,3.8618 12.29486,3.9188 C12.05486,3.9768 11.80886,4.0238 11.56186,4.0628 C11.31486,4.1018 11.06686,4.1318 10.82286,4.1538 C10.57786,4.1768 10.33586,4.1898 10.10186,4.1988 C9.98586,4.2028 9.87086,4.2058 9.75786,4.2068 C9.64586,4.2078 9.53586,4.2068 9.42786,4.2048 C9.41486,4.2048 9.40186,4.2048 9.38786,4.2038 C9.37386,4.2038 9.36186,4.2038 9.34786,4.2028 C9.32186,4.2018 9.29486,4.2008 9.26986,4.2008 C9.21786,4.1988 9.16686,4.1978 9.11686,4.1958 C9.01586,4.1898 8.91786,4.1848 8.82486,4.1768 C8.77786,4.1728 8.73286,4.1688 8.68786,4.1648 C8.64286,4.1608 8.59986,4.1568 8.55786,4.1518 C8.51486,4.1478 8.47386,4.1428 8.43386,4.1378 C8.39386,4.1328 8.35486,4.1278 8.31786,4.1228 C8.24186,4.1138 8.17186,4.1028 8.10686,4.0928 C8.07486,4.0868 8.04286,4.0818 8.01386,4.0768 C7.98386,4.0718 7.95586,4.0668 7.92886,4.0618 C7.87486,4.0518 7.82786,4.0438 7.78686,4.0348 C7.74586,4.0258 7.70986,4.0178 7.68086,4.0118 C7.62386,3.9998 7.59386,3.9928 7.59386,3.9928 C7.59386,3.9928 7.62486,3.9958 7.68286,4.0018 C7.71186,4.0048 7.74686,4.0088 7.78886,4.0128 C7.83086,4.0168 7.87986,4.0218 7.93386,4.0268 C7.96086,4.0298 7.98986,4.0318 8.01886,4.0348 C8.04886,4.0368 8.08086,4.0388 8.11286,4.0408 C8.14586,4.0438 8.17886,4.0468 8.21386,4.0488 C8.24886,4.0518 8.28686,4.0528 8.32386,4.0558 C8.36186,4.0578 8.40086,4.0598 8.44086,4.0618 C8.47986,4.0638 8.52186,4.0648 8.56386,4.0668 C8.60586,4.0688 8.64986,4.0708 8.69386,4.0728 C8.73786,4.0738 8.78386,4.0738 8.82986,4.0748 C8.92186,4.0778 9.01886,4.0768 9.11886,4.0778 C9.16786,4.0778 9.21886,4.0768 9.27086,4.0768 C9.29686,4.0758 9.32286,4.0758 9.34886,4.0758 C9.36286,4.0758 9.37486,4.0748 9.38786,4.0748 C9.40186,4.0748 9.41386,4.0748 9.42786,4.0738 C9.53486,4.0718 9.64286,4.0688 9.75386,4.0638 C9.86586,4.0598 9.97986,4.0538 10.09486,4.0478 C10.32686,4.0338 10.56486,4.0128 10.80586,3.9898 C11.04786,3.9638 11.29186,3.9338 11.53686,3.8958 C11.77986,3.8578 12.02186,3.8118 12.25686,3.7588 C12.49386,3.7048 12.72286,3.6438 12.93986,3.5698 C13.15686,3.4938 13.36186,3.4098 13.53986,3.3058 C13.62986,3.2538 13.71186,3.1968 13.78386,3.1338 C13.85586,3.0708 13.91586,3.0008 13.95686,2.9258 C13.99886,2.8508 14.01986,2.7708 14.01886,2.6918 C14.02086,2.6128 14.00386,2.5378 13.97886,2.4698 C13.95386,2.4028 13.91786,2.3428 13.88186,2.2898 C13.84586,2.2378 13.80786,2.1918 13.77186,2.1528 C13.69786,2.0738 13.63286,2.0188 13.58786,1.9828 C13.54186,1.9468 13.51786,1.9278 13.51786,1.9278" id="Fill-25" fill="#51381F" transform="translate(10.849380, 3.067496) scale(-1, 1) translate(-10.849380, -3.067496) "></path>
                    <path d="M13.6426,2.5909 C13.6426,2.9439 13.0466,3.2289 12.3136,3.2289 C11.5796,3.2289 10.9846,2.9439 10.9846,2.5909 C10.9846,2.2379 11.5796,1.9519 12.3136,1.9519 C13.0466,1.9519 13.6426,2.2379 13.6426,2.5909" id="Fill-27" fill="#51381F" transform="translate(12.313600, 2.590400) scale(-1, 1) translate(-12.313600, -2.590400) "></path>
                    <path d="M12.896,3.2002 C12.896,3.2002 12.885,3.1962 12.866,3.1892 C12.856,3.1852 12.843,3.1802 12.83,3.1752 C12.815,3.1692 12.799,3.1612 12.782,3.1542 C12.763,3.1462 12.744,3.1362 12.722,3.1252 C12.702,3.1142 12.679,3.1012 12.656,3.0872 C12.608,3.0572 12.556,3.0212 12.505,2.9742 C12.456,2.9272 12.405,2.8682 12.368,2.7952 L12.36,2.7812 L12.354,2.7662 C12.35,2.7572 12.346,2.7472 12.342,2.7372 C12.338,2.7262 12.335,2.7162 12.333,2.7062 L12.328,2.6902 L12.325,2.6742 C12.323,2.6632 12.321,2.6522 12.318,2.6412 C12.317,2.6302 12.317,2.6192 12.316,2.6082 L12.314,2.5912 L12.315,2.5732 C12.315,2.5622 12.315,2.5532 12.316,2.5412 C12.321,2.4922 12.333,2.4482 12.349,2.4032 C12.367,2.3592 12.39,2.3182 12.417,2.2792 C12.474,2.2032 12.543,2.1372 12.619,2.0822 C12.694,2.0282 12.775,1.9822 12.857,1.9452 C12.939,1.9072 13.023,1.8782 13.105,1.8532 C13.186,1.8282 13.266,1.8102 13.343,1.7962 C13.419,1.7822 13.493,1.7722 13.56,1.7672 C13.627,1.7602 13.689,1.7582 13.744,1.7562 C13.798,1.7552 13.846,1.7562 13.886,1.7582 C13.925,1.7582 13.956,1.7622 13.977,1.7632 C13.998,1.7642 14.009,1.7652 14.009,1.7652 C14.009,1.7652 13.998,1.7662 13.977,1.7682 C13.956,1.7702 13.925,1.7732 13.886,1.7782 C13.848,1.7822 13.8,1.7882 13.748,1.7952 C13.694,1.8032 13.633,1.8122 13.568,1.8252 C13.536,1.8302 13.501,1.8382 13.466,1.8462 C13.432,1.8532 13.396,1.8612 13.359,1.8702 C13.286,1.8892 13.209,1.9122 13.132,1.9382 C13.054,1.9652 12.976,1.9972 12.899,2.0342 C12.823,2.0722 12.748,2.1152 12.678,2.1642 C12.609,2.2142 12.546,2.2722 12.498,2.3372 C12.474,2.3702 12.453,2.4042 12.437,2.4392 C12.421,2.4742 12.411,2.5132 12.406,2.5472 C12.404,2.5562 12.404,2.5672 12.403,2.5772 L12.403,2.5852 L12.402,2.5892 L12.402,2.5912 L12.402,2.5922 L12.402,2.5912 L12.403,2.6042 C12.403,2.6142 12.403,2.6232 12.404,2.6322 C12.405,2.6412 12.406,2.6502 12.407,2.6592 C12.408,2.6632 12.408,2.6682 12.409,2.6732 L12.412,2.6862 L12.417,2.7122 C12.42,2.7212 12.423,2.7292 12.426,2.7382 L12.431,2.7502 L12.436,2.7632 C12.464,2.8282 12.504,2.8852 12.547,2.9332 C12.591,2.9812 12.635,3.0212 12.677,3.0552 C12.699,3.0712 12.719,3.0862 12.738,3.1002 C12.757,3.1132 12.775,3.1262 12.791,3.1362 C12.807,3.1462 12.822,3.1562 12.834,3.1642 C12.848,3.1722 12.859,3.1782 12.868,3.1832 C12.886,3.1942 12.896,3.2002 12.896,3.2002" id="Fill-29" fill="#51381F" transform="translate(13.161500, 2.478004) scale(-1, 1) translate(-13.161500, -2.478004) "></path>
                    <path d="M13.6021184,2.0201 C13.6021184,2.0261 13.4871184,2.0271 13.3041184,2.0491 C13.2131184,2.0611 13.1051184,2.0791 12.9881184,2.1091 C12.8711184,2.1401 12.7441184,2.1821 12.6231184,2.2491 C12.5621184,2.2831 12.5051184,2.3211 12.4591184,2.3661 C12.4141184,2.4101 12.3771184,2.4611 12.3601184,2.5161 C12.3421184,2.5711 12.3441184,2.6271 12.3621184,2.6761 C12.3781184,2.7251 12.4071184,2.7661 12.4361184,2.7991 C12.4661184,2.8331 12.4981184,2.8601 12.5261184,2.8821 C12.5401184,2.8931 12.5541184,2.9021 12.5671184,2.9121 C12.5811184,2.9201 12.5921184,2.9281 12.6031184,2.9351 C12.6461184,2.9621 12.6711184,2.9761 12.6701184,2.9791 C12.6691184,2.9811 12.6421184,2.9721 12.5951184,2.9481 C12.5831184,2.9421 12.5711184,2.9351 12.5571184,2.9271 C12.5431184,2.9181 12.5291184,2.9101 12.5141184,2.8991 C12.4831184,2.8781 12.4501184,2.8521 12.4161184,2.8171 C12.3831184,2.7841 12.3521184,2.7411 12.3311184,2.6871 C12.3111184,2.6331 12.3071184,2.5681 12.3261184,2.5061 C12.3451184,2.4431 12.3841184,2.3871 12.4331184,2.3391 C12.4821184,2.2901 12.5411184,2.2501 12.6041184,2.2151 C12.6661184,2.1801 12.7311184,2.1531 12.7931184,2.1301 C12.8571184,2.1071 12.9191184,2.0891 12.9791184,2.0751 C13.0991184,2.0461 13.2091184,2.0311 13.3011184,2.0221 C13.3941184,2.0141 13.4691184,2.0131 13.5211184,2.0141 C13.5731184,2.0151 13.6021184,2.0181 13.6021184,2.0201" id="Fill-31" fill="#FFFFFF" transform="translate(12.957959, 2.496575) scale(-1, 1) translate(-12.957959, -2.496575) "></path>
                    <path d="M14.9162854,5.2168 C14.9192854,5.2148 14.9302854,5.2248 14.9462854,5.2448 C14.9642854,5.2658 14.9852854,5.2968 15.0182854,5.3348 C15.0792854,5.4118 15.1722854,5.5208 15.3032854,5.6358 C15.4342854,5.7538 15.6032854,5.8758 15.8062854,5.9898 C16.0092854,6.1028 16.2422854,6.2088 16.4962854,6.2988 C16.6232854,6.3438 16.7482854,6.3848 16.8702854,6.4208 C16.9322854,6.4388 16.9922854,6.4548 17.0512854,6.4718 C17.1102854,6.4868 17.1682854,6.5028 17.2252854,6.5158 C17.4522854,6.5728 17.6592854,6.6158 17.8342854,6.6498 C18.1832854,6.7178 18.4012854,6.7548 18.3982854,6.7718 C18.3972854,6.7858 18.1762854,6.7778 17.8202854,6.7298 C17.6442854,6.7058 17.4332854,6.6708 17.2012854,6.6188 C17.1432854,6.6068 17.0842854,6.5918 17.0232854,6.5778 C16.9632854,6.5618 16.9012854,6.5468 16.8402854,6.5288 C16.7152854,6.4938 16.5872854,6.4538 16.4572854,6.4068 C16.1982854,6.3148 15.9592854,6.2038 15.7532854,6.0808 C15.5472854,5.9588 15.3752854,5.8248 15.2472854,5.6958 C15.1182854,5.5678 15.0322854,5.4468 14.9802854,5.3608 C14.9542854,5.3178 14.9372854,5.2808 14.9272854,5.2568 C14.9162854,5.2328 14.9122854,5.2188 14.9162854,5.2168" id="Fill-33" fill="#FFFFFF" transform="translate(16.656543, 5.997271) scale(-1, 1) translate(-16.656543, -5.997271) "></path>
                    <path d="M14.5257371,5.9405 C14.5287371,5.9385 14.5397371,5.9485 14.5547371,5.9685 C14.5567371,5.9715 14.5587371,5.9755 14.5617371,5.9795 C14.5647371,5.9835 14.5677371,5.9885 14.5717371,5.9935 C14.5757371,5.9995 14.5797371,6.0055 14.5847371,6.0125 C14.5887371,6.0205 14.5937371,6.0275 14.5997371,6.0365 C14.6067371,6.0455 14.6157371,6.0575 14.6247371,6.0685 C14.6277371,6.0725 14.6307371,6.0775 14.6337371,6.0825 C14.6407371,6.0915 14.6477371,6.1015 14.6557371,6.1115 C14.6877371,6.1545 14.7287371,6.2045 14.7787371,6.2575 C14.8257371,6.3075 14.8797371,6.3595 14.9427371,6.4125 C15.0897371,6.5405 15.2837371,6.6705 15.5117371,6.7895 C15.7407371,6.9085 16.0047371,7.0165 16.2897371,7.1065 C16.4307371,7.1515 16.5717371,7.1915 16.7087371,7.2255 C16.7777371,7.2425 16.8457371,7.2575 16.9127371,7.2735 C16.9717371,7.2865 17.0307371,7.2995 17.0887371,7.3115 C17.0947371,7.3125 17.1017371,7.3135 17.1087371,7.3155 C17.3407371,7.3615 17.5547371,7.3955 17.7377371,7.4205 C17.7557371,7.4235 17.7757371,7.4265 17.7937371,7.4285 C17.9467371,7.4485 18.0767371,7.4645 18.1757371,7.4765 C18.2227371,7.4825 18.2627371,7.4865 18.2967371,7.4915 C18.3127371,7.4935 18.3277371,7.4955 18.3387371,7.4985 C18.3517371,7.5015 18.3617371,7.5055 18.3677371,7.5095 C18.3907371,7.5175 18.4017371,7.5235 18.3977371,7.5285 C18.3937371,7.5345 18.3687371,7.5385 18.3237371,7.5385 C18.2287371,7.5435 18.0597371,7.5395 17.8367371,7.5205 C17.8117371,7.5185 17.7877371,7.5165 17.7617371,7.5145 C17.5757371,7.4975 17.3567371,7.4705 17.1167371,7.4275 C17.1027371,7.4255 17.0897371,7.4225 17.0767371,7.4205 C17.0117371,7.4095 16.9477371,7.3955 16.8797371,7.3825 C16.8197371,7.3685 16.7577371,7.3565 16.6957371,7.3405 C16.6897371,7.3385 16.6827371,7.3375 16.6757371,7.3355 C16.5377371,7.3025 16.3957371,7.2625 16.2517371,7.2165 C16.0747371,7.1655 15.9057371,7.1045 15.7497371,7.0365 C15.6077371,6.9755 15.4757371,6.9075 15.3607371,6.8355 C15.1987371,6.7365 15.0567371,6.6305 14.9427371,6.5265 C14.9097371,6.4965 14.8787371,6.4655 14.8487371,6.4355 C14.7807371,6.3645 14.7237371,6.2955 14.6787371,6.2335 C14.6637371,6.2115 14.6487371,6.1905 14.6347371,6.1705 C14.6297371,6.1605 14.6237371,6.1505 14.6177371,6.1415 C14.6117371,6.1315 14.6057371,6.1225 14.6007371,6.1135 C14.5947371,6.1045 14.5907371,6.0965 14.5867371,6.0875 C14.5817371,6.0795 14.5767371,6.0715 14.5727371,6.0635 C14.5647371,6.0475 14.5567371,6.0335 14.5517371,6.0205 C14.5467371,6.0075 14.5417371,5.9965 14.5377371,5.9865 C14.5367371,5.9845 14.5357371,5.9825 14.5357371,5.9815 C14.5327371,5.9735 14.5297371,5.9675 14.5277371,5.9615 C14.5237371,5.9485 14.5227371,5.9415 14.5257371,5.9405" id="Fill-35" fill="#FFFFFF" transform="translate(16.461269, 6.740359) scale(-1, 1) translate(-16.461269, -6.740359) "></path>
                    <path d="M14.1344674,6.6641 C14.1374674,6.6621 14.1474674,6.6721 14.1614674,6.6921 C14.1644674,6.6961 14.1664674,6.7001 14.1684674,6.7041 C14.1714674,6.7091 14.1754674,6.7151 14.1784674,6.7211 C14.1824674,6.7281 14.1864674,6.7351 14.1914674,6.7431 C14.1964674,6.7511 14.2004674,6.7601 14.2064674,6.7691 C14.2134674,6.7791 14.2224674,6.7901 14.2314674,6.8021 C14.2344674,6.8071 14.2374674,6.8121 14.2404674,6.8171 C14.2474674,6.8281 14.2544674,6.8391 14.2634674,6.8511 C14.2964674,6.9001 14.3404674,6.9561 14.3954674,7.0151 C14.4464674,7.0711 14.5094674,7.1301 14.5814674,7.1891 C14.7454674,7.3271 14.9614674,7.4651 15.2164674,7.5891 C15.4714674,7.7131 15.7654674,7.8231 16.0804674,7.9131 C16.2384674,7.9581 16.3944674,7.9971 16.5454674,8.0301 C16.6224674,8.0471 16.6984674,8.0611 16.7724674,8.0751 C16.8394674,8.0871 16.9054674,8.1001 16.9684674,8.1101 C16.9764674,8.1111 16.9844674,8.1121 16.9904674,8.1131 C17.2504674,8.1551 17.4874674,8.1831 17.6904674,8.2021 C17.7114674,8.2041 17.7324674,8.2061 17.7524674,8.2071 C17.9234674,8.2211 18.0674674,8.2301 18.1764674,8.2381 C18.2294674,8.2401 18.2734674,8.2431 18.3084674,8.2461 C18.3284674,8.2471 18.3454674,8.2481 18.3554674,8.2511 C18.3674674,8.2541 18.3744674,8.2591 18.3754674,8.2651 C18.3954674,8.2731 18.4024674,8.2801 18.3964674,8.2861 C18.3894674,8.2921 18.3614674,8.2971 18.3144674,8.3001 C18.2084674,8.3101 18.0254674,8.3121 17.7834674,8.3011 C17.7564674,8.3001 17.7304674,8.2991 17.7014674,8.2981 C17.4974674,8.2871 17.2584674,8.2661 16.9944674,8.2281 C16.9814674,8.2261 16.9664674,8.2241 16.9514674,8.2221 C16.8814674,8.2121 16.8094674,8.1991 16.7364674,8.1861 C16.6694674,8.1741 16.6024674,8.1621 16.5334674,8.1471 C16.5264674,8.1461 16.5194674,8.1441 16.5114674,8.1431 C16.3594674,8.1111 16.2024674,8.0721 16.0444674,8.0261 C15.8284674,7.9731 15.6234674,7.9061 15.4354674,7.8291 C15.2614674,7.7581 15.1024674,7.6771 14.9674674,7.5891 C14.8024674,7.4871 14.6594674,7.3781 14.5434674,7.2691 C14.5104674,7.2381 14.4794674,7.2071 14.4504674,7.1761 C14.3814674,7.1021 14.3244674,7.0311 14.2804674,6.9661 C14.2654674,6.9441 14.2514674,6.9221 14.2384674,6.9011 C14.2324674,6.8911 14.2264674,6.8801 14.2204674,6.8711 C14.2144674,6.8611 14.2094674,6.8511 14.2044674,6.8421 C14.1994674,6.8331 14.1954674,6.8241 14.1914674,6.8161 C14.1864674,6.8071 14.1814674,6.7991 14.1774674,6.7901 C14.1694674,6.7741 14.1634674,6.7601 14.1574674,6.7471 C14.1524674,6.7331 14.1484674,6.7211 14.1444674,6.7111 C14.1444674,6.7091 14.1434674,6.7081 14.1424674,6.7061 C14.1404674,6.6981 14.1374674,6.6911 14.1364674,6.6851 C14.1324674,6.6721 14.1314674,6.6651 14.1344674,6.6641" id="Fill-37" fill="#FFFFFF" transform="translate(16.265634, 7.486182) scale(-1, 1) translate(-16.265634, -7.486182) "></path>
                    <path d="M13.7431091,7.3877 C13.7461091,7.3857 13.7551091,7.3957 13.7691091,7.4157 C13.7711091,7.4197 13.7731091,7.4247 13.7761091,7.4297 C13.7791091,7.4347 13.7821091,7.4417 13.7861091,7.4487 C13.7891091,7.4557 13.7941091,7.4637 13.7981091,7.4727 C13.8031091,7.4817 13.8071091,7.4917 13.8131091,7.5027 C13.8201091,7.5127 13.8281091,7.5237 13.8371091,7.5357 C13.8401091,7.5417 13.8441091,7.5467 13.8471091,7.5537 C13.8541091,7.5647 13.8611091,7.5777 13.8701091,7.5907 C13.9051091,7.6447 13.9521091,7.7067 14.0131091,7.7727 C14.0691091,7.8347 14.1391091,7.9007 14.2211091,7.9657 C14.4011091,8.1137 14.6401091,8.2597 14.9221091,8.3887 C15.2031091,8.5177 15.5251091,8.6307 15.8731091,8.7207 C16.0461091,8.7647 16.2171091,8.8027 16.3831091,8.8337 C16.4681091,8.8507 16.5511091,8.8637 16.6331091,8.8777 C16.7061091,8.8877 16.7781091,8.8997 16.8491091,8.9087 L16.8731091,8.9117 C17.1601091,8.9497 17.4201091,8.9707 17.6421091,8.9827 C17.6661091,8.9837 17.6881091,8.9847 17.7111091,8.9857 C17.8991091,8.9937 18.0571091,8.9967 18.1761091,8.9987 C18.2341091,8.9987 18.2831091,8.9997 18.3201091,9.0007 C18.3461091,8.9997 18.3621091,9.0007 18.3721091,9.0037 C18.3851091,9.0077 18.3891091,9.0127 18.3841091,9.0207 C18.3991091,9.0287 18.4031091,9.0367 18.3931091,9.0437 C18.3841091,9.0507 18.3531091,9.0567 18.3051091,9.0607 C18.1881091,9.0757 17.9901091,9.0867 17.7301091,9.0827 C17.7021091,9.0827 17.6731091,9.0817 17.6421091,9.0817 C17.4201091,9.0767 17.1601091,9.0617 16.8741091,9.0287 L16.8271091,9.0227 C16.7501091,9.0137 16.6721091,9.0027 16.5921091,8.9907 C16.5191091,8.9797 16.4461091,8.9677 16.3711091,8.9537 L16.3471091,8.9497 C16.1811091,8.9197 16.0111091,8.8817 15.8381091,8.8367 C15.5831091,8.7807 15.3421091,8.7077 15.1221091,8.6207 C14.9151091,8.5397 14.7281091,8.4467 14.5741091,8.3437 C14.4061091,8.2377 14.2621091,8.1247 14.1451091,8.0127 C14.1111091,7.9807 14.0801091,7.9477 14.0521091,7.9157 C13.9821091,7.8397 13.9271091,7.7657 13.8831091,7.6997 C13.8671091,7.6757 13.8541091,7.6527 13.8421091,7.6317 C13.8351091,7.6207 13.8301091,7.6107 13.8241091,7.5997 C13.8181091,7.5907 13.8131091,7.5797 13.8081091,7.5707 C13.8041091,7.5617 13.8001091,7.5527 13.7961091,7.5437 C13.7911091,7.5347 13.7871091,7.5257 13.7831091,7.5177 C13.7751091,7.5007 13.7691091,7.4857 13.7641091,7.4717 C13.7591091,7.4587 13.7551091,7.4467 13.7521091,7.4357 C13.7511091,7.4337 13.7511091,7.4327 13.7501091,7.4307 C13.7471091,7.4227 13.7451091,7.4157 13.7441091,7.4097 C13.7411091,7.3957 13.7401091,7.3887 13.7431091,7.3877" id="Fill-39" fill="#FFFFFF" transform="translate(16.069955, 8.235489) scale(-1, 1) translate(-16.069955, -8.235489) "></path>
                    <path d="M13.3491712,8.1114 C13.3521712,8.1104 13.3611712,8.1194 13.3741712,8.1394 C13.3761712,8.1434 13.3781712,8.1494 13.3801712,8.1544 C13.3831712,8.1604 13.3861712,8.1684 13.3901712,8.1754 C13.3931712,8.1844 13.3981712,8.1934 13.4021712,8.2034 C13.4071712,8.2134 13.4121712,8.2244 13.4181712,8.2354 C13.4241712,8.2464 13.4321712,8.2574 13.4401712,8.2694 C13.4441712,8.2754 13.4471712,8.2824 13.4511712,8.2884 C13.4581712,8.3014 13.4661712,8.3164 13.4751712,8.3304 C13.5111712,8.3904 13.5611712,8.4584 13.6261712,8.5294 C13.6891712,8.5994 13.7661712,8.6714 13.8561712,8.7414 C14.0541712,8.9004 14.3171712,9.0534 14.6231712,9.1884 C14.9311712,9.3224 15.2841712,9.4384 15.6621712,9.5274 C15.8501712,9.5714 16.0371712,9.6094 16.2171712,9.6384 C16.3101712,9.6544 16.4011712,9.6664 16.4911712,9.6794 C16.5711712,9.6894 16.6501712,9.6994 16.7271712,9.7074 L16.7531712,9.7104 C17.0661712,9.7424 17.3501712,9.7574 17.5921712,9.7634 C17.6181712,9.7634 17.6421712,9.7644 17.6661712,9.7644 C17.8731712,9.7664 18.0451712,9.7624 18.1731712,9.7604 C18.2381712,9.7574 18.2901712,9.7564 18.3301712,9.7564 C18.3591712,9.7534 18.3771712,9.7534 18.3861712,9.7574 C18.3981712,9.7604 18.3991712,9.7674 18.3901712,9.7764 C18.4021712,9.7844 18.4021712,9.7934 18.3891712,9.8014 C18.3751712,9.8094 18.3431712,9.8164 18.2941712,9.8214 C18.1651712,9.8424 17.9531712,9.8604 17.6751712,9.8634 C17.6441712,9.8644 17.6121712,9.8644 17.5791712,9.8654 C17.3401712,9.8674 17.0591712,9.8584 16.7491712,9.8294 C16.7331712,9.8274 16.7161712,9.8254 16.6991712,9.8244 C16.6161712,9.8164 16.5321712,9.8064 16.4451712,9.7954 C16.3671712,9.7844 16.2871712,9.7744 16.2061712,9.7614 L16.1801712,9.7574 C16.0001712,9.7284 15.8161712,9.6914 15.6281712,9.6464 C15.3341712,9.5874 15.0561712,9.5084 14.8051712,9.4134 C14.5661712,9.3224 14.3521712,9.2154 14.1781712,9.0974 C14.0071712,8.9884 13.8611712,8.8714 13.7451712,8.7564 C13.7101712,8.7224 13.6791712,8.6894 13.6501712,8.6554 C13.5801712,8.5774 13.5251712,8.5014 13.4821712,8.4324 C13.4671712,8.4074 13.4531712,8.3844 13.4421712,8.3624 C13.4361712,8.3514 13.4301712,8.3404 13.4251712,8.3304 C13.4191712,8.3194 13.4141712,8.3094 13.4101712,8.2994 C13.4061712,8.2904 13.4011712,8.2804 13.3971712,8.2714 C13.3931712,8.2624 13.3891712,8.2534 13.3851712,8.2444 C13.3781712,8.2274 13.3721712,8.2124 13.3681712,8.1974 C13.3631712,8.1834 13.3591712,8.1714 13.3561712,8.1604 C13.3561712,8.1584 13.3551712,8.1574 13.3551712,8.1554 C13.3521712,8.1474 13.3511712,8.1394 13.3491712,8.1334 C13.3461712,8.1194 13.3461712,8.1124 13.3491712,8.1114" id="Fill-41" fill="#FFFFFF" transform="translate(15.872986, 8.988496) scale(-1, 1) translate(-15.872986, -8.988496) "></path>
                    <path d="M12.9468,8.8345 C12.9498,8.8335 12.9578,8.8435 12.9698,8.8625 C12.9718,8.8675 12.9738,8.8735 12.9768,8.8795 C12.9798,8.8865 12.9828,8.8945 12.9858,8.9035 C12.9898,8.9125 12.9938,8.9225 12.9988,8.9335 C13.0028,8.9445 13.0088,8.9565 13.0138,8.9685 C13.0198,8.9795 13.0278,8.9915 13.0358,9.0025 C13.0388,9.0095 13.0428,9.0175 13.0468,9.0235 C13.0538,9.0385 13.0618,9.0545 13.0708,9.0695 C13.1088,9.1345 13.1618,9.2095 13.2318,9.2875 C13.3008,9.3635 13.3838,9.4415 13.4838,9.5175 C13.6988,9.6865 13.9838,9.8485 14.3178,9.9875 C14.6518,10.1275 15.0338,10.2455 15.4418,10.3345 C15.6468,10.3785 15.8478,10.4145 16.0438,10.4435 C16.1438,10.4585 16.2428,10.4695 16.3398,10.4805 C16.4268,10.4905 16.5118,10.4995 16.5958,10.5065 C16.6048,10.5075 16.6148,10.5085 16.6248,10.5085 C16.9648,10.5365 17.2718,10.5445 17.5338,10.5435 C17.5608,10.5435 17.5878,10.5435 17.6138,10.5425 C17.8388,10.5385 18.0238,10.5285 18.1618,10.5215 C18.2318,10.5155 18.2888,10.5115 18.3318,10.5105 C18.3638,10.5065 18.3838,10.5065 18.3928,10.5095 C18.4028,10.5135 18.4008,10.5205 18.3868,10.5315 C18.3948,10.5405 18.3918,10.5495 18.3758,10.5585 C18.3588,10.5675 18.3248,10.5755 18.2738,10.5825 C18.1338,10.6085 17.9068,10.6345 17.6108,10.6455 C17.5778,10.6465 17.5438,10.6475 17.5088,10.6485 C17.2518,10.6575 16.9498,10.6535 16.6178,10.6295 C16.5988,10.6285 16.5818,10.6265 16.5628,10.6255 C16.4728,10.6185 16.3828,10.6095 16.2898,10.5995 C16.2058,10.5905 16.1198,10.5805 16.0328,10.5675 C16.0228,10.5665 16.0138,10.5645 16.0048,10.5635 C15.8108,10.5365 15.6128,10.5005 15.4108,10.4555 C15.0788,10.3955 14.7628,10.3105 14.4798,10.2055 C14.2088,10.1055 13.9668,9.9845 13.7738,9.8515 C13.5998,9.7385 13.4528,9.6185 13.3348,9.4995 C13.3008,9.4645 13.2688,9.4305 13.2398,9.3965 C13.1708,9.3145 13.1148,9.2355 13.0738,9.1655 C13.0578,9.1405 13.0458,9.1155 13.0338,9.0925 C13.0278,9.0815 13.0218,9.0705 13.0168,9.0595 C13.0118,9.0485 13.0078,9.0385 13.0038,9.0285 C12.9988,9.0185 12.9948,9.0085 12.9908,8.9995 C12.9868,8.9895 12.9828,8.9805 12.9798,8.9715 C12.9728,8.9545 12.9678,8.9385 12.9638,8.9235 C12.9588,8.9095 12.9558,8.8965 12.9528,8.8855 C12.9518,8.8835 12.9518,8.8815 12.9508,8.8805 C12.9488,8.8715 12.9478,8.8635 12.9468,8.8575 C12.9438,8.8435 12.9438,8.8355 12.9468,8.8345" id="Fill-43" fill="#FFFFFF" transform="translate(15.671800, 9.743674) scale(-1, 1) translate(-15.671800, -9.743674) "></path>
                    <path d="M12.5403765,9.5582 C12.5433765,9.5572 12.5513765,9.5672 12.5623765,9.5862 C12.5643765,9.5922 12.5663765,9.5982 12.5683765,9.6052 C12.5713765,9.6122 12.5743765,9.6212 12.5773765,9.6302 C12.5813765,9.6402 12.5853765,9.6512 12.5903765,9.6632 C12.5943765,9.6752 12.6003765,9.6882 12.6053765,9.7022 C12.6113765,9.7132 12.6183765,9.7252 12.6263765,9.7372 C12.6303765,9.7442 12.6333765,9.7522 12.6373765,9.7602 C12.6453765,9.7752 12.6533765,9.7922 12.6633765,9.8092 C12.7023765,9.8802 12.7583765,9.9612 12.8333765,10.0452 C12.9063765,10.1272 12.9983765,10.2122 13.1073765,10.2942 C13.3393765,10.4732 13.6473765,10.6432 14.0073765,10.7872 C14.3673765,10.9322 14.7793765,11.0532 15.2193765,11.1412 C15.4383765,11.1852 15.6553765,11.2212 15.8653765,11.2472 C15.9743765,11.2622 16.0803765,11.2722 16.1853765,11.2832 C16.2783765,11.2912 16.3703765,11.2992 16.4613765,11.3052 C16.4713765,11.3062 16.4813765,11.3072 16.4913765,11.3082 C16.8583765,11.3302 17.1893765,11.3322 17.4713765,11.3252 C17.5003765,11.3242 17.5293765,11.3232 17.5583765,11.3222 C17.8003765,11.3112 17.9993765,11.2952 18.1463765,11.2822 C18.2223765,11.2742 18.2833765,11.2682 18.3293765,11.2652 C18.3643765,11.2602 18.3873765,11.2592 18.3943765,11.2622 C18.4043765,11.2662 18.3983765,11.2742 18.3803765,11.2872 C18.3843765,11.2962 18.3773765,11.3072 18.3583765,11.3162 C18.3393765,11.3262 18.3023765,11.3352 18.2503765,11.3432 C18.0993765,11.3752 17.8553765,11.4082 17.5433765,11.4262 C17.5073765,11.4292 17.4713765,11.4312 17.4343765,11.4332 C17.1583765,11.4472 16.8363765,11.4502 16.4803765,11.4302 C16.4623765,11.4292 16.4423765,11.4282 16.4223765,11.4272 C16.3273765,11.4212 16.2293765,11.4132 16.1303765,11.4042 C16.0403765,11.3952 15.9483765,11.3862 15.8543765,11.3742 C15.8453765,11.3732 15.8353765,11.3722 15.8253765,11.3702 C15.6183765,11.3452 15.4043765,11.3102 15.1873765,11.2662 C14.8173765,11.2032 14.4663765,11.1122 14.1513765,10.9972 C13.8473765,10.8882 13.5773765,10.7542 13.3643765,10.6052 C13.1883765,10.4892 13.0393765,10.3652 12.9213765,10.2432 C12.8873765,10.2072 12.8543765,10.1712 12.8253765,10.1362 C12.7563765,10.0522 12.7013765,9.9712 12.6603765,9.8982 C12.6453765,9.8722 12.6333765,9.8472 12.6213765,9.8242 C12.6153765,9.8122 12.6103765,9.8002 12.6053765,9.7892 C12.6013765,9.7782 12.5963765,9.7672 12.5923765,9.7572 C12.5883765,9.7462 12.5843765,9.7372 12.5803765,9.7272 C12.5763765,9.7172 12.5723765,9.7082 12.5693765,9.6992 C12.5633765,9.6812 12.5583765,9.6642 12.5543765,9.6492 C12.5503765,9.6352 12.5473765,9.6212 12.5443765,9.6102 C12.5443765,9.6082 12.5443765,9.6062 12.5433765,9.6052 C12.5413765,9.5962 12.5403765,9.5882 12.5393765,9.5812 C12.5373765,9.5672 12.5373765,9.5592 12.5403765,9.5582" id="Fill-45" fill="#FFFFFF" transform="translate(15.468588, 10.501291) scale(-1, 1) translate(-15.468588, -10.501291) "></path>
                    <path d="M12.1332528,10.2818 C12.1362528,10.2808 12.1432528,10.2908 12.1542528,10.3098 C12.1552528,10.3158 12.1572528,10.3228 12.1602528,10.3298 C12.1622528,10.3388 12.1652528,10.3478 12.1692528,10.3578 C12.1722528,10.3688 12.1772528,10.3808 12.1812528,10.3928 C12.1862528,10.4068 12.1922528,10.4198 12.1972528,10.4348 C12.2022528,10.4468 12.2092528,10.4578 12.2172528,10.4698 C12.2202528,10.4788 12.2242528,10.4868 12.2282528,10.4948 C12.2372528,10.5118 12.2442528,10.5308 12.2542528,10.5488 C12.2952528,10.6248 12.3542528,10.7128 12.4352528,10.8028 C12.5132528,10.8918 12.6122528,10.9828 12.7312528,11.0708 C12.9802528,11.2598 13.3112528,11.4378 13.6962528,11.5878 C14.0822528,11.7378 14.5242528,11.8598 14.9942528,11.9488 C15.2302528,11.9918 15.4622528,12.0268 15.6872528,12.0528 C15.8032528,12.0658 15.9172528,12.0758 16.0292528,12.0848 C16.1302528,12.0928 16.2292528,12.0998 16.3252528,12.1048 C16.3362528,12.1048 16.3472528,12.1058 16.3592528,12.1058 C16.7512528,12.1248 17.1072528,12.1198 17.4072528,12.1058 C17.4392528,12.1038 17.4702528,12.1018 17.5002528,12.0998 C17.7602528,12.0838 17.9742528,12.0608 18.1302528,12.0438 C18.2122528,12.0318 18.2782528,12.0248 18.3252528,12.0198 C18.3642528,12.0128 18.3882528,12.0118 18.3962528,12.0148 C18.4042528,12.0188 18.3972528,12.0288 18.3722528,12.0428 C18.3732528,12.0528 18.3622528,12.0628 18.3402528,12.0738 C18.3182528,12.0838 18.2792528,12.0938 18.2252528,12.1038 C18.0632528,12.1408 17.8052528,12.1818 17.4742528,12.2078 C17.4362528,12.2108 17.3982528,12.2138 17.3592528,12.2168 C17.0652528,12.2378 16.7222528,12.2458 16.3442528,12.2308 C16.3232528,12.2298 16.3032528,12.2288 16.2812528,12.2278 C16.1802528,12.2238 16.0762528,12.2168 15.9702528,12.2088 C15.8742528,12.2008 15.7762528,12.1928 15.6772528,12.1818 C15.6662528,12.1798 15.6552528,12.1788 15.6452528,12.1778 C15.4242528,12.1538 15.1962528,12.1198 14.9652528,12.0748 C14.5562528,12.0098 14.1682528,11.9128 13.8212528,11.7888 C13.4852528,11.6698 13.1882528,11.5238 12.9552528,11.3588 C12.7772528,11.2398 12.6252528,11.1128 12.5062528,10.9868 C12.4722528,10.9488 12.4402528,10.9128 12.4102528,10.8768 C12.3412528,10.7898 12.2862528,10.7058 12.2462528,10.6308 C12.2322528,10.6048 12.2202528,10.5788 12.2082528,10.5538 C12.2032528,10.5418 12.1972528,10.5308 12.1942528,10.5188 C12.1892528,10.5078 12.1842528,10.4968 12.1802528,10.4858 C12.1762528,10.4748 12.1722528,10.4648 12.1692528,10.4548 C12.1652528,10.4448 12.1622528,10.4348 12.1592528,10.4258 C12.1542528,10.4068 12.1492528,10.3908 12.1452528,10.3748 C12.1412528,10.3598 12.1382528,10.3468 12.1362528,10.3348 C12.1362528,10.3328 12.1352528,10.3308 12.1352528,10.3298 C12.1332528,10.3208 12.1322528,10.3128 12.1312528,10.3058 C12.1302528,10.2908 12.1302528,10.2828 12.1332528,10.2818" id="Fill-47" fill="#FFFFFF" transform="translate(15.265026, 11.260129) scale(-1, 1) translate(-15.265026, -11.260129) "></path>
                    <path d="M11.7258528,11.0054 C11.7288528,11.0044 11.7358528,11.0144 11.7458528,11.0334 C11.7468528,11.0394 11.7488528,11.0474 11.7508528,11.0554 C11.7538528,11.0644 11.7568528,11.0734 11.7598528,11.0854 C11.7628528,11.0964 11.7678528,11.1094 11.7718528,11.1234 C11.7768528,11.1374 11.7828528,11.1524 11.7878528,11.1684 C11.7938528,11.1794 11.7998528,11.1924 11.8068528,11.2044 C11.8108528,11.2134 11.8148528,11.2214 11.8178528,11.2314 C11.8268528,11.2494 11.8348528,11.2684 11.8458528,11.2884 C11.8878528,11.3704 11.9508528,11.4634 12.0358528,11.5604 C12.1198528,11.6554 12.2258528,11.7524 12.3528528,11.8464 C12.6198528,12.0464 12.9728528,12.2324 13.3848528,12.3864 C13.7978528,12.5424 14.2688528,12.6674 14.7708528,12.7554 C15.0218528,12.7994 15.2688528,12.8324 15.5068528,12.8574 C15.6318528,12.8694 15.7538528,12.8784 15.8738528,12.8874 C15.9818528,12.8934 16.0858528,12.8994 16.1898528,12.9024 C16.2018528,12.9034 16.2128528,12.9034 16.2248528,12.9044 C16.6448528,12.9184 17.0238528,12.9074 17.3438528,12.8864 C17.3768528,12.8844 17.4108528,12.8814 17.4428528,12.8784 C17.7208528,12.8564 17.9488528,12.8264 18.1148528,12.8054 C18.2018528,12.7904 18.2718528,12.7804 18.3228528,12.7744 C18.3648528,12.7674 18.3898528,12.7644 18.3968528,12.7684 C18.4048528,12.7724 18.3938528,12.7824 18.3658528,12.7974 C18.3618528,12.8084 18.3478528,12.8194 18.3228528,12.8304 C18.2958528,12.8424 18.2548528,12.8544 18.2008528,12.8644 C18.0268528,12.9074 17.7538528,12.9554 17.4058528,12.9884 C17.3658528,12.9924 17.3248528,12.9964 17.2828528,13.0004 C16.9708528,13.0264 16.6078528,13.0414 16.2068528,13.0304 C16.1848528,13.0304 16.1628528,13.0294 16.1408528,13.0284 C16.0328528,13.0264 15.9218528,13.0204 15.8098528,13.0134 C15.7068528,13.0064 15.6038528,12.9984 15.4978528,12.9874 C15.4878528,12.9864 15.4758528,12.9854 15.4638528,12.9844 C15.2298528,12.9614 14.9888528,12.9294 14.7428528,12.8854 C14.2938528,12.8174 13.8698528,12.7144 13.4928528,12.5814 C13.1218528,12.4524 12.7978528,12.2924 12.5458528,12.1124 C12.3658528,11.9904 12.2118528,11.8594 12.0918528,11.7294 C12.0568528,11.6914 12.0248528,11.6534 11.9958528,11.6164 C11.9248528,11.5274 11.8718528,11.4414 11.8318528,11.3634 C11.8178528,11.3364 11.8068528,11.3104 11.7948528,11.2854 C11.7898528,11.2724 11.7858528,11.2604 11.7808528,11.2484 C11.7758528,11.2364 11.7718528,11.2254 11.7678528,11.2144 C11.7638528,11.2034 11.7608528,11.1934 11.7578528,11.1834 C11.7538528,11.1724 11.7508528,11.1624 11.7478528,11.1524 C11.7438528,11.1334 11.7388528,11.1164 11.7358528,11.1014 C11.7318528,11.0854 11.7288528,11.0714 11.7268528,11.0594 L11.7268528,11.0544 C11.7248528,11.0454 11.7238528,11.0364 11.7238528,11.0294 C11.7228528,11.0144 11.7228528,11.0054 11.7258528,11.0054" id="Fill-49" fill="#FFFFFF" transform="translate(15.061326, 12.019689) scale(-1, 1) translate(-15.061326, -12.019689) "></path>
                    <path d="M11.319061,11.729 C11.322061,11.728 11.328061,11.738 11.338061,11.757 C11.339061,11.764 11.340061,11.771 11.343061,11.78 C11.345061,11.79 11.348061,11.8 11.351061,11.812 C11.355061,11.825 11.359061,11.838 11.364061,11.853 C11.368061,11.868 11.374061,11.884 11.380061,11.902 C11.385061,11.913 11.391061,11.925 11.397061,11.938 C11.401061,11.947 11.405061,11.957 11.409061,11.966 C11.418061,11.986 11.426061,12.007 11.438061,12.028 C11.481061,12.115 11.547061,12.215 11.636061,12.318 C11.726061,12.419 11.840061,12.523 11.976061,12.623 C12.259061,12.833 12.636061,13.027 13.075061,13.187 C13.513061,13.347 14.014061,13.474 14.547061,13.562 C14.813061,13.606 15.075061,13.638 15.329061,13.662 C15.462061,13.673 15.591061,13.681 15.718061,13.689 C15.833061,13.695 15.945061,13.7 16.054061,13.702 C16.067061,13.703 16.080061,13.703 16.091061,13.703 C16.539061,13.712 16.941061,13.695 17.281061,13.666 L17.386061,13.658 C17.681061,13.628 17.923061,13.593 18.098061,13.566 C18.192061,13.549 18.266061,13.537 18.319061,13.529 C18.365061,13.52 18.392061,13.517 18.398061,13.521 C18.406061,13.525 18.391061,13.536 18.358061,13.553 C18.350061,13.564 18.334061,13.577 18.304061,13.588 C18.276061,13.6 18.232061,13.613 18.176061,13.625 C17.991061,13.674 17.704061,13.729 17.337061,13.77 C17.295061,13.775 17.252061,13.78 17.207061,13.784 C16.878061,13.817 16.494061,13.837 16.070061,13.832 C16.047061,13.832 16.023061,13.831 16.000061,13.831 C15.885061,13.829 15.769061,13.824 15.650061,13.818 C15.542061,13.812 15.432061,13.804 15.321061,13.795 C15.308061,13.794 15.297061,13.793 15.285061,13.792 C15.037061,13.77 14.781061,13.739 14.520061,13.695 C14.033061,13.625 13.572061,13.516 13.163061,13.374 C12.760061,13.235 12.408061,13.062 12.137061,12.867 C11.954061,12.741 11.798061,12.606 11.678061,12.473 C11.643061,12.434 11.611061,12.395 11.582061,12.356 C11.510061,12.265 11.458061,12.176 11.419061,12.097 C11.405061,12.068 11.394061,12.041 11.382061,12.016 C11.378061,12.003 11.373061,11.99 11.369061,11.978 C11.364061,11.966 11.360061,11.955 11.356061,11.943 C11.353061,11.932 11.349061,11.921 11.346061,11.911 C11.343061,11.9 11.340061,11.89 11.338061,11.88 C11.333061,11.86 11.329061,11.843 11.326061,11.827 C11.323061,11.811 11.321061,11.796 11.319061,11.785 C11.319061,11.783 11.318061,11.781 11.318061,11.779 C11.317061,11.769 11.316061,11.761 11.316061,11.754 C11.315061,11.738 11.316061,11.729 11.319061,11.729" id="Fill-51" fill="#FFFFFF" transform="translate(14.857930, 12.780847) scale(-1, 1) translate(-14.857930, -12.780847) "></path>
                    <path d="M10.9122057,12.4527 C10.9152057,12.4517 10.9212057,12.4617 10.9292057,12.4807 C10.9312057,12.4877 10.9332057,12.4957 10.9342057,12.5057 C10.9372057,12.5157 10.9392057,12.5267 10.9432057,12.5397 C10.9462057,12.5527 10.9502057,12.5677 10.9552057,12.5827 C10.9592057,12.5987 10.9652057,12.6167 10.9722057,12.6347 C10.9762057,12.6467 10.9812057,12.6587 10.9882057,12.6717 C10.9922057,12.6817 10.9962057,12.6917 11.0002057,12.7017 C11.0092057,12.7237 11.0172057,12.7447 11.0292057,12.7677 C11.0742057,12.8597 11.1422057,12.9667 11.2382057,13.0757 C11.3322057,13.1827 11.4542057,13.2937 11.5992057,13.3987 C11.8992057,13.6197 12.3002057,13.8207 12.7652057,13.9857 C13.2292057,14.1517 13.7592057,14.2817 14.3232057,14.3697 C14.6052057,14.4127 14.8822057,14.4447 15.1502057,14.4657 C15.2912057,14.4767 15.4292057,14.4847 15.5632057,14.4907 C15.6842057,14.4957 15.8032057,14.4997 15.9192057,14.5017 L15.9592057,14.5017 C16.4322057,14.5067 16.8582057,14.4817 17.2182057,14.4477 C17.2562057,14.4437 17.2932057,14.4397 17.3292057,14.4357 C17.6422057,14.4007 17.8982057,14.3587 18.0832057,14.3267 C18.1822057,14.3077 18.2612057,14.2937 18.3162057,14.2837 C18.3652057,14.2727 18.3942057,14.2697 18.3992057,14.2737 C18.4062057,14.2777 18.3902057,14.2897 18.3502057,14.3077 C18.3402057,14.3197 18.3182057,14.3337 18.2872057,14.3457 C18.2552057,14.3587 18.2092057,14.3727 18.1512057,14.3867 C17.9552057,14.4397 17.6522057,14.5037 17.2682057,14.5517 C17.2242057,14.5567 17.1792057,14.5627 17.1322057,14.5677 C16.7852057,14.6067 16.3792057,14.6337 15.9332057,14.6327 C15.9092057,14.6327 15.8842057,14.6327 15.8592057,14.6317 C15.7392057,14.6307 15.6162057,14.6277 15.4902057,14.6217 C15.3762057,14.6167 15.2602057,14.6107 15.1422057,14.6017 L15.1042057,14.5987 C14.8432057,14.5787 14.5722057,14.5487 14.2982057,14.5047 C13.7712057,14.4317 13.2742057,14.3167 12.8332057,14.1657 C12.3982057,14.0167 12.0182057,13.8307 11.7282057,13.6207 C11.5422057,13.4907 11.3852057,13.3527 11.2642057,13.2167 C11.2282057,13.1767 11.1962057,13.1367 11.1672057,13.0967 C11.0962057,13.0027 11.0432057,12.9117 11.0062057,12.8297 C10.9912057,12.8007 10.9802057,12.7727 10.9702057,12.7467 C10.9662057,12.7327 10.9612057,12.7207 10.9572057,12.7077 C10.9522057,12.6957 10.9482057,12.6837 10.9452057,12.6717 C10.9412057,12.6607 10.9382057,12.6497 10.9352057,12.6387 C10.9332057,12.6277 10.9302057,12.6177 10.9282057,12.6067 C10.9232057,12.5867 10.9192057,12.5687 10.9172057,12.5527 C10.9142057,12.5357 10.9122057,12.5217 10.9102057,12.5097 L10.9102057,12.5037 C10.9092057,12.4937 10.9092057,12.4847 10.9082057,12.4777 C10.9082057,12.4617 10.9092057,12.4527 10.9122057,12.4527" id="Fill-53" fill="#FFFFFF" transform="translate(14.654503, 13.542679) scale(-1, 1) translate(-14.654503, -13.542679) "></path>
                    <path d="M10.5040199,13.1763 C10.5070199,13.1753 10.5120199,13.1853 10.5200199,13.2043 C10.5220199,13.2113 10.5230199,13.2203 10.5250199,13.2313 C10.5270199,13.2413 10.5300199,13.2533 10.5330199,13.2673 C10.5360199,13.2803 10.5400199,13.2963 10.5450199,13.3133 C10.5490199,13.3303 10.5560199,13.3483 10.5620199,13.3673 C10.5660199,13.3803 10.5710199,13.3923 10.5770199,13.4053 C10.5810199,13.4153 10.5850199,13.4263 10.5890199,13.4383 C10.5990199,13.4593 10.6080199,13.4833 10.6200199,13.5073 C10.6660199,13.6053 10.7370199,13.7183 10.8380199,13.8333 C10.9380199,13.9473 11.0660199,14.0643 11.2220199,14.1753 C11.5380199,14.4053 11.9610199,14.6153 12.4520199,14.7853 C12.9430199,14.9563 13.5030199,15.0893 14.0980199,15.1763 C14.3960199,15.2203 14.6880199,15.2503 14.9710199,15.2703 C15.1190199,15.2803 15.2650199,15.2873 15.4070199,15.2923 C15.5340199,15.2963 15.6600199,15.2993 15.7820199,15.3003 L15.8240199,15.3003 C16.3240199,15.3003 16.7750199,15.2703 17.1530199,15.2283 C17.1930199,15.2243 17.2330199,15.2193 17.2710199,15.2143 C17.6030199,15.1733 17.8720199,15.1253 18.0660199,15.0883 C18.1710199,15.0663 18.2540199,15.0493 18.3120199,15.0383 C18.3650199,15.0273 18.3960199,15.0233 18.4000199,15.0273 C18.4050199,15.0303 18.3860199,15.0433 18.3420199,15.0643 C18.3270199,15.0753 18.3030199,15.0893 18.2680199,15.1033 C18.2330199,15.1163 18.1850199,15.1313 18.1260199,15.1473 C17.9180199,15.2063 17.6010199,15.2773 17.1980199,15.3323 C17.1510199,15.3393 17.1040199,15.3453 17.0550199,15.3513 C16.6910199,15.3973 16.2640199,15.4293 15.7950199,15.4333 L15.7180199,15.4333 C15.5910199,15.4333 15.4610199,15.4303 15.3290199,15.4263 C15.2090199,15.4223 15.0870199,15.4163 14.9630199,15.4083 C14.9500199,15.4073 14.9370199,15.4063 14.9230199,15.4053 C14.6480199,15.3873 14.3630199,15.3573 14.0740199,15.3153 C13.5090199,15.2393 12.9750199,15.1183 12.5030199,14.9573 C12.0350199,14.7993 11.6280199,14.6003 11.3180199,14.3743 C11.1290199,14.2413 10.9710199,14.1003 10.8490199,13.9593 C10.8130199,13.9183 10.7800199,13.8773 10.7510199,13.8363 C10.6800199,13.7393 10.6270199,13.6473 10.5910199,13.5623 C10.5770199,13.5323 10.5660199,13.5033 10.5570199,13.4773 C10.5520199,13.4633 10.5470199,13.4503 10.5430199,13.4383 C10.5390199,13.4253 10.5350199,13.4123 10.5320199,13.4013 C10.5290199,13.3893 10.5260199,13.3773 10.5240199,13.3663 C10.5210199,13.3553 10.5180199,13.3443 10.5160199,13.3333 C10.5120199,13.3143 10.5080199,13.2953 10.5060199,13.2783 C10.5040199,13.2613 10.5020199,13.2463 10.5010199,13.2343 L10.5010199,13.2283 C10.5000199,13.2183 10.5000199,13.2093 10.5000199,13.2013 C10.5000199,13.1853 10.5010199,13.1763 10.5040199,13.1763" id="Fill-55" fill="#FFFFFF" transform="translate(14.450410, 14.304766) scale(-1, 1) translate(-14.450410, -14.304766) "></path>
                    <path d="M10.0961502,13.8999 C10.0991502,13.8989 10.1041502,13.9089 10.1101502,13.9279 C10.1121502,13.9349 10.1141502,13.9449 10.1161502,13.9559 C10.1171502,13.9669 10.1201502,13.9799 10.1231502,13.9949 C10.1261502,14.0089 10.1311502,14.0259 10.1351502,14.0439 C10.1401502,14.0609 10.1461502,14.0809 10.1521502,14.1009 C10.1571502,14.1139 10.1611502,14.1259 10.1671502,14.1389 C10.1711502,14.1499 10.1751502,14.1619 10.1791502,14.1729 C10.1891502,14.1969 10.1981502,14.2209 10.2101502,14.2469 C10.2571502,14.3499 10.3321502,14.4689 10.4381502,14.5909 C10.5431502,14.7119 10.6791502,14.8349 10.8431502,14.9519 C11.1771502,15.1919 11.6231502,15.4099 12.1411502,15.5859 C12.6591502,15.7609 13.2471502,15.8969 13.8731502,15.9829 C14.1861502,16.0269 14.4931502,16.0559 14.7911502,16.0749 C14.9481502,16.0849 15.1011502,16.0899 15.2501502,16.0939 C15.3851502,16.0979 15.5171502,16.0989 15.6461502,16.0989 C15.6601502,16.0989 15.6751502,16.0989 15.6901502,16.0979 C16.2171502,16.0939 16.6911502,16.0569 17.0891502,16.0089 C17.1311502,16.0039 17.1721502,15.9989 17.2121502,15.9929 C17.5621502,15.9459 17.8451502,15.8909 18.0491502,15.8489 C18.1591502,15.8249 18.2471502,15.8049 18.3081502,15.7939 C18.3651502,15.7799 18.3961502,15.7749 18.4011502,15.7799 C18.4061502,15.7839 18.3821502,15.7969 18.3341502,15.8199 C18.3151502,15.8319 18.2871502,15.8459 18.2491502,15.8609 C18.2111502,15.8759 18.1611502,15.8909 18.1001502,15.9079 C17.8811502,15.9729 17.5491502,16.0499 17.1291502,16.1139 C17.0791502,16.1219 17.0301502,16.1289 16.9791502,16.1349 C16.5961502,16.1869 16.1491502,16.2259 15.6581502,16.2329 C15.6301502,16.2339 15.6031502,16.2339 15.5751502,16.2339 C15.4431502,16.2359 15.3071502,16.2339 15.1681502,16.2309 C15.0421502,16.2279 14.9141502,16.2229 14.7841502,16.2149 C14.7701502,16.2139 14.7561502,16.2129 14.7421502,16.2129 C14.4521502,16.1959 14.1551502,16.1669 13.8511502,16.1249 C13.2461502,16.0469 12.6761502,15.9209 12.1721502,15.7499 C11.6721502,15.5819 11.2371502,15.3699 10.9081502,15.1289 C10.7161502,14.9919 10.5561502,14.8469 10.4331502,14.7029 C10.3981502,14.6609 10.3651502,14.6189 10.3351502,14.5769 C10.2641502,14.4769 10.2121502,14.3809 10.1761502,14.2959 C10.1621502,14.2649 10.1531502,14.2349 10.1431502,14.2079 C10.1381502,14.1939 10.1341502,14.1799 10.1301502,14.1679 C10.1261502,14.1539 10.1221502,14.1409 10.1191502,14.1289 C10.1171502,14.1179 10.1141502,14.1059 10.1121502,14.0939 C10.1091502,14.0829 10.1071502,14.0719 10.1051502,14.0609 C10.1011502,14.0409 10.0971502,14.0209 10.0961502,14.0039 C10.0941502,13.9869 10.0921502,13.9719 10.0921502,13.9589 C10.0921502,13.9569 10.0911502,13.9549 10.0911502,13.9529 L10.0911502,13.9259 C10.0921502,13.9089 10.0931502,13.8999 10.0961502,13.8999" id="Fill-57" fill="#FFFFFF" transform="translate(14.246475, 15.067268) scale(-1, 1) translate(-14.246475, -15.067268) "></path>
                    <path d="M9.68941128,14.6236 C9.69241128,14.6226 9.69641128,14.6326 9.70241128,14.6516 C9.70441128,14.6596 9.70541128,14.6696 9.70741128,14.6816 C9.71041128,14.6926 9.71241128,14.7066 9.71541128,14.7226 C9.71741128,14.7376 9.72241128,14.7546 9.72741128,14.7726 C9.73141128,14.7926 9.73741128,14.8126 9.74441128,14.8346 C9.74841128,14.8476 9.75241128,14.8596 9.75741128,14.8726 C9.76141128,14.8846 9.76541128,14.8956 9.77041128,14.9086 C9.78041128,14.9336 9.79041128,14.9596 9.80241128,14.9866 C9.85041128,15.0956 9.92841128,15.2206 10.0404113,15.3486 C10.1504113,15.4766 10.2934113,15.6046 10.4664113,15.7276 C10.8174113,15.9786 11.2874113,16.2046 11.8304113,16.3856 C12.3744113,16.5656 12.9924113,16.7036 13.6494113,16.7906 C13.9784113,16.8336 14.3004113,16.8616 14.6134113,16.8796 C14.7774113,16.8886 14.9384113,16.8936 15.0954113,16.8956 C15.2374113,16.8986 15.3764113,16.8986 15.5104113,16.8976 C15.5264113,16.8976 15.5424113,16.8966 15.5574113,16.8966 C16.1104113,16.8886 16.6084113,16.8456 17.0264113,16.7896 C17.0704113,16.7836 17.1134113,16.7776 17.1564113,16.7716 C17.5234113,16.7186 17.8204113,16.6576 18.0334113,16.6106 C18.1504113,16.5826 18.2414113,16.5616 18.3044113,16.5476 C18.3654113,16.5336 18.3984113,16.5276 18.4024113,16.5326 C18.4064113,16.5376 18.3794113,16.5516 18.3274113,16.5746 C18.3044113,16.5876 18.2724113,16.6026 18.2314113,16.6176 C18.1904113,16.6336 18.1384113,16.6506 18.0764113,16.6686 C17.8444113,16.7386 17.4994113,16.8246 17.0604113,16.8946 C17.0094113,16.9026 16.9574113,16.9116 16.9034113,16.9196 C16.5024113,16.9776 16.0354113,17.0216 15.5204113,17.0336 C15.4924113,17.0346 15.4634113,17.0346 15.4354113,17.0356 C15.2954113,17.0376 15.1544113,17.0376 15.0084113,17.0356 C14.8764113,17.0326 14.7434113,17.0286 14.6064113,17.0216 C14.5914113,17.0216 14.5774113,17.0206 14.5624113,17.0196 C14.2594113,17.0046 13.9464113,16.9766 13.6274113,16.9346 C12.9854113,16.8546 12.3784113,16.7216 11.8424113,16.5416 C11.3104113,16.3646 10.8474113,16.1396 10.5004113,15.8826 C10.3044113,15.7426 10.1424113,15.5936 10.0194113,15.4456 C9.98341128,15.4026 9.95041128,15.3596 9.92041128,15.3166 C9.84941128,15.2156 9.79741128,15.1166 9.76241128,15.0276 C9.74941128,14.9966 9.74041128,14.9666 9.73041128,14.9376 C9.72641128,14.9246 9.72141128,14.9106 9.71841128,14.8966 C9.71441128,14.8836 9.71041128,14.8706 9.70841128,14.8576 C9.70641128,14.8456 9.70341128,14.8336 9.70141128,14.8226 C9.69841128,14.8106 9.69641128,14.7996 9.69441128,14.7886 C9.69141128,14.7676 9.68841128,14.7476 9.68641128,14.7296 C9.68541128,14.7126 9.68441128,14.6966 9.68341128,14.6836 L9.68341128,14.6776 C9.68341128,14.6666 9.68341128,14.6576 9.68441128,14.6496 C9.68441128,14.6326 9.68641128,14.6236 9.68941128,14.6236" id="Fill-59" fill="#FFFFFF" transform="translate(14.043106, 15.830316) scale(-1, 1) translate(-14.043106, -15.830316) "></path>
                    <path d="M9.28258226,15.3472 C9.28558226,15.3462 9.28958226,15.3562 9.29358226,15.3742 C9.29558226,15.3832 9.29758226,15.3942 9.29958226,15.4062 C9.30158226,15.4182 9.30358226,15.4332 9.30658226,15.4492 C9.30958226,15.4652 9.31358226,15.4842 9.31858226,15.5032 C9.32258226,15.5232 9.32858226,15.5442 9.33558226,15.5682 C9.33958226,15.5802 9.34358226,15.5932 9.34758226,15.6062 C9.35258226,15.6182 9.35658226,15.6312 9.36058226,15.6442 C9.37158226,15.6702 9.38158226,15.6982 9.39358226,15.7262 C9.44358226,15.8402 9.52458226,15.9722 9.64058226,16.1062 C9.75658226,16.2402 9.90758226,16.3752 10.0905823,16.5042 C10.4575823,16.7652 10.9495823,16.9982 11.5195823,17.1852 C12.0895823,17.3702 12.7375823,17.5112 13.4265823,17.5972 C13.7695823,17.6402 14.1075823,17.6682 14.4345823,17.6842 C14.6065823,17.6922 14.7755823,17.6972 14.9405823,17.6992 C15.0885823,17.7002 15.2335823,17.7002 15.3755823,17.6972 C15.3915823,17.6972 15.4075823,17.6962 15.4245823,17.6962 C16.0045823,17.6822 16.5255823,17.6322 16.9635823,17.5712 C17.0095823,17.5642 17.0545823,17.5572 17.0985823,17.5502 C17.4835823,17.4912 17.7955823,17.4232 18.0175823,17.3712 C18.1395823,17.3412 18.2355823,17.3182 18.3025823,17.3022 C18.3655823,17.2862 18.4005823,17.2812 18.4035823,17.2852 C18.4065823,17.2902 18.3785823,17.3052 18.3195823,17.3302 C18.2935823,17.3432 18.2585823,17.3602 18.2145823,17.3752 C18.1695823,17.3912 18.1155823,17.4102 18.0525823,17.4292 C17.8085823,17.5052 17.4475823,17.5982 16.9925823,17.6762 C16.9385823,17.6852 16.8845823,17.6942 16.8285823,17.7022 C16.4095823,17.7672 15.9215823,17.8182 15.3845823,17.8342 C15.3545823,17.8352 15.3245823,17.8362 15.2955823,17.8362 C15.1495823,17.8402 15.0005823,17.8412 14.8485823,17.8392 C14.7115823,17.8382 14.5705823,17.8352 14.4285823,17.8292 L14.3825823,17.8262 C14.0655823,17.8122 13.7385823,17.7852 13.4055823,17.7432 C12.7235823,17.6612 12.0815823,17.5232 11.5135823,17.3342 C10.9485823,17.1472 10.4585823,16.9082 10.0915823,16.6362 C9.89258226,16.4932 9.72958226,16.3402 9.60558226,16.1892 C9.56858226,16.1452 9.53658226,16.1012 9.50658226,16.0572 C9.43458226,15.9522 9.38358226,15.8522 9.34858226,15.7612 C9.33658226,15.7292 9.32758226,15.6982 9.31758226,15.6692 C9.31358226,15.6552 9.30958226,15.6402 9.30558226,15.6262 C9.30258226,15.6132 9.29958226,15.6002 9.29758226,15.5862 C9.29458226,15.5742 9.29258226,15.5622 9.28958226,15.5502 C9.28758226,15.5382 9.28558226,15.5272 9.28458226,15.5152 C9.28158226,15.4932 9.27858226,15.4732 9.27758226,15.4552 C9.27658226,15.4382 9.27558226,15.4212 9.27558226,15.4092 L9.27558226,15.4022 C9.27558226,15.3912 9.27558226,15.3822 9.27658226,15.3742 C9.27758226,15.3562 9.27958226,15.3472 9.28258226,15.3472" id="Fill-61" fill="#FFFFFF" transform="translate(13.839691, 16.593666) scale(-1, 1) translate(-13.839691, -16.593666) "></path>
                    <path d="M8.87660683,16.0699 C8.87960683,16.0699 8.88260683,16.0799 8.88660683,16.0979 C8.88860683,16.1069 8.88960683,16.1189 8.89160683,16.1319 C8.89460683,16.1439 8.89660683,16.1599 8.89860683,16.1759 C8.90160683,16.1939 8.90560683,16.2129 8.91060683,16.2329 C8.91460683,16.2549 8.92160683,16.2769 8.92760683,16.3009 C8.93160683,16.3139 8.93560683,16.3269 8.93960683,16.3409 C8.94360683,16.3529 8.94860683,16.3659 8.95260683,16.3799 C8.96360683,16.4069 8.97360683,16.4359 8.98660683,16.4659 C9.03760683,16.5859 9.12160683,16.7229 9.24260683,16.8639 C9.36360683,17.0049 9.52260683,17.1459 9.71460683,17.2809 C10.0996068,17.5519 10.6136068,17.7939 11.2096068,17.9849 C11.8066068,18.1759 12.4836068,18.3189 13.2026068,18.4039 C13.5626068,18.4469 13.9156068,18.4739 14.2576068,18.4889 C14.4376068,18.4959 14.6126068,18.4999 14.7856068,18.5009 C14.9406068,18.5009 15.0926068,18.4999 15.2406068,18.4959 C15.2586068,18.4949 15.2746068,18.4949 15.2916068,18.4939 C15.8986068,18.4759 16.4436068,18.4199 16.9006068,18.3509 C16.9486068,18.3439 16.9966068,18.3369 17.0426068,18.3289 C17.4456068,18.2629 17.7716068,18.1899 18.0026068,18.1329 C18.1316068,18.0999 18.2306068,18.0749 18.2996068,18.0569 C18.3666068,18.0399 18.4036068,18.0339 18.4056068,18.0389 C18.4086068,18.0439 18.3766068,18.0589 18.3136068,18.0859 C18.2826068,18.0989 18.2446068,18.1159 18.1966068,18.1329 C18.1486068,18.1499 18.0936068,18.1699 18.0276068,18.1899 C17.7736068,18.2719 17.3976068,18.3729 16.9246068,18.4579 C16.8686068,18.4669 16.8126068,18.4769 16.7536068,18.4869 C16.3166068,18.5569 15.8086068,18.6139 15.2476068,18.6349 C15.2176068,18.6359 15.1866068,18.6369 15.1546068,18.6379 C15.0036068,18.6419 14.8486068,18.6449 14.6896068,18.6439 C14.5466068,18.6439 14.3996068,18.6409 14.2516068,18.6359 C14.2356068,18.6349 14.2196068,18.6339 14.2036068,18.6339 C13.8726068,18.6209 13.5316068,18.5949 13.1846068,18.5529 C12.4646068,18.4689 11.7836068,18.3249 11.1856068,18.1269 C10.5876068,17.9289 10.0696068,17.6769 9.68360683,17.3899 C9.48260683,17.2439 9.31660683,17.0879 9.19160683,16.9319 C9.15560683,16.8869 9.12260683,16.8409 9.09260683,16.7979 C9.02160683,16.6899 8.97060683,16.5869 8.93660683,16.4939 C8.92360683,16.4619 8.91560683,16.4289 8.90560683,16.3999 C8.90160683,16.3849 8.89760683,16.3709 8.89560683,16.3559 C8.89160683,16.3419 8.88860683,16.3289 8.88660683,16.3149 C8.88360683,16.3019 8.88160683,16.2909 8.87960683,16.2779 C8.87760683,16.2659 8.87560683,16.2539 8.87460683,16.2429 C8.87160683,16.2199 8.86960683,16.1999 8.86960683,16.1809 C8.86860683,16.1629 8.86760683,16.1469 8.86760683,16.1329 L8.86760683,16.1269 C8.86860683,16.1159 8.86960683,16.1059 8.86960683,16.0979 C8.87160683,16.0799 8.87360683,16.0709 8.87660683,16.0699" id="Fill-63" fill="#FFFFFF" transform="translate(13.636703, 17.356997) scale(-1, 1) translate(-13.636703, -17.356997) "></path>
                    <path d="M8.4692236,16.7935 C8.4712236,16.7935 8.4742236,16.8035 8.4782236,16.8215 C8.4792236,16.8315 8.4812236,16.8435 8.4832236,16.8565 C8.4852236,16.8705 8.4882236,16.8865 8.4902236,16.9035 C8.4922236,16.9215 8.4972236,16.9415 8.5012236,16.9635 C8.5052236,16.9845 8.5122236,17.0095 8.5192236,17.0345 C8.5222236,17.0475 8.5262236,17.0605 8.5302236,17.0735 C8.5342236,17.0875 8.5382236,17.1015 8.5432236,17.1155 C8.5542236,17.1445 8.5642236,17.1745 8.5782236,17.2055 C8.6302236,17.3305 8.7172236,17.4755 8.8432236,17.6215 C8.9702236,17.7685 9.1362236,17.9165 9.3362236,18.0575 C9.7392236,18.3385 10.2772236,18.5885 10.8992236,18.7835 C11.5212236,18.9815 12.2282236,19.1255 12.9792236,19.2115 C13.3542236,19.2545 13.7222236,19.2795 14.0772236,19.2925 C14.4342236,19.3055 14.7782236,19.3045 15.1052236,19.2945 C15.7602236,19.2725 16.3472236,19.2095 16.8372236,19.1325 C17.3262236,19.0535 17.7182236,18.9635 17.9872236,18.8945 C18.1202236,18.8575 18.2252236,18.8305 18.2962236,18.8125 C18.3662236,18.7935 18.4052236,18.7855 18.4072236,18.7915 C18.4082236,18.7965 18.3732236,18.8135 18.3062236,18.8415 C18.2722236,18.8555 18.2302236,18.8725 18.1792236,18.8905 C18.1282236,18.9075 18.0702236,18.9285 18.0032236,18.9505 C17.7382236,19.0385 17.3472236,19.1465 16.8562236,19.2385 C16.3642236,19.3305 15.7722236,19.4055 15.1112236,19.4355 C14.7812236,19.4495 14.4332236,19.4535 14.0732236,19.4425 C13.7132236,19.4325 13.3412236,19.4065 12.9612236,19.3635 C12.2022236,19.2765 11.4862236,19.1255 10.8552236,18.9185 C10.2252236,18.7115 9.6792236,18.4465 9.2742236,18.1455 C9.0712236,17.9935 8.9032236,17.8345 8.7782236,17.6765 C8.6522236,17.5175 8.5692236,17.3615 8.5232236,17.2275 C8.5102236,17.1935 8.5012236,17.1605 8.4922236,17.1305 C8.4892236,17.1145 8.4862236,17.1005 8.4832236,17.0855 C8.4792236,17.0715 8.4762236,17.0585 8.4742236,17.0445 C8.4702236,17.0175 8.4652236,16.9925 8.4642236,16.9695 C8.4612236,16.9465 8.4592236,16.9255 8.4592236,16.9065 C8.4592236,16.8885 8.4582236,16.8715 8.4592236,16.8575 C8.4602236,16.8435 8.4612236,16.8315 8.4622236,16.8225 C8.4642236,16.8035 8.4662236,16.7935 8.4692236,16.7935" id="Fill-65" fill="#FFFFFF" transform="translate(13.433012, 18.121161) scale(-1, 1) translate(-13.433012, -18.121161) "></path>
                    <path d="M41.439946,13.7134 C42.012946,13.7794 42.644946,13.8554 43.329946,13.9414 C44.012946,14.0274 44.748946,14.1254 45.526946,14.2354 C47.081946,14.4574 48.812946,14.7314 50.586946,15.1014 C51.472946,15.2864 52.367946,15.4964 53.219946,15.7464 C54.070946,15.9954 54.885946,16.2834 55.553946,16.6234 C55.886946,16.7934 56.179946,16.9774 56.414946,17.1714 C56.646946,17.3654 56.814946,17.5714 56.909946,17.7834 C57.003946,17.9964 57.024946,18.2144 56.970946,18.4324 C56.917946,18.6494 56.793946,18.8654 56.611946,19.0784 C56.428946,19.2904 56.189946,19.4974 55.909946,19.6994 C55.769946,19.8014 55.617946,19.9004 55.455946,19.9984 C55.293946,20.0974 55.125946,20.1934 54.946946,20.2894 C54.857946,20.3364 54.766946,20.3844 54.673946,20.4314 L54.530946,20.5034 L54.387946,20.5714 C54.297946,20.6154 54.188946,20.6634 54.086946,20.7104 C53.982946,20.7564 53.876946,20.8014 53.769946,20.8464 C53.335946,21.0244 52.861946,21.1944 52.346946,21.3524 C51.317946,21.6674 50.129946,21.9334 48.850946,22.1384 C47.570946,22.3434 46.204946,22.4864 44.819946,22.5844 C44.126946,22.6334 43.426946,22.6704 42.726946,22.6984 C42.026946,22.7264 41.325946,22.7444 40.624946,22.7554 C39.223946,22.7764 37.830946,22.7684 36.454946,22.7374 C35.079946,22.7084 33.721946,22.6584 32.388946,22.5984 C31.054946,22.5374 29.683146,22.4974 28.400146,22.4204 C27.117146,22.3424 25.923946,22.2234 24.698946,22.1364 C23.473946,22.0494 22.278946,21.9604 21.116946,21.8714 C20.535946,21.8274 19.965146,21.7944 19.400146,21.7514 C18.837146,21.7074 18.281946,21.6534 17.735946,21.6114 C16.644946,21.5274 15.590946,21.4464 14.577946,21.3724 C14.070946,21.3344 13.386146,21.2689 12.900146,21.2349 C12.415146,21.1999 12.128946,21.1954 11.665946,21.1644 C10.738946,21.1014 9.85794601,21.0454 9.02794601,20.9974 C8.19794601,20.9504 7.41894601,20.9094 6.69594601,20.8774 C5.97394601,20.8444 5.30794601,20.8194 4.70494601,20.8024 C4.10294601,20.7844 3.56394601,20.7734 3.09294601,20.7664 C2.62394601,20.7604 2.22394601,20.7594 1.89894601,20.7594 C1.57494601,20.7604 1.32594601,20.7634 1.15794601,20.7654 C0.99094601,20.7684 0.90394601,20.7694 0.90394601,20.7694 L0.89994601,20.7524 C0.89994601,20.7524 0.98694601,20.7504 1.15494601,20.7464 C1.32194601,20.7424 1.57194601,20.7374 1.89694601,20.7344 C2.54694601,20.7294 3.50294601,20.7294 4.71494601,20.7574 C5.92594601,20.7854 7.39294601,20.8404 9.06294601,20.9284 C10.731946,21.0154 12.605946,21.1344 14.640946,21.2754 C16.675946,21.4174 18.872946,21.5814 21.198946,21.7514 C23.525946,21.9204 25.982946,22.0944 28.541946,22.2444 C29.820946,22.3194 31.125946,22.3894 32.450946,22.4464 C33.776946,22.5044 35.123946,22.5514 36.484946,22.5774 C37.845946,22.6054 39.222946,22.6124 40.600946,22.5914 C41.289946,22.5804 41.978946,22.5614 42.664946,22.5334 C43.350946,22.5064 44.034946,22.4694 44.710946,22.4204 C45.385946,22.3734 46.053946,22.3134 46.709946,22.2414 C47.035946,22.2044 47.360946,22.1664 47.678946,22.1234 C47.998946,22.0814 48.312946,22.0344 48.622946,21.9854 C49.859946,21.7884 51.004946,21.5334 51.998946,21.2314 C52.495946,21.0794 52.952946,20.9154 53.374946,20.7434 C53.793946,20.5714 54.169946,20.3894 54.518946,20.2034 C55.215946,19.8324 55.791946,19.4424 56.150946,19.0344 C56.328946,18.8314 56.451946,18.6254 56.505946,18.4184 C56.561946,18.2124 56.546946,18.0054 56.460946,17.8044 C56.375946,17.6034 56.219946,17.4074 56.002946,17.2224 C55.787946,17.0364 55.512946,16.8604 55.198946,16.6964 C54.568946,16.3674 53.786946,16.0844 52.962946,15.8384 C52.136946,15.5914 51.266946,15.3804 50.401946,15.1924 C49.535946,15.0054 48.671946,14.8424 47.836946,14.6964 C47.001946,14.5514 46.192946,14.4234 45.424946,14.3084" id="Fill-67" fill="#51381F" transform="translate(28.950073, 18.240254) scale(-1, 1) translate(-28.950073, -18.240254) "></path>
                </g>
            </g>
        </g>
    </g>
</svg>