<?xml version="1.0" encoding="UTF-8"?>
<svg width="27px" height="27px" viewBox="0 0 27 27" version="1.1" xmlns="http://www.w3.org/2000/svg" xmlns:xlink="http://www.w3.org/1999/xlink">
    <!-- Generator: Sketch 53 (72520) - https://sketchapp.com -->
    <title>Shape</title>
    <desc>Created with Sketch.</desc>
    <g id="Julia-Allert-Site" stroke="none" stroke-width="1" fill="none" fill-rule="evenodd">
        <g id="Contact_1440" transform="translate(-282.000000, -607.000000)" fill="#000000" fill-rule="nonzero">
            <g id="Adres" transform="translate(282.000000, 554.000000)">
                <g id="Group-7" transform="translate(0.000000, 53.000000)">
                    <g id="address">
                        <path d="M10.7841797,24.2434609 L10.7841797,26.9847192 L10.1229401,26.4492704 C10.0207672,26.3664648 7.58983611,24.3880094 5.12471011,21.5509361 C1.72416684,17.6371834 0,14.1240364 0,11.109375 L0,10.8105727 C0,4.84960076 4.83776091,0 10.7841797,0 C16.7305985,0 21.5683594,4.84960076 21.5683594,10.8105727 L21.5683594,11.109375 C21.5683594,11.3625413 21.5549698,11.6196311 21.5306625,11.8798183 L19.4216995,9.95112888 C18.9897308,5.55520377 15.2810211,2.10937501 10.7841797,2.10937501 C5.9981232,2.10937501 2.10422517,6.01280289 2.10422517,10.8105727 L2.10422517,11.109375 C2.10422517,16.2036756 8.65193938,22.3707324 10.7841797,24.2434609 Z M17.2546463,22.7283865 L20.410881,22.7283865 L20.410881,19.5644273 L17.2546463,19.5644273 L17.2546463,22.7283865 Z M10.7841797,6.32812499 C13.2497177,6.32812499 15.2556839,8.33900056 15.2556839,10.8105727 C15.2556839,13.2821448 13.2497177,15.2930204 10.7841797,15.2930204 C8.31864168,15.2930204 6.31267546,13.2821448 6.31267546,10.8105727 C6.31267546,8.33900056 8.31864168,6.32812499 10.7841797,6.32812499 Z M10.7841797,7.81057269 C9.12989847,7.81057269 7.78417969,9.15629146 7.78417969,10.8105727 C7.78417969,12.4645929 9.12989847,13.8105727 10.7841797,13.8105727 C12.4381999,13.8105727 13.7841797,12.4645929 13.7841797,10.8105727 C13.7841797,9.15629146 12.4381999,7.81057269 10.7841797,7.81057269 Z M25.5819397,21.2950853 L24.9903259,20.7540611 L24.9903259,24.1404185 C24.9903259,25.7172357 23.7104874,27 22.1375198,27 L15.4754792,27 C13.9025116,27 12.622673,25.7172357 12.622673,24.1404185 L12.622673,20.7540611 L12.0310593,21.2950853 L10.6129989,19.736853 L18.8063965,12.2436674 L27,19.736853 L25.5819397,21.2950853 Z M23.4044096,18.4628127 L18.726772,13.890625 L13.9578153,18.4628127 L13.9578153,24.9709743 C13.9578153,25.4781234 14.3693379,25.890625 14.8752835,25.890625 L22.4869414,25.890625 C22.992887,25.890625 23.4044096,25.4781234 23.4044096,24.9709743 L23.4044096,18.4628127 Z" id="Shape"></path>
                    </g>
                </g>
            </g>
        </g>
    </g>
</svg>