<?xml version="1.0" encoding="UTF-8"?>
<svg width="10px" height="9px" viewBox="0 0 10 9" version="1.1" xmlns="http://www.w3.org/2000/svg" xmlns:xlink="http://www.w3.org/1999/xlink">
    <!-- Generator: Sketch 52.2 (67145) - http://www.bohemiancoding.com/sketch -->
    <title>noun_profile_1229679</title>
    <desc>Created with Sketch.</desc>
    <g id="Work-Home-page" stroke="none" stroke-width="1" fill="none" fill-rule="evenodd">
        <g id="Help-Desk-Estel" transform="translate(-1553.000000, -763.000000)" fill="#51381F" fill-rule="nonzero">
            <g id="noun_profile_1229679" transform="translate(1553.000000, 763.000000)">
                <g id="Group">
                    <path d="M0.80952381,9 L9.19047619,9 C9.63095238,9 10,8.66385542 10,8.25180723 L10,7.06987952 C10,6.80963855 9.85714286,6.57108434 9.61904762,6.44096386 C8.25,5.64939759 6.66666667,5.22650602 5.03571429,5.22650602 L4.97619048,5.22650602 C3.3452381,5.22650602 1.76190476,5.64939759 0.380952381,6.44096386 C0.142857143,6.58192771 0,6.80963855 0,7.06987952 L0,8.25180723 C4.22942105e-16,8.66385542 0.357142857,9 0.80952381,9 Z" id="Shape"></path>
                    <path d="M4.77380952,4.55421687 L5.21428571,4.55421687 C6.1547619,4.55421687 6.9047619,3.87108434 6.9047619,3.0253012 L6.9047619,1.52891566 C6.9047619,0.68313253 6.1547619,0 5.22619048,0 L4.78571429,0 C3.8452381,0 3.0952381,0.68313253 3.0952381,1.52891566 L3.0952381,3.01445783 C3.0952381,3.87108434 3.8452381,4.55421687 4.77380952,4.55421687 Z" id="Shape"></path>
                </g>
            </g>
        </g>
    </g>
</svg>