<?xml version="1.0" encoding="UTF-8"?>
<svg width="16px" height="22px" viewBox="0 0 16 22" version="1.1" xmlns="http://www.w3.org/2000/svg" xmlns:xlink="http://www.w3.org/1999/xlink">
    <!-- Generator: Sketch 52.2 (67145) - http://www.bohemiancoding.com/sketch -->
    <title>Shape</title>
    <desc>Created with Sketch.</desc>
    <g id="Work-Home-page" stroke="none" stroke-width="1" fill="none" fill-rule="evenodd">
        <g id="Vintage" transform="translate(-31.000000, -359.000000)" fill="#333333" fill-rule="nonzero">
            <g id="Social-Icon" transform="translate(22.000000, 354.000000)">
                <g id="if_pinterest_online_social_media_734372">
                    <path d="M25.002,12.466 C25.002,17.124 22.412,20.605 18.595,20.605 C17.312,20.605 16.107,19.912 15.694,19.124 C15.694,19.124 15.004,21.86 14.859,22.388 C14.345,24.254 12.832,26.121 12.715,26.274 C12.633,26.38 12.452,26.347 12.433,26.206 C12.4,25.968 12.015,23.614 12.469,21.693 C12.697,20.729 13.996,15.222 13.996,15.222 C13.996,15.222 13.617,14.464 13.617,13.343 C13.617,11.583 14.637,10.269 15.907,10.269 C16.987,10.269 17.508,11.079 17.508,12.051 C17.508,13.137 16.817,14.761 16.46,16.265 C16.162,17.525 17.092,18.553 18.334,18.553 C20.584,18.553 22.099,15.663 22.099,12.239 C22.099,9.637 20.347,7.688 17.158,7.688 C13.557,7.688 11.312,10.374 11.312,13.375 C11.312,14.41 11.618,15.14 12.096,15.704 C12.315,15.964 12.346,16.068 12.266,16.366 C12.208,16.585 12.079,17.11 12.023,17.319 C11.944,17.62 11.7,17.727 11.429,17.616 C9.77,16.939 8.997,15.121 8.997,13.079 C8.997,9.706 11.842,5.661 17.484,5.661 C22.019,5.663 25.002,8.943 25.002,12.466 Z" id="Shape"></path>
                </g>
            </g>
        </g>
    </g>
</svg>