<?xml version="1.0" encoding="UTF-8"?>
<svg width="19px" height="19px" viewBox="0 0 19 19" version="1.1" xmlns="http://www.w3.org/2000/svg" xmlns:xlink="http://www.w3.org/1999/xlink">
    <!-- Generator: Sketch 53 (72520) - https://sketchapp.com -->
    <title>Shape</title>
    <desc>Created with Sketch.</desc>
    <g id="Julia-Allert-Site" stroke="none" stroke-width="1" fill="none" fill-rule="evenodd">
        <g id="Contact_1440" transform="translate(-276.000000, -383.000000)" fill="#000000" fill-rule="nonzero">
            <g id="Contact" transform="translate(276.000000, 323.000000)">
                <g id="Group-4" transform="translate(0.000000, 54.000000)">
                    <g id="phone-call" transform="translate(0.000000, 6.000000)">
                        <path d="M18.9870269,15.6381767 C18.9266218,15.1816115 18.6630472,14.7879543 18.2639714,14.5581944 L13.576586,11.8593878 C13.0024914,11.5288438 12.2741834,11.6250729 11.8055925,12.0936206 L10.8823221,13.0168868 C10.6366392,13.2626097 10.2479456,13.2843587 9.97837971,13.067402 C9.25052304,12.4817379 8.53386922,11.8371874 7.84836176,11.151642 C7.16285431,10.4661376 6.51830085,9.74952808 5.93259311,9.02163366 C5.71563544,8.75202794 5.73734351,8.36337713 5.9831085,8.11765429 L6.90633787,7.19438806 C7.37488766,6.72588143 7.47124033,5.99765873 7.14061276,5.42344368 L4.44179393,0.736079396 C4.21199197,0.33696444 3.81837405,0.0734320273 3.3618068,0.0130272138 C2.90519851,-0.0475007073 2.45655122,0.104783439 2.13088901,0.430444172 L0.739725403,1.82164253 C-0.231228911,2.79263349 -0.246822616,4.5687484 0.695816814,6.82289025 C1.6022214,8.99032329 3.29372796,11.3763134 5.4586676,13.5413253 C7.62368931,15.7062962 10.0096902,17.3977952 12.1771741,18.3041956 C13.2867482,18.7681883 14.2803955,19.000041 15.1193368,19 C15.9847053,19 16.6853961,18.7532513 17.1784444,18.2602462 L18.569608,16.8690479 C18.8952292,16.5433871 19.0473909,16.0947419 18.9870269,15.6381767 L18.9870269,15.6381767 Z M13.2021675,12.11179 L17.5990418,14.7721996 C17.8164874,14.9037496 17.9600654,15.1291484 17.9929382,15.3905495 C18.020576,15.6099209 17.9663397,15.8259349 17.8433938,16 L12,12.4953158 L12.2373079,12.245929 C12.4925534,11.9776915 12.8894138,11.9225553 13.2021675,12.11179 L13.2021675,12.11179 Z M3.60851698,1.00710553 C3.87002673,1.04012306 4.09544385,1.18416446 4.22702821,1.40231187 L6.88813174,5.81337693 C7.07749669,6.12721726 7.0223057,6.52528126 6.75399823,6.78131195 L6.52485855,7 L3,1.15713256 C3.1440873,1.05529954 3.3164175,1 3.49607142,1 C3.53333747,1 3.57092722,1.00235564 3.60851698,1.00710553 Z M16.9777336,17.448905 C16.2133515,18.2132347 14.6500239,18.1811945 12.6886061,17.3609978 C10.6123561,16.492822 8.31770544,14.8634881 6.22722342,12.7731899 C4.13674141,10.6828511 2.50729586,8.38831699 1.63906066,6.31224989 C0.818767062,4.35092576 0.786765325,2.78770525 1.55114737,2.0233349 L2.57451171,1 L6.12215037,7.16131534 L5.88423148,7.39921794 C5.42006396,7.86339433 5.37964499,8.59820473 5.79025941,9.10857106 C6.38430438,9.84679692 7.03779857,10.5733127 7.73248433,11.2679508 C8.42725141,11.9626297 9.15381692,12.6160791 9.89205269,13.2100834 C10.4023727,13.6206697 11.1372334,13.5802941 11.6015229,13.1160771 L11.8185817,12.8990331 L18,16.426668 L16.9777336,17.448905 Z" id="Shape"></path>
                    </g>
                </g>
            </g>
        </g>
    </g>
</svg>