<?xml version="1.0" encoding="UTF-8"?>
<svg width="20px" height="20px" viewBox="0 0 20 20" version="1.1" xmlns="http://www.w3.org/2000/svg" xmlns:xlink="http://www.w3.org/1999/xlink">
    <!-- Generator: Sketch 52.2 (67145) - http://www.bohemiancoding.com/sketch -->
    <title>Shape</title>
    <desc>Created with Sketch.</desc>
    <g id="Pagini-tehnice" stroke="none" stroke-width="1" fill="none" fill-rule="evenodd">
        <g id="cart-logged-user--copy" transform="translate(-695.000000, -350.000000)" fill="#000000" fill-rule="nonzero">
            <path d="M705,350 C704.6318,350 704.333333,350.298476 704.333333,350.666666 L704.333333,359.33334 L695.666667,359.33334 C695.298467,359.33334 695,359.631807 695,360.000007 C695,360.368206 695.298467,360.666673 695.666667,360.666673 L704.333333,360.666673 L704.333333,369.333334 C704.333333,369.701534 704.6318,370 705,370 C705.3682,370 705.666667,369.701534 705.666667,369.333334 L705.666667,360.666673 L714.333333,360.666673 C714.701533,360.666673 715,360.368206 715,360.000007 C715,359.631807 714.701533,359.33334 714.333333,359.33334 L705.666667,359.33334 L705.666667,350.666666 C705.666667,350.298476 705.3682,350 705,350 Z" id="Shape"></path>
        </g>
    </g>
</svg>