<?xml version="1.0" encoding="UTF-8"?>
<svg width="72px" height="14px" viewBox="0 0 72 14" version="1.1" xmlns="http://www.w3.org/2000/svg" xmlns:xlink="http://www.w3.org/1999/xlink">
    <!-- Generator: Sketch 52.2 (67145) - http://www.bohemiancoding.com/sketch -->
    <title>Fill 1</title>
    <desc>Created with Sketch.</desc>
    <g id="Work-Home-page" stroke="none" stroke-width="1" fill="none" fill-rule="evenodd">
        <g id="COLLECTION_ONE_Bussines-VAR-2-Copy" transform="translate(-1243.000000, -2018.000000)" fill="#7F3434">
            <g id="Group-4" transform="translate(943.000000, 1298.000000)">
                <path d="M355.889066,710.786101 C355.83363,710.730136 361.437702,704.702518 362.290315,703.849188 C362.340208,703.799318 362.545323,703.708444 362.757644,703.920668 C362.96165,704.124581 362.87905,704.337913 362.829157,704.387783 C361.966012,705.249426 355.944503,710.841512 355.889066,710.786101 M363.171273,703.493473 C363.104369,703.329224 363.000637,703.175774 362.858236,703.04392 C362.716448,702.912067 362.550109,702.816019 362.373335,702.754639 C361.883524,702.583002 361.309622,702.678482 360.91495,703.04392 C354.185878,709.278544 309.060646,752.48613 309.260745,752.671407 C309.460229,752.856115 356.053666,711.140405 362.858236,704.843834 C363.252908,704.478395 363.356026,703.946435 363.171273,703.493473" id="Fill-1" transform="translate(336.260081, 727.672018) rotate(33.000000) translate(-336.260081, -727.672018) "></path>
            </g>
        </g>
    </g>
</svg>