<?xml version="1.0" encoding="UTF-8"?>
<svg width="19px" height="16px" viewBox="0 0 19 16" version="1.1" xmlns="http://www.w3.org/2000/svg" xmlns:xlink="http://www.w3.org/1999/xlink">
    <!-- Generator: Sketch 52.2 (67145) - http://www.bohemiancoding.com/sketch -->
    <title>Arrow</title>
    <desc>Created with Sketch.</desc>
    <defs>
        <polygon id="path-1" points="0.242305934 0.0454712875 17.5364236 0.0454712875 17.5364236 1.31213795 0.242305934 1.31213795"></polygon>
        <polygon id="path-3" points="0.229353006 0.825770132 17.5234707 0.825770132 17.5234707 2.0924368 0.229353006 2.0924368"></polygon>
    </defs>
    <g id="Work-Home-page" stroke="none" stroke-width="1" fill="none" fill-rule="evenodd">
        <g id="Help-Desk-Estel" transform="translate(-2896.000000, -1100.000000)">
            <g id="Wish-List-Copy-6" transform="translate(2728.000000, 1032.000000)">
                <g id="Group-3">
                    <g id="Arrow" transform="translate(167.000000, 68.000000)">
                        <g id="Group-3" transform="translate(5.966234, 8.764666) rotate(60.000000) translate(-5.966234, -8.764666) translate(-3.033766, 7.764666)">
                            <mask id="mask-2" fill="white">
                                <use xlink:href="#path-1"></use>
                            </mask>
                            <g id="Clip-2"></g>
                            <path d="M9.36213164,0.580560171 C5.94046399,0.491145109 3.16625127,0.387434849 3.16625127,0.350996109 C3.16625127,0.314557368 5.94046399,0.359405049 9.36213164,0.448820111 C12.7824129,0.538795769 15.558012,0.64250603 15.558012,0.67894477 C15.5552392,0.715103212 12.7824129,0.670255532 9.36213164,0.580560171 M0.57920433,0.872350391 C0.562567372,0.872350391 0.509883672,0.832828372 0.509883672,0.67894477 C0.509883672,0.530106531 0.562567372,0.485258851 0.57920433,0.485258851 C0.888374462,0.485258851 2.96244854,0.63970305 2.96244854,0.67894477 C2.96244854,0.717906192 0.884215223,0.872350391 0.57920433,0.872350391 M0.555635306,0.0454712875 C0.430858122,0.0454712875 0.31994507,0.199635188 0.270034197,0.418267629 C0.254783652,0.499554049 0.242305934,0.586446429 0.242305934,0.67894477 C0.242305934,0.77144311 0.254783652,0.858055192 0.270034197,0.939341613 C0.31994507,1.15825435 0.430858122,1.31213795 0.555635306,1.31213795 C2.72814471,1.31213795 17.5364236,0.810404532 17.5364236,0.67894477 C17.5364236,0.550007689 2.75310015,0.0454712875 0.555635306,0.0454712875" id="Fill-1" fill="#51381F" mask="url(#mask-2)"></path>
                        </g>
                        <g id="Group-3-Copy" transform="translate(14.801280, 8.614025) scale(-1, 1) rotate(60.000000) translate(-14.801280, -8.614025) translate(5.801280, 7.114025)">
                            <mask id="mask-4" fill="white">
                                <use xlink:href="#path-3"></use>
                            </mask>
                            <g id="Clip-2"></g>
                            <path d="M9.34917871,1.36085902 C5.92751106,1.27144395 3.15329834,1.16773369 3.15329834,1.13129495 C3.15329834,1.09485621 5.92751106,1.13970389 9.34917871,1.22911896 C12.76946,1.31909461 15.5450591,1.42280487 15.5450591,1.45924361 C15.5422863,1.49540206 12.76946,1.45055438 9.34917871,1.36085902 M0.566251401,1.65264924 C0.549614444,1.65264924 0.496930744,1.61312722 0.496930744,1.45924361 C0.496930744,1.31040538 0.549614444,1.2655577 0.566251401,1.2655577 C0.875421534,1.2655577 2.94949561,1.42000189 2.94949561,1.45924361 C2.94949561,1.49820504 0.871262295,1.65264924 0.566251401,1.65264924 M0.542682378,0.825770132 C0.417905194,0.825770132 0.306992142,0.979934033 0.257081269,1.19856647 C0.241830724,1.27985289 0.229353006,1.36674527 0.229353006,1.45924361 C0.229353006,1.55174195 0.241830724,1.63835404 0.257081269,1.71964046 C0.306992142,1.9385532 0.417905194,2.0924368 0.542682378,2.0924368 C2.71519179,2.0924368 17.5234707,1.59070338 17.5234707,1.45924361 C17.5234707,1.33030653 2.74014722,0.825770132 0.542682378,0.825770132" id="Fill-1" fill="#51381F" mask="url(#mask-4)"></path>
                        </g>
                    </g>
                </g>
            </g>
        </g>
    </g>
</svg>