<?xml version="1.0" encoding="UTF-8"?>
<svg width="9px" height="9px" viewBox="0 0 9 9" version="1.1" xmlns="http://www.w3.org/2000/svg" xmlns:xlink="http://www.w3.org/1999/xlink">
    <!-- Generator: Sketch 52.2 (67145) - http://www.bohemiancoding.com/sketch -->
    <title>Shape</title>
    <desc>Created with Sketch.</desc>
    <g id="Work-Home-page" stroke="none" stroke-width="1" fill="none" fill-rule="evenodd">
        <g id="Coleccion_one-Copy" transform="translate(-1183.000000, -24.000000)" fill="#51381F" fill-rule="nonzero">
            <g id="Header">
                <g id="Search" transform="translate(1183.000000, 24.000000)">
                    <path d="M8.92215569,8.54101996 L6.73453094,6.35388027 C7.32135729,5.67937916 7.67664671,4.79933481 7.67664671,3.83747228 C7.67664671,1.72017738 5.95409182,0 3.83832335,0 C1.72055888,0 0,1.72217295 0,3.83747228 C0,5.95277162 1.72255489,7.67494457 3.83832335,7.67494457 C4.8003992,7.67494457 5.68063872,7.31973392 6.35528942,6.73303769 L8.54291417,8.92017738 C8.59481038,8.97206208 8.66467066,9 8.73253493,9 C8.8003992,9 8.87025948,8.97405765 8.92215569,8.92017738 C9.0259481,8.81640798 9.0259481,8.64478936 8.92215569,8.54101996 Z M0.536926148,3.83747228 C0.536926148,2.01751663 2.01796407,0.538802661 3.83632735,0.538802661 C5.65668663,0.538802661 7.13572854,2.0195122 7.13572854,3.83747228 C7.13572854,5.65543237 5.65668663,7.13813747 3.83632735,7.13813747 C2.01796407,7.13813747 0.536926148,5.65742794 0.536926148,3.83747228 Z" id="Shape"></path>
                </g>
            </g>
        </g>
    </g>
</svg>