<?xml version="1.0" encoding="UTF-8"?>
<svg width="17px" height="17px" viewBox="0 0 17 17" version="1.1" xmlns="http://www.w3.org/2000/svg" xmlns:xlink="http://www.w3.org/1999/xlink">
    <!-- Generator: Sketch 52.2 (67145) - http://www.bohemiancoding.com/sketch -->
    <title>Shape</title>
    <desc>Created with Sketch.</desc>
    <g id="Work-Home-page" stroke="none" stroke-width="1" fill="none" fill-rule="evenodd">
        <g id="search-results-(no-filters)" transform="translate(-534.000000, -270.000000)" fill="#737373" fill-rule="nonzero">
            <g id="Shape-2" transform="translate(534.000000, 270.000000)">
                <path d="M16.8529607,16.1330377 L12.7207807,12.0017738 C13.8292304,10.7277162 14.5003327,9.0654102 14.5003327,7.24855876 C14.5003327,3.24922395 11.2466179,0 7.25016633,0 C3.24994456,0 0,3.25299335 0,7.24855876 C0,11.2441242 3.25371479,14.4971175 7.25016633,14.4971175 C9.06742071,14.4971175 10.7300954,13.8261641 12.0044356,12.7179601 L16.1366157,16.8492239 C16.2346418,16.9472284 16.3666001,17 16.4947882,17 C16.6229763,17 16.7549346,16.9509978 16.8529607,16.8492239 C17.0490131,16.6532151 17.0490131,16.3290466 16.8529607,16.1330377 Z M1.01419383,7.24855876 C1.01419383,3.81086475 3.81170991,1.01773836 7.2463961,1.01773836 C10.6848525,1.01773836 13.4785984,3.81463415 13.4785984,7.24855876 C13.4785984,10.6824834 10.6848525,13.4831486 7.2463961,13.4831486 C3.81170991,13.4831486 1.01419383,10.6862528 1.01419383,7.24855876 Z" id="Shape"></path>
            </g>
        </g>
    </g>
</svg>