<?xml version="1.0" encoding="UTF-8"?>
<svg width="10px" height="6px" viewBox="0 0 10 6" version="1.1" xmlns="http://www.w3.org/2000/svg" xmlns:xlink="http://www.w3.org/1999/xlink">
    <!-- Generator: Sketch 52.2 (67145) - http://www.bohemiancoding.com/sketch -->
    <title>Path</title>
    <desc>Created with Sketch.</desc>
    <g id="Work-Home-page" stroke="none" stroke-width="1" fill="none" fill-rule="evenodd">
        <g id="COLLECTION_ONE_Vintage" transform="translate(-1243.000000, -1680.000000)" fill="#FFFFFF">
            <g id="Group-3" transform="translate(963.000000, 1267.000000)">
                <g id="PRODUCT-3" transform="translate(52.000000, 332.000000)">
                    <g id="Group-5" transform="translate(128.000000, 74.000000)">
                        <path d="M102.221738,15 C102.165001,15 102.108265,14.9812046 102.064826,14.9439975 C101.978391,14.8691996 101.978391,14.747605 102.064826,14.6728071 L107.465435,9.99928079 L102.064826,5.32728877 C101.978391,5.25249087 101.978391,5.13089633 102.064826,5.05609843 C102.151261,4.98130052 102.291772,4.98130052 102.378207,5.05609843 L107.935285,9.86349383 C107.976951,9.89955025 108,9.94826478 108,9.99928079 C108,10.0502968 107.976508,10.0990113 107.935285,10.1350677 L102.378207,14.9436139 C102.335211,14.9812046 102.278474,15 102.221738,15 Z" id="Path" transform="translate(105.000000, 10.000000) rotate(90.000000) translate(-105.000000, -10.000000) "></path>
                    </g>
                </g>
            </g>
        </g>
    </g>
</svg>