<?xml version="1.0" encoding="UTF-8"?>
<svg width="65px" height="77px" viewBox="0 0 65 77" version="1.1" xmlns="http://www.w3.org/2000/svg" xmlns:xlink="http://www.w3.org/1999/xlink">
    <!-- Generator: Sketch 52.2 (67145) - http://www.bohemiancoding.com/sketch -->
    <title>Arrow Copy</title>
    <desc>Created with Sketch.</desc>
    <defs>
        <polygon id="path-1" points="0.224040757 0.182983218 73.1687823 0.182983218 73.1687823 5.28023812 0.224040757 5.28023812"></polygon>
        <polygon id="path-3" points="0.536180012 0.170080551 73.4809215 0.170080551 73.4809215 5.26733545 0.536180012 5.26733545"></polygon>
    </defs>
    <g id="Work-Home-page" stroke="none" stroke-width="1" fill="none" fill-rule="evenodd">
        <g id="COLLECTION_ONE_Bussines-Elegant" transform="translate(-125.000000, -2202.000000)">
            <g id="Group-5-Copy" transform="translate(123.000000, 2186.000000)">
                <g id="Arrow-Copy" transform="translate(34.000000, 55.000000) rotate(90.000000) translate(-34.000000, -55.000000) translate(-6.000000, 21.000000)">
                    <g id="Group-3" transform="translate(21.157566, 33.881179) rotate(60.000000) translate(-21.157566, -33.881179) translate(-15.842434, 30.881179)">
                        <mask id="mask-2" fill="white">
                            <use xlink:href="#path-1"></use>
                        </mask>
                        <g id="Clip-2"></g>
                        <path d="M38.6904918,2.33626041 C24.258263,1.97644091 12.55693,1.55909541 12.55693,1.4124605 C12.55693,1.2658256 24.258263,1.44629933 38.6904918,1.80611882 C53.1168728,2.16819424 64.8240536,2.58553974 64.8240536,2.73217465 C64.8123581,2.87768159 53.1168728,2.69720786 38.6904918,2.33626041 M1.64504222,3.51046761 C1.5748693,3.51046761 1.35265508,3.35142513 1.35265508,2.73217465 C1.35265508,2.13322746 1.5748693,1.95275373 1.64504222,1.95275373 C2.94908882,1.95275373 11.6973118,2.57426014 11.6973118,2.73217465 C11.6973118,2.8889612 2.93154559,3.51046761 1.64504222,3.51046761 M1.54563059,0.182983218 C1.01933375,0.182983218 0.551514345,0.803361664 0.34099561,1.6831711 C0.276670441,2.01027973 0.224040757,2.35994758 0.224040757,2.73217465 C0.224040757,3.10440172 0.276670441,3.45294161 0.34099561,3.78005024 C0.551514345,4.66098764 1.01933375,5.28023812 1.54563059,5.28023812 C10.7090433,5.28023812 73.1687823,3.26118827 73.1687823,2.73217465 C73.1687823,2.21331268 10.8143027,0.182983218 1.54563059,0.182983218" id="Fill-1" fill="#131931" mask="url(#mask-2)"></path>
                    </g>
                    <g id="Group-3-Copy" transform="translate(57.974841, 33.668900) scale(-1, 1) rotate(60.000000) translate(-57.974841, -33.668900) translate(20.974841, 30.668900)">
                        <mask id="mask-4" fill="white">
                            <use xlink:href="#path-3"></use>
                        </mask>
                        <g id="Clip-2"></g>
                        <path d="M39.002631,2.32335774 C24.5704022,1.96353824 12.8690692,1.54619274 12.8690692,1.39955783 C12.8690692,1.25292293 24.5704022,1.43339666 39.002631,1.79321616 C53.4290121,2.15529158 65.1361928,2.57263708 65.1361928,2.71927198 C65.1244973,2.86477893 53.4290121,2.6843052 39.002631,2.32335774 M1.95718147,3.49756494 C1.88700856,3.49756494 1.66479434,3.33852247 1.66479434,2.71927198 C1.66479434,2.12032479 1.88700856,1.93985106 1.95718147,1.93985106 C3.26122808,1.93985106 12.009451,2.56135747 12.009451,2.71927198 C12.009451,2.87605853 3.24368485,3.49756494 1.95718147,3.49756494 M1.85776985,0.170080551 C1.33147301,0.170080551 0.863653599,0.790458997 0.653134865,1.67026843 C0.588809696,1.99737706 0.536180012,2.34704491 0.536180012,2.71927198 C0.536180012,3.09149905 0.588809696,3.44003894 0.653134865,3.76714758 C0.863653599,4.64808497 1.33147301,5.26733545 1.85776985,5.26733545 C11.0211825,5.26733545 73.4809215,3.2482856 73.4809215,2.71927198 C73.4809215,2.20041001 11.1264419,0.170080551 1.85776985,0.170080551" id="Fill-1" fill="#131931" mask="url(#mask-4)"></path>
                    </g>
                </g>
            </g>
        </g>
    </g>
</svg>