<?xml version="1.0" encoding="UTF-8"?>
<svg width="16px" height="20px" viewBox="0 0 16 20" version="1.1" xmlns="http://www.w3.org/2000/svg" xmlns:xlink="http://www.w3.org/1999/xlink">
    <!-- Generator: Sketch 52.2 (67145) - http://www.bohemiancoding.com/sketch -->
    <title>youtube</title>
    <desc>Created with Sketch.</desc>
    <g id="Work-Home-page" stroke="none" stroke-width="1" fill="none" fill-rule="evenodd">
        <g id="Coleccion_one-Copy" transform="translate(-31.000000, -642.000000)" fill="#333333" fill-rule="nonzero">
            <g id="Social-Icon" transform="translate(22.000000, 354.000000)">
                <g id="if_youtube_online_social_media_734361" transform="translate(1.000000, 281.000000)">
                    <g id="Group" transform="translate(8.000000, 7.000000)">
                        <g id="youtube">
                            <path d="M13.15,13.585 C13.004,13.585 12.9,13.626 12.836,13.713 C12.773,13.795 12.742,13.935 12.742,14.13 L12.742,14.6 L13.551,14.6 L13.551,14.13 C13.551,13.935 13.518,13.795 13.454,13.713 C13.392,13.626 13.289,13.585 13.15,13.585 Z" id="Shape"></path>
                            <path d="M9.996,13.568 C9.93,13.568 9.866,13.582 9.802,13.613 C9.739,13.643 9.676,13.691 9.613,13.755 L9.613,16.654 C9.687,16.728 9.76,16.786 9.83,16.818 C9.9,16.851 9.973,16.868 10.051,16.868 C10.163,16.868 10.245,16.836 10.297,16.769 C10.349,16.704 10.377,16.599 10.377,16.449 L10.377,14.047 C10.377,13.89 10.344,13.77 10.28,13.69 C10.215,13.608 10.119,13.568 9.996,13.568 Z" id="Shape"></path>
                            <path d="M15.079,9.962 C14.327,9.212 7.997,9.202 7.997,9.202 C7.997,9.201 1.667,9.211 0.914,9.961 C0.161,10.713 0.159,14.423 0.159,14.444 C0.159,14.472 0.161,18.176 0.914,18.928 C1.667,19.678 7.997,19.694 7.997,19.694 C7.997,19.694 14.328,19.678 15.079,18.928 C15.835,18.174 15.842,14.444 15.842,14.444 C15.842,14.424 15.833,10.714 15.079,9.962 Z M4.987,12.149 L3.921,12.149 L3.921,17.539 L2.89,17.539 L2.89,12.149 L1.823,12.149 L1.823,11.233 L4.986,11.233 L4.986,12.149 L4.987,12.149 Z M8,17.538 L7.087,17.538 L7.087,17.027 C6.917,17.216 6.742,17.36 6.558,17.458 C6.375,17.558 6.198,17.606 6.027,17.606 C5.815,17.606 5.658,17.538 5.549,17.398 C5.444,17.259 5.389,17.053 5.389,16.775 L5.389,12.885 L6.303,12.885 L6.303,16.453 C6.303,16.564 6.322,16.643 6.359,16.693 C6.399,16.743 6.462,16.767 6.547,16.767 C6.614,16.767 6.7,16.735 6.803,16.668 C6.906,16.603 7,16.52 7.087,16.419 L7.087,12.885 L8,12.885 L8,17.538 Z M11.319,16.577 C11.319,16.906 11.247,17.158 11.104,17.334 C10.962,17.51 10.753,17.597 10.482,17.597 C10.302,17.597 10.143,17.565 10.004,17.496 C9.864,17.428 9.732,17.325 9.613,17.181 L9.613,17.538 L8.689,17.538 L8.689,11.232 L9.613,11.232 L9.613,13.263 C9.737,13.121 9.867,13.012 10.005,12.94 C10.145,12.866 10.285,12.829 10.427,12.829 C10.717,12.829 10.938,12.928 11.09,13.125 C11.244,13.324 11.319,13.614 11.319,13.995 L11.319,16.577 Z M14.491,15.325 L12.742,15.325 L12.742,16.2 C12.742,16.445 12.772,16.615 12.831,16.71 C12.893,16.805 12.995,16.851 13.141,16.851 C13.292,16.851 13.398,16.811 13.459,16.731 C13.519,16.651 13.551,16.475 13.551,16.2 L13.551,15.988 L14.492,15.988 L14.492,16.227 C14.492,16.704 14.378,17.063 14.148,17.306 C13.92,17.547 13.577,17.666 13.122,17.666 C12.713,17.666 12.389,17.539 12.154,17.283 C11.919,17.028 11.8,16.677 11.8,16.228 L11.8,14.139 C11.8,13.737 11.931,13.406 12.189,13.153 C12.447,12.899 12.78,12.772 13.19,12.772 C13.609,12.772 13.931,12.89 14.156,13.125 C14.381,13.36 14.492,13.698 14.492,14.139 L14.492,15.325 L14.491,15.325 Z" id="Shape"></path>
                            <path d="M13.146,7.251 L12.116,7.251 L12.116,6.685 C11.928,6.893 11.73,7.053 11.524,7.161 C11.319,7.27 11.12,7.325 10.927,7.325 C10.687,7.325 10.509,7.248 10.389,7.096 C10.269,6.943 10.208,6.715 10.208,6.409 L10.208,2.126 L11.236,2.126 L11.236,6.055 C11.236,6.176 11.26,6.264 11.303,6.318 C11.345,6.373 11.416,6.4 11.512,6.4 C11.587,6.4 11.683,6.364 11.799,6.292 C11.914,6.22 12.021,6.128 12.116,6.016 L12.116,2.126 L13.146,2.126 L13.146,7.251 Z" id="Shape"></path>
                            <path d="M8.965,2.369 C8.692,2.121 8.342,1.996 7.916,1.996 C7.449,1.996 7.075,2.114 6.799,2.349 C6.521,2.584 6.382,2.9 6.383,3.298 L6.383,5.954 C6.383,6.39 6.519,6.736 6.788,6.994 C7.059,7.251 7.42,7.38 7.87,7.38 C8.339,7.38 8.705,7.255 8.974,7.006 C9.24,6.756 9.373,6.413 9.373,5.975 L9.373,3.327 C9.372,2.937 9.236,2.617 8.965,2.369 Z M8.323,6.052 C8.323,6.188 8.282,6.296 8.2,6.376 C8.117,6.454 8.007,6.493 7.868,6.493 C7.731,6.493 7.626,6.455 7.554,6.378 C7.481,6.3 7.443,6.192 7.443,6.052 L7.443,3.26 C7.443,3.148 7.483,3.057 7.561,2.988 C7.64,2.919 7.742,2.885 7.868,2.885 C8.003,2.885 8.113,2.919 8.197,2.988 C8.281,3.057 8.323,3.148 8.323,3.26 L8.323,6.052 Z" id="Shape"></path>
                            <polygon id="Shape" points="3.578 0.305 2.41 0.305 3.79 4.499 3.79 7.251 4.95 7.251 4.95 4.369 6.299 0.305 5.12 0.305 4.404 3.081 4.331 3.081"></polygon>
                        </g>
                    </g>
                </g>
            </g>
        </g>
    </g>
</svg>